<svg xmlns="http://www.w3.org/2000/svg" width="192" height="160" viewBox="0 0 192 160" fill="none">
  <path d="M189.029 132.285C190.069 130.828 191.028 129.322 191.9 127.782C191.217 129.44 190.248 130.961 189.029 132.285Z" fill="#FCFDFE"/>
  <path d="M166.086 131.993C165.835 131.704 165.593 131.404 165.36 131.093C164.912 130.493 164.514 129.869 164.167 129.229L164.493 127.457C164.885 128.386 165.381 129.286 165.984 130.142C166.015 130.524 166.04 130.907 166.059 131.289C166.07 131.524 166.079 131.759 166.086 131.993Z" fill="#F9F7FC"/>
  <path d="M126.914 145.233L126.761 145.205C126.766 145.187 126.772 145.17 126.777 145.152L126.914 145.233Z" fill="#D1CCEB"/>
  <path d="M121.847 142.229L121.32 141.916L121.777 142C121.79 142.049 121.804 142.098 121.82 142.147C121.828 142.174 121.837 142.201 121.847 142.229Z" fill="#BBB6E1"/>
  <path d="M158.667 148.8L90.2083 136.18L107.261 43.6687L175.72 56.2876L158.667 148.8Z" fill="white"/>
  <path d="M157.723 148.626C157.715 148.624 157.707 148.623 157.699 148.622L156.63 148.425C156.63 148.424 156.63 148.424 156.63 148.424L157.723 148.626Z" fill="#DEB6DC"/>
  <path d="M155.549 148.226L152.305 147.627L155.549 148.225C155.549 148.225 155.549 148.225 155.549 148.226Z" fill="#DEB6DC"/>
  <path d="M151.187 147.422L149.885 147.182H149.885L151.187 147.421C151.187 147.421 151.187 147.421 151.187 147.422Z" fill="#DEB6DC"/>
  <path d="M156.63 148.425L155.549 148.225C155.549 148.225 155.549 148.225 155.549 148.225L156.63 148.424C156.63 148.424 156.63 148.424 156.63 148.425Z" fill="#E9C2DD"/>
  <path d="M152.306 147.627L151.187 147.421C151.187 147.421 151.187 147.421 151.187 147.421L152.306 147.627Z" fill="#E9C2DD"/>
  <path d="M158.842 147.851L158.978 147.116L158.846 147.832C158.845 147.838 158.844 147.844 158.842 147.851ZM160.017 141.476L160.283 140.034L160.017 141.476Z" fill="#DEB6DC"/>
  <path d="M159.213 145.837L159.782 142.755L159.214 145.837H159.213Z" fill="#DEB6DC"/>
  <path d="M160.554 138.563L162.867 126.012V126.012L160.554 138.563H160.554Z" fill="#DEB6DC"/>
  <path d="M158.978 147.115L159.213 145.836H159.214L158.978 147.115ZM159.782 142.755L160.017 141.475L159.782 142.755Z" fill="#E9C2DD"/>
  <path d="M160.283 140.034L160.554 138.564H160.554L160.283 140.034Z" fill="#E9C2DD"/>
  <path d="M162.867 126.013V126.012L163.063 124.956L162.867 126.013Z" fill="#E9C2DD"/>
  <path d="M121.32 141.916L115.147 140.779V140.778L121.319 141.916H121.32ZM114.083 140.582L100.662 138.109H100.663L114.083 140.582V140.582ZM94.8931 137.045H94.8921L93.7472 136.834V136.833L94.8931 137.045Z" fill="#DEB6DC"/>
  <path d="M115.147 140.778L114.083 140.582V140.582L115.147 140.778V140.778ZM100.663 138.108H100.662L94.8921 137.045H94.8931L100.663 138.108Z" fill="#EBC5DD"/>
  <path d="M149.885 147.181L146.826 146.617V146.616L149.885 147.181H149.885Z" fill="#D3AAD6"/>
  <path d="M121.777 142L121.32 141.915H121.319L121.777 141.999C121.777 142 121.777 142 121.777 142Z" fill="#D3AAD6"/>
  <path d="M126.896 142.943L123.006 142.227C123.006 142.227 123.006 142.227 123.006 142.226L126.895 142.943H126.896Z" fill="#D3AAD6"/>
  <path d="M123.006 142.227L121.777 142C121.777 142 121.777 142 121.777 141.999L123.006 142.226C123.006 142.227 123.006 142.227 123.006 142.227Z" fill="#DAB3D5"/>
  <path d="M164.205 118.757V118.756L164.594 116.649L164.205 118.757Z" fill="#D6AED6"/>
  <path d="M163.419 123.022C163.419 123.022 163.419 123.022 163.419 123.022L164.205 118.756V118.757L163.419 123.022Z" fill="#D3AAD6"/>
  <path d="M163.063 124.955L163.419 123.022C163.419 123.023 163.419 123.022 163.419 123.023L163.063 124.955Z" fill="#DAB3D5"/>
  <path d="M146.826 146.617L126.896 142.943H126.895L146.826 146.617V146.617ZM164.594 116.649L164.86 115.202H164.861L164.594 116.649ZM168.059 97.8487L168.305 96.5135L168.059 97.8487Z" fill="#E98EB3"/>
  <path d="M157.879 148.638C157.827 148.638 157.775 148.633 157.723 148.625L156.63 148.424L155.549 148.225L152.305 147.627L151.187 147.42L149.885 147.181L146.826 146.616L126.895 142.943L123.006 142.226L121.777 141.999L121.319 141.915L115.147 140.777L114.083 140.581L100.663 138.108L94.8931 137.044L93.7472 136.832V116.982L94.8516 110.989H107.559C109.903 110.989 112.076 110.166 113.862 108.763L128.021 111.373L128.118 111.382C128.37 111.382 128.593 111.203 128.64 110.946C128.694 110.657 128.503 110.38 128.214 110.327L114.871 107.868C115.807 106.932 116.6 105.82 117.209 104.578C120.007 105.203 122.914 105.533 125.897 105.533C130.518 105.533 135.014 104.754 139.254 103.241L156.1 106.346L164.86 115.202L164.594 116.649L164.205 118.756L163.419 123.022L163.063 124.955L162.867 126.011L160.554 138.563L160.283 140.033L160.017 141.475L159.782 142.755L159.213 145.836L158.978 147.115L158.842 147.85C158.747 148.314 158.338 148.638 157.879 148.638ZM154.792 105.023L141.149 102.508C144.004 101.319 146.729 99.7863 149.283 97.9251C149.259 98.3383 149.405 98.76 149.721 99.0758L151.57 100.925C152.121 100.001 153.632 98.2755 155.321 96.5335C153.632 98.2755 152.121 100.001 151.57 100.925C151.371 101.257 151.294 101.488 151.381 101.576L154.792 105.023ZM168.059 97.8485L161.564 91.2828C161.541 91.2599 161.508 91.2487 161.466 91.2487C161.321 91.2487 161.064 91.3785 160.724 91.6093L158.956 89.8406C158.664 89.5487 158.284 89.404 157.903 89.404C157.899 89.404 157.895 89.404 157.891 89.404C160.494 85.8976 162.471 82.0592 163.785 78.0008C163.809 77.9545 163.826 77.9045 163.836 77.8514C163.837 77.8439 163.839 77.837 163.84 77.8301C164.939 74.3816 165.561 70.7735 165.683 67.0756C165.784 66.9985 165.858 66.8847 165.883 66.7496C165.918 66.5545 165.843 66.3652 165.701 66.2461C165.703 66.0727 165.705 65.8988 165.705 65.7255C165.705 61.692 165.101 57.7957 163.98 54.1233L174.751 56.109C175.286 56.2073 175.64 56.721 175.542 57.2555L168.305 96.5132L168.059 97.8485Z" fill="url(#paint0_linear_1_3144)"/>
  <path d="M165.36 67.1855L165.263 67.1765L148.611 64.1071C148.322 64.054 148.131 63.7769 148.184 63.4882C148.238 63.1994 148.511 63.0085 148.804 63.0617L165.456 66.131C165.745 66.1842 165.936 66.4613 165.883 66.75C165.835 67.0063 165.612 67.1855 165.36 67.1855Z" fill="white"/>
  <path d="M164.379 72.5049L164.282 72.4964L147.63 69.4265C147.341 69.3733 147.151 69.0962 147.204 68.8075C147.257 68.5193 147.532 68.3278 147.824 68.381L164.476 71.4504C164.764 71.5036 164.955 71.7811 164.902 72.0699C164.855 72.3257 164.631 72.5049 164.379 72.5049Z" fill="white"/>
  <path d="M163.314 78.2871L163.217 78.2786L146.564 75.2092C146.276 75.1561 146.085 74.8785 146.139 74.5897C146.191 74.3015 146.465 74.1106 146.758 74.1632L163.41 77.2326C163.699 77.2858 163.89 77.5634 163.836 77.8521C163.789 78.1084 163.565 78.2871 163.314 78.2871Z" fill="white"/>
  <path d="M136.502 81.4225L109.303 76.409C108.724 76.3027 108.342 75.7464 108.448 75.1679L113.803 46.1184C113.909 45.5393 114.465 45.1565 115.044 45.2634L142.243 50.2769C142.822 50.3838 143.205 50.9394 143.098 51.5185L137.744 80.568C137.637 81.1465 137.081 81.5294 136.502 81.4225Z" fill="#6C92D3"/>
  <path d="M121.494 63.3066C121.287 63.3066 121.078 63.288 120.868 63.2492L120.463 63.1742C118.31 62.7775 116.88 60.702 117.276 58.5478L118.299 52.9967C118.379 52.5633 118.798 52.2762 119.228 52.357C119.662 52.4368 119.948 52.8526 119.869 53.286L118.846 58.8371C118.608 60.1261 119.463 61.3678 120.752 61.6055L121.158 61.6805C122.16 61.8666 123.125 61.2003 123.309 60.1979L125.899 46.1475C126.09 45.1138 125.404 44.1173 124.37 43.9264L123.676 43.7987C122.574 43.5961 121.521 44.3252 121.318 45.4228L121.254 45.7695C121.174 46.2029 120.753 46.4889 120.325 46.4092C119.892 46.3294 119.605 45.9136 119.685 45.4807L119.749 45.1335C120.112 43.1702 122.004 41.8673 123.965 42.23L124.659 42.3576C126.558 42.7075 127.818 44.5373 127.469 46.4363L124.878 60.4872C124.573 62.1442 123.121 63.3066 121.494 63.3066Z" fill="#3C419F"/>
  <path d="M124.263 51.5088L124.214 51.5045L113.584 49.545C113.44 49.5184 113.344 49.3801 113.371 49.2355C113.398 49.0908 113.534 48.993 113.681 49.0222L124.311 50.9813C124.455 51.0079 124.55 51.1467 124.524 51.2913C124.5 51.4194 124.388 51.5088 124.263 51.5088Z" fill="white"/>
  <path d="M156.765 106.46L156.668 106.451L105.787 97.0721C105.498 97.0189 105.307 96.7419 105.36 96.4526C105.414 96.1644 105.687 95.9714 105.98 96.0261L156.862 105.405C157.15 105.458 157.341 105.736 157.288 106.025C157.241 106.281 157.017 106.46 156.765 106.46Z" fill="white"/>
  <path d="M153.128 126.195L153.031 126.187L102.149 116.808C101.86 116.755 101.669 116.478 101.722 116.188C101.775 115.9 102.049 115.707 102.342 115.762L153.224 125.141C153.513 125.193 153.704 125.471 153.65 125.76C153.603 126.016 153.379 126.195 153.128 126.195Z" fill="white"/>
  <path d="M128.118 111.383L128.021 111.374L103.968 106.94C103.679 106.887 103.488 106.61 103.541 106.32C103.595 106.032 103.868 105.838 104.161 105.894L128.214 110.328C128.503 110.381 128.694 110.658 128.64 110.947C128.593 111.204 128.37 111.383 128.118 111.383Z" fill="white"/>
  <path d="M131.432 93.4023L131.335 93.3938L107.282 88.9605C106.993 88.9068 106.802 88.6297 106.856 88.341C106.909 88.0527 107.183 87.8618 107.475 87.9145L131.528 92.3478C131.817 92.4005 132.008 92.6781 131.955 92.9673C131.907 93.2231 131.684 93.4023 131.432 93.4023Z" fill="white"/>
  <path d="M154.961 116.251L154.864 116.242L131.946 112.018C131.657 111.964 131.467 111.687 131.52 111.398C131.573 111.11 131.847 110.917 132.139 110.972L155.057 115.196C155.346 115.249 155.537 115.527 155.483 115.816C155.436 116.072 155.213 116.251 154.961 116.251Z" fill="white"/>
  <path d="M33.5186 0.000205994H101.395C102.762 0.000205994 103.87 1.10894 103.87 2.47559V102.45C103.87 107.166 100.047 110.989 95.3308 110.989H48.2018C38.1519 110.989 30.0052 102.843 30.0052 92.7932V3.51413C30.0052 1.57371 31.5782 0.000205994 33.5186 0.000205994Z" fill="white"/>
  <path d="M36.5656 91.9199C35.5563 90.2592 33.7297 89.1494 31.6441 89.1494H30.0052V3.51347C30.0052 1.57304 31.5782 -0.000465393 33.5186 -0.000465393H101.395H37.1522C36.8283 -0.000465393 36.5656 0.26223 36.5656 0.586075V91.9199Z" fill="url(#paint1_linear_1_3144)"/>
  <path d="M57.1381 104.4H43.1335C39.9668 104.4 37.3994 101.833 37.3994 98.6658V94.9051C37.3994 93.8124 37.0947 92.7908 36.5656 91.9203V0.586479C36.5656 0.262627 36.8283 -6.86646e-05 37.1522 -6.86646e-05H101.395C102.762 -6.86646e-05 103.87 1.10867 103.87 2.47532V32.583C96.933 37.2083 91.5244 43.95 88.5736 51.8803H61.94C61.6465 51.8803 61.4082 52.1185 61.4082 52.4121C61.4082 52.7056 61.6465 52.9438 61.94 52.9438H88.195C87.2022 55.8638 86.5401 58.9337 86.253 62.1115H49.2036C48.9095 62.1115 48.6718 62.3498 48.6718 62.6433C48.6718 62.9368 48.9095 63.1751 49.2036 63.1751H86.1711C86.1174 64.019 86.0902 64.8687 86.0902 65.7259C86.0902 76.7357 90.5821 86.7154 97.8306 93.9288H58.567V98.6254C58.567 100.712 58.0506 102.676 57.1381 104.4Z" fill="#8BA9F3"/>
  <path d="M46.8739 110.97V110.989H106.202C113.031 110.989 118.566 105.454 118.566 98.6251V93.9285H58.567V98.6251C58.567 105.228 53.3902 110.622 46.8739 110.97Z" fill="#1445C2"/>
  <path d="M107.559 110.989H94.8516H106.202C108.888 110.989 111.374 110.133 113.401 108.678L113.862 108.763C112.076 110.166 109.903 110.989 107.559 110.989ZM114.871 107.868L114.493 107.798C115.52 106.869 116.39 105.77 117.06 104.545C117.109 104.556 117.16 104.567 117.209 104.578C116.6 105.82 115.807 106.932 114.871 107.868Z" fill="#C9ADD2"/>
  <path d="M113.862 108.764L113.401 108.679C113.782 108.406 114.146 108.112 114.493 107.799L114.871 107.868C114.55 108.188 114.213 108.487 113.862 108.764Z" fill="#CCCBE6"/>
  <path d="M92.6586 81.1357H50.0007C49.7072 81.1357 49.4689 80.8975 49.4689 80.604C49.4689 80.3104 49.7072 80.0722 50.0007 80.0722H92.6586C92.9527 80.0722 93.1904 80.3104 93.1904 80.604C93.1904 80.8975 92.9527 81.1357 92.6586 81.1357Z" fill="white"/>
  <path d="M71.3294 72.1475H48.6676C48.3741 72.1475 48.1358 71.9098 48.1358 71.6157C48.1358 71.3222 48.3741 71.0839 48.6676 71.0839H71.3294C71.6235 71.0839 71.8612 71.3222 71.8612 71.6157C71.8612 71.9098 71.6235 72.1475 71.3294 72.1475Z" fill="white"/>
  <path d="M69.6129 72.1475H50.3847C50.0906 72.1475 49.8529 71.9098 49.8529 71.6157C49.8529 71.3222 50.0906 71.0839 50.3847 71.0839H69.6129C69.9064 71.0839 70.1447 71.3222 70.1447 71.6157C70.1447 71.9098 69.9064 72.1475 69.6129 72.1475Z" fill="white"/>
  <path d="M78.7067 43.9707H49.5121C49.218 43.9707 48.9803 43.7325 48.9803 43.4389C48.9803 43.1454 49.218 42.9072 49.5121 42.9072H78.7067C79.0002 42.9072 79.2384 43.1454 79.2384 43.4389C79.2384 43.7325 79.0002 43.9707 78.7067 43.9707Z" fill="white"/>
  <path d="M92.2407 43.9707H83.3479C83.0539 43.9707 82.8162 43.7325 82.8162 43.4389C82.8162 43.1454 83.0539 42.9072 83.3479 42.9072H92.2407C92.5348 42.9072 92.7725 43.1454 92.7725 43.4389C92.7725 43.7325 92.5348 43.9707 92.2407 43.9707Z" fill="white"/>
  <path d="M93.5536 52.9443H61.94C61.6465 52.9443 61.4082 52.7061 61.4082 52.4126C61.4082 52.119 61.6465 51.8808 61.94 51.8808H93.5536C93.8477 51.8808 94.0854 52.119 94.0854 52.4126C94.0854 52.7061 93.8477 52.9443 93.5536 52.9443Z" fill="white"/>
  <path d="M58.8174 52.9443H49.2036C48.9095 52.9443 48.6718 52.7061 48.6718 52.4126C48.6718 52.119 48.9095 51.8808 49.2036 51.8808H58.8174C59.111 51.8808 59.3492 52.119 59.3492 52.4126C59.3492 52.7061 59.111 52.9443 58.8174 52.9443Z" fill="white"/>
  <path d="M92.6586 36.374H50.0007C49.7072 36.374 49.4689 36.1358 49.4689 35.8423C49.4689 35.5482 49.7072 35.3105 50.0007 35.3105H92.6586C92.9527 35.3105 93.1904 35.5482 93.1904 35.8423C93.1904 36.1358 92.9527 36.374 92.6586 36.374Z" fill="white"/>
  <path d="M92.6586 18.4121H50.0007C49.7072 18.4121 49.4689 18.1739 49.4689 17.8803C49.4689 17.5863 49.7072 17.3486 50.0007 17.3486H92.6586C92.9527 17.3486 93.1904 17.5863 93.1904 17.8803C93.1904 18.1739 92.9527 18.4121 92.6586 18.4121Z" fill="white"/>
  <path d="M65.6571 27.3857H49.5121C49.218 27.3857 48.9803 27.1475 48.9803 26.854C48.9803 26.5599 49.218 26.3222 49.5121 26.3222H65.6571C65.9506 26.3222 66.1888 26.5599 66.1888 26.854C66.1888 27.1475 65.9506 27.3857 65.6571 27.3857Z" fill="white"/>
  <path d="M92.3343 27.3857H73.106C72.8125 27.3857 72.5743 27.1475 72.5743 26.854C72.5743 26.5599 72.8125 26.3222 73.106 26.3222H92.3343C92.6283 26.3222 92.866 26.5599 92.866 26.854C92.866 27.1475 92.6283 27.3857 92.3343 27.3857Z" fill="white"/>
  <path d="M155.731 52.6035L127.298 47.3624V47.3619L155.731 52.603V52.6035ZM125.729 47.0731L121.017 46.2042L124.997 46.9381L125.729 47.0726V47.0731ZM119.751 45.9713L112.49 44.6328L112.49 44.6323L119.751 45.9708C119.751 45.9708 119.751 45.9708 119.751 45.9713Z" fill="white"/>
  <path d="M103.87 62.0645L105.751 51.8582V51.8577L103.87 62.0645Z" fill="#F2D2EB"/>
  <path d="M125.897 98.3193C123.378 98.3193 120.923 98.0322 118.566 97.4882V93.9291H109.573C107.52 92.7363 105.608 91.3255 103.87 89.7292V62.065L105.751 51.8582C107.53 49.051 109.82 46.598 112.49 44.6331L119.751 45.9715C119.762 45.9933 119.774 46.0152 119.786 46.0359L115.062 45.1654C114.997 45.1532 114.932 45.1473 114.868 45.1473C114.363 45.1473 113.916 45.5068 113.82 46.0205L108.664 73.9915L108.448 75.1677C108.447 75.1688 108.447 75.1704 108.447 75.172L108.164 76.703C108.058 77.2821 108.441 77.8377 109.02 77.9446L137.551 83.2038C137.616 83.2155 137.681 83.2214 137.745 83.2214C138.249 83.2214 138.698 82.8619 138.792 82.3487L144.448 51.6657C144.554 51.0872 144.172 50.5314 143.593 50.4246L127.288 47.419L127.298 47.3627L155.731 52.6038C157.393 56.3671 158.363 60.5016 158.479 64.8451L148.804 63.062C148.771 63.0562 148.738 63.053 148.706 63.053C148.453 63.053 148.232 63.2322 148.184 63.4885C148.131 63.7773 148.322 64.0543 148.611 64.1075L158.49 65.9288C158.481 67.4061 158.373 68.8636 158.172 70.2888L147.824 68.3813C147.791 68.3749 147.758 68.3723 147.726 68.3723C147.473 68.3723 147.252 68.552 147.204 68.8078C147.151 69.0965 147.341 69.3736 147.63 69.4268L158.007 71.3395C157.727 72.9418 157.33 74.5057 156.826 76.0191L146.758 74.1632C146.725 74.1574 146.693 74.1547 146.661 74.1547C146.407 74.1547 146.185 74.3334 146.139 74.5897C146.085 74.8785 146.276 75.156 146.565 75.2092L156.468 77.0348C151.861 89.4489 139.895 98.3193 125.897 98.3193ZM107.379 87.9062C107.125 87.9062 106.903 88.0849 106.856 88.3412C106.802 88.63 106.993 88.907 107.282 88.9607L131.335 93.3941L131.432 93.4026C131.684 93.4026 131.907 93.2234 131.955 92.9676C132.008 92.6783 131.817 92.4008 131.528 92.3481L107.475 87.9148C107.442 87.9089 107.41 87.9062 107.379 87.9062ZM125.719 47.1297L120.961 46.2528C120.98 46.2374 120.999 46.2215 121.017 46.2045L125.729 47.0734L125.719 47.1297Z" fill="url(#paint2_linear_1_3144)"/>
  <path d="M158.49 65.9287L148.611 64.1074C148.322 64.0542 148.131 63.7772 148.184 63.4884C148.232 63.2321 148.453 63.0529 148.706 63.0529C148.738 63.0529 148.771 63.0561 148.804 63.062L158.479 64.845C158.487 65.1385 158.49 65.431 158.49 65.7261C158.49 65.7942 158.49 65.8606 158.49 65.9287Z" fill="white"/>
  <path d="M158.007 71.3398L147.63 69.4271C147.341 69.3739 147.151 69.0969 147.204 68.8081C147.252 68.5523 147.473 68.3726 147.726 68.3726C147.758 68.3726 147.791 68.3752 147.824 68.3816L158.172 70.2891C158.122 70.6422 158.068 70.991 158.007 71.3398Z" fill="white"/>
  <path d="M156.468 77.0342L146.564 75.2086C146.276 75.1554 146.085 74.8779 146.139 74.5891C146.185 74.3328 146.407 74.1541 146.661 74.1541C146.693 74.1541 146.725 74.1568 146.758 74.1626L156.826 76.0185C156.712 76.3599 156.593 76.6976 156.468 77.0342Z" fill="white"/>
  <path d="M137.745 83.2217C137.681 83.2217 137.616 83.2158 137.551 83.2041L109.02 77.9449C108.441 77.8381 108.058 77.2824 108.164 76.7033L108.447 75.1723C108.343 75.7493 108.725 76.3029 109.303 76.4092L136.502 81.4227C136.567 81.4349 136.632 81.4408 136.696 81.4408C137.201 81.4408 137.649 81.0813 137.744 80.5682L142.593 54.2595L142.93 52.4286L143.098 51.5187C143.098 51.5166 143.099 51.515 143.1 51.5134L143.111 51.4512C143.211 50.9093 142.852 50.3893 142.31 50.2893L127.27 47.5172L127.288 47.4193L143.593 50.4249C144.172 50.5318 144.554 51.0875 144.448 51.666L138.792 82.3491C138.698 82.8622 138.249 83.2217 137.745 83.2217ZM108.664 73.9918L113.82 46.0208C113.916 45.5071 114.363 45.1476 114.868 45.1476C114.932 45.1476 114.997 45.1535 115.062 45.1657L119.786 46.0362C119.811 46.0777 119.839 46.117 119.871 46.1532L115.013 45.2577C114.95 45.246 114.887 45.2407 114.824 45.2407C114.335 45.2407 113.9 45.589 113.809 46.0878L113.742 46.451L108.664 73.9918ZM125.701 47.2279L120.839 46.3319C120.882 46.309 120.923 46.2829 120.961 46.2532L125.719 47.13L125.701 47.2279Z" fill="#8BA9F3"/>
  <path d="M136.697 81.4404C136.632 81.4404 136.567 81.4346 136.502 81.4224L109.303 76.4088C108.725 76.3025 108.343 75.7489 108.447 75.172C108.447 75.1704 108.447 75.1688 108.448 75.1677L108.664 73.9914L113.742 46.4506L113.298 48.8595L125.002 51.0169L123.309 60.1984C123.145 61.0875 122.368 61.7124 121.495 61.7124C121.384 61.7124 121.271 61.7017 121.158 61.681L120.752 61.606C119.463 61.3683 118.608 60.1266 118.846 58.8376L119.869 53.2865C119.948 52.8531 119.662 52.4373 119.228 52.3575C119.18 52.3485 119.131 52.3442 119.083 52.3442C118.708 52.3442 118.37 52.6133 118.299 52.9972L117.276 58.5483C116.88 60.7025 118.31 62.778 120.463 63.1747L120.868 63.2497C121.078 63.2885 121.287 63.3071 121.494 63.3071C123.121 63.3071 124.573 62.1447 124.878 60.4877L126.571 51.3062L142.593 54.2591L137.744 80.5678C137.649 81.081 137.201 81.4404 136.697 81.4404ZM113.629 49.0169C113.503 49.0169 113.394 49.1079 113.371 49.2355C113.344 49.3801 113.44 49.5184 113.584 49.545L124.214 51.5045L124.263 51.5088C124.388 51.5088 124.5 51.4195 124.524 51.2913C124.55 51.1467 124.455 51.0079 124.311 50.9813L113.681 49.0223C113.663 49.0185 113.646 49.0169 113.629 49.0169ZM142.93 52.4282L143.1 51.5131C143.099 51.5147 143.098 51.5162 143.098 51.5184L142.93 52.4282Z" fill="url(#paint3_linear_1_3144)"/>
  <path d="M142.593 54.2588L142.93 52.4279L142.593 54.2588ZM143.1 51.5127C143.203 50.9358 142.82 50.3827 142.243 50.2764L127.27 47.5165L142.31 50.2886C142.852 50.3886 143.211 50.9086 143.111 51.4505L143.1 51.5127Z" fill="#EAD4E6"/>
  <path d="M142.593 54.2588L126.571 51.3059L127.27 47.5165L142.243 50.2764C142.82 50.3827 143.203 50.9358 143.1 51.5127L142.93 52.4279L142.593 54.2588Z" fill="url(#paint4_linear_1_3144)"/>
  <path d="M125.701 47.2275L120.839 46.3315H120.839L125.701 47.2275ZM113.742 46.4506L113.809 46.0874C113.9 45.5886 114.335 45.2403 114.824 45.2403C114.887 45.2403 114.95 45.2456 115.013 45.2573L119.871 46.1528L115.044 45.2632C114.979 45.251 114.914 45.2451 114.85 45.2451C114.346 45.2451 113.897 45.6046 113.803 46.1183L113.742 46.4506Z" fill="#EAD4E6"/>
  <path d="M125.002 51.0166L113.298 48.8592L113.742 46.4503L113.803 46.1179C113.897 45.6043 114.346 45.2448 114.85 45.2448C114.914 45.2448 114.979 45.2506 115.044 45.2629L119.871 46.1525C119.986 46.2823 120.143 46.3759 120.325 46.4094C120.373 46.4184 120.422 46.4226 120.469 46.4226C120.6 46.4226 120.726 46.3902 120.839 46.3312L125.701 47.2272L125.002 51.0166Z" fill="url(#paint5_linear_1_3144)"/>
  <path d="M121.494 63.3066C121.287 63.3066 121.078 63.288 120.868 63.2492L120.463 63.1742C118.31 62.7775 116.88 60.702 117.276 58.5478L118.299 52.9967C118.37 52.6128 118.708 52.3437 119.083 52.3437C119.131 52.3437 119.18 52.348 119.228 52.357C119.662 52.4368 119.948 52.8526 119.869 53.286L118.846 58.8371C118.608 60.1261 119.463 61.3678 120.752 61.6055L121.158 61.6805C121.271 61.7012 121.384 61.7119 121.495 61.7119C122.368 61.7119 123.145 61.087 123.309 60.1979L125.002 51.0164L125.701 47.227L125.719 47.1292L125.729 47.0728V47.0723L125.899 46.1475C125.945 45.9008 125.94 45.6567 125.894 45.4249C125.743 44.6841 125.158 44.0715 124.37 43.9264L123.676 43.7987C123.552 43.7759 123.429 43.7647 123.307 43.7647C122.348 43.7647 121.498 44.4486 121.318 45.4228L121.254 45.7695C121.222 45.9423 121.136 46.0917 121.017 46.2039C120.999 46.2209 120.98 46.2369 120.961 46.2523C120.923 46.2821 120.882 46.3081 120.839 46.331H120.839C120.726 46.39 120.6 46.4225 120.469 46.4225C120.422 46.4225 120.373 46.4182 120.325 46.4092C120.143 46.3757 119.986 46.2821 119.871 46.1523C119.839 46.1162 119.811 46.0768 119.786 46.0354C119.774 46.0146 119.762 45.9928 119.751 45.971C119.751 45.9705 119.751 45.9705 119.751 45.9705C119.68 45.8237 119.653 45.6535 119.685 45.4807L119.749 45.1335C120.071 43.3914 121.597 42.1694 123.307 42.1694C123.524 42.1694 123.744 42.1891 123.965 42.23L124.659 42.3576C125.588 42.5289 126.365 43.0548 126.875 43.77C127.406 44.5156 127.647 45.4669 127.469 46.4363L127.298 47.3616V47.3621L127.288 47.4185L127.27 47.5163L126.571 51.3057L124.878 60.4872C124.573 62.1442 123.121 63.3066 121.494 63.3066Z" fill="#1445C2"/>
  <path d="M124.263 51.5088L124.214 51.5045L113.584 49.545C113.44 49.5184 113.344 49.3801 113.371 49.2355C113.394 49.1079 113.503 49.0169 113.629 49.0169C113.646 49.0169 113.664 49.0185 113.681 49.0222L124.311 50.9813C124.455 51.0079 124.55 51.1467 124.524 51.2913C124.5 51.4194 124.388 51.5088 124.263 51.5088Z" fill="white"/>
  <path d="M131.432 93.4023L131.335 93.3938L107.282 88.9605C106.993 88.9068 106.802 88.6297 106.856 88.341C106.903 88.0847 107.125 87.906 107.379 87.906C107.41 87.906 107.442 87.9086 107.475 87.9145L131.528 92.3478C131.817 92.4005 132.008 92.6781 131.955 92.9673C131.907 93.2231 131.684 93.4023 131.432 93.4023Z" fill="white"/>
  <path d="M103.87 89.7295C97.3792 83.7678 93.3042 75.2138 93.3042 65.7265C93.3042 64.8677 93.3377 64.018 93.4031 63.1756H93.5536C93.8477 63.1756 94.0854 62.9374 94.0854 62.6439C94.0854 62.3503 93.8477 62.1121 93.5536 62.1121H93.5036C94.3938 54.0803 98.2151 46.9179 103.87 41.7241V47.1492C99.8136 52.3648 97.3956 58.9146 97.3956 66.0185C97.3956 67.1931 98.3486 68.1455 99.5227 68.1455C100.697 68.1455 101.65 67.1931 101.65 66.0185C101.65 62.2429 102.443 58.6487 103.87 55.3943V89.7295Z" fill="#8BA9F3"/>
  <path d="M118.566 97.4883C115.363 96.7491 112.34 95.5372 109.573 93.9292H118.566V97.4883Z" fill="#1445C2"/>
  <path d="M103.87 55.3936V47.1485C109.509 39.8984 118.313 35.2257 128.188 35.2257C129.362 35.2257 130.315 36.1781 130.315 37.3528C130.315 38.5275 129.362 39.4799 128.188 39.4799C122.319 39.4799 116.889 41.3948 112.49 44.6322L107.261 43.6686L107.086 44.6205C107.084 44.6258 107.083 44.6311 107.082 44.6369L105.751 51.8584C105.039 52.9831 104.41 54.163 103.87 55.3936Z" fill="white"/>
  <path d="M112.49 44.6328L108.229 43.8474C108.169 43.8362 108.109 43.8309 108.05 43.8309C107.589 43.8309 107.18 44.1548 107.086 44.6206L107.261 43.6687L112.49 44.6323L112.49 44.6328Z" fill="white"/>
  <path d="M105.751 51.8584L107.082 44.637C107.083 44.6311 107.084 44.6258 107.086 44.6205L105.751 51.8579V51.8584Z" fill="#FCF8FC"/>
  <path d="M99.5227 68.1445C98.3486 68.1445 97.3956 67.1921 97.3956 66.0175C97.3956 58.9136 99.8136 52.3638 103.87 47.1482V55.3933C102.443 58.6477 101.65 62.2419 101.65 66.0175C101.65 67.1921 100.697 68.1445 99.5227 68.1445Z" fill="#D1DCFA"/>
  <path d="M155.257 50.3975L154.367 49.8694C152.333 46.2327 149.621 43.0218 146.406 40.4119H147.239C150.516 43.1787 153.25 46.5687 155.257 50.3975Z" fill="#1445C2"/>
  <path d="M156.362 52.7197L155.731 52.6033C155.318 51.6684 154.863 50.7559 154.367 49.8694L155.257 50.3975C155.655 51.1547 156.023 51.929 156.362 52.7197Z" fill="#1445C2"/>
  <path d="M156.362 52.7197L155.731 52.6038V52.6033L156.362 52.7197Z" fill="#8F8ECB"/>
  <path d="M125.897 98.8506C123.379 98.8506 120.925 98.5682 118.566 98.0333V97.4877C120.923 98.0317 123.378 98.3188 125.897 98.3188C139.895 98.3188 151.861 89.4484 156.468 77.0343L156.999 77.1316C152.341 89.7956 140.157 98.8506 125.897 98.8506ZM157.354 76.1159L156.826 76.0186C157.33 74.5052 157.727 72.9412 158.007 71.339L158.53 71.4358C158.25 73.038 157.856 74.6009 157.354 76.1159ZM158.696 70.3845L158.172 70.2882C158.373 68.8631 158.481 67.4055 158.49 65.9283L159.021 66.0261C159.008 67.5034 158.897 68.9588 158.696 70.3845ZM159.013 64.9429L158.479 64.8445C158.363 60.5011 157.393 56.3666 155.731 52.6032L156.362 52.7192C157.977 56.4873 158.912 60.6148 159.013 64.9429Z" fill="#1445C2"/>
  <path d="M159.021 66.0264L158.49 65.9285C158.49 65.8605 158.49 65.794 158.49 65.7259C158.49 65.4308 158.487 65.1383 158.479 64.8448L159.013 64.9431C159.019 65.2037 159.022 65.4643 159.022 65.7259C159.022 65.8264 159.022 65.9259 159.021 66.0264Z" fill="#1445C2"/>
  <path d="M158.53 71.4365L158.007 71.3397C158.068 70.9909 158.122 70.6421 158.172 70.289L158.696 70.3852C158.646 70.7378 158.59 71.0877 158.53 71.4365Z" fill="#1445C2"/>
  <path d="M156.999 77.1318L156.468 77.0345C156.593 76.6979 156.712 76.3602 156.826 76.0188L157.354 76.1162C157.241 76.4565 157.122 76.7963 156.999 77.1318Z" fill="#1445C2"/>
  <path d="M103.87 41.7236V41.0068C109.728 35.7806 117.448 32.6011 125.897 32.6011C130.044 32.6011 134.013 33.3669 137.674 34.7638V35.3339C134.02 33.913 130.048 33.1329 125.897 33.1329C117.412 33.1329 109.675 36.3916 103.87 41.7236Z" fill="#1445C2"/>
  <path d="M147.239 40.4121H146.406C143.797 38.2941 140.857 36.5717 137.674 35.3343V34.7642C141.187 36.1048 144.415 38.0271 147.239 40.4121Z" fill="#1445C2"/>
  <path d="M109.573 93.9287H108.539C106.88 92.904 105.318 91.7378 103.87 90.4456V89.7288C105.608 91.3252 107.52 92.736 109.573 93.9287Z" fill="#1445C2"/>
  <path d="M103.87 90.4453C97.0644 84.3746 92.7725 75.542 92.7725 65.7255C92.7725 64.8673 92.8054 64.017 92.8698 63.1746H93.4031C93.3377 64.017 93.3042 64.8667 93.3042 65.7255C93.3042 75.2128 97.3792 83.7668 103.87 89.7285V90.4453Z" fill="#1445C2"/>
  <path d="M93.5036 62.1113H92.9687C93.879 53.7541 97.9109 46.3221 103.87 41.0065V41.7233C98.2151 46.9171 94.3938 54.0795 93.5036 62.1113Z" fill="#1445C2"/>
  <path d="M118.566 98.0332C114.968 97.2169 111.59 95.8131 108.539 93.9285H109.573C112.34 95.5366 115.363 96.7485 118.566 97.4876V98.0332Z" fill="#0F3594"/>
  <path d="M125.897 99.3828C107.309 99.3828 92.2407 84.314 92.2407 65.7266C92.2407 47.1381 107.309 32.0699 125.897 32.0699C144.485 32.0699 159.554 47.1381 159.554 65.7266C159.554 84.314 144.485 99.3828 125.897 99.3828ZM156.833 89.8412C156.882 89.7913 156.938 89.7519 156.992 89.711C162.118 83.0756 165.173 74.7598 165.173 65.7266C165.173 44.0353 147.589 26.4508 125.897 26.4508C104.206 26.4508 86.622 44.0353 86.622 65.7266C86.622 87.4174 104.206 105.002 125.897 105.002C134.893 105.002 143.173 101.967 149.795 96.8792L154.338 92.3352L156.833 89.8412Z" fill="url(#paint6_linear_1_3144)"/>
  <path d="M125.897 32.6016C107.632 32.6016 92.7724 47.4614 92.7724 65.7265C92.7724 83.9922 107.632 98.8515 125.897 98.8515C144.163 98.8515 159.022 83.9922 159.022 65.7265C159.022 47.4614 144.163 32.6016 125.897 32.6016ZM125.897 99.915C107.046 99.915 91.7089 84.5783 91.7089 65.7265C91.7089 46.8754 107.046 31.5381 125.897 31.5381C144.749 31.5381 160.086 46.8754 160.086 65.7265C160.086 84.5783 144.749 99.915 125.897 99.915ZM125.897 26.983C104.534 26.983 87.1538 44.3633 87.1538 65.7265C87.1538 87.0903 104.534 104.471 125.897 104.471C134.485 104.471 142.626 101.707 149.443 96.4787L156.457 89.4657C156.507 89.4152 156.56 89.3716 156.615 89.3301C161.866 82.507 164.641 74.347 164.641 65.7265C164.641 44.3633 147.261 26.983 125.897 26.983ZM125.897 105.534C103.948 105.534 86.0902 87.6769 86.0902 65.7265C86.0902 43.7773 103.948 25.9194 125.897 25.9194C147.848 25.9194 165.705 43.7773 165.705 65.7265C165.705 74.6081 162.838 83.0143 157.413 90.0363L157.313 90.1352C157.261 90.1746 157.233 90.1927 157.21 90.2166L150.119 97.3008C143.109 102.687 134.733 105.534 125.897 105.534Z" fill="url(#paint7_linear_1_3144)"/>
  <path d="M155.862 95.9825L154.338 94.4595C153.752 93.8729 153.752 92.9221 154.338 92.3356L149.795 96.8796L149.721 96.9535C149.134 97.5395 149.134 98.4908 149.721 99.0768L151.57 100.926C152.179 99.9037 153.962 97.9027 155.862 95.9825Z" fill="#1445C2"/>
  <path d="M154.338 92.3356C153.752 92.9221 153.752 93.8729 154.338 94.4594L155.862 95.9824C157.699 94.1244 159.638 92.3494 160.726 91.6118L158.956 89.8416C158.419 89.3045 157.581 89.2651 156.992 89.7113C156.938 89.7522 156.882 89.7916 156.833 89.8416L154.338 92.3356Z" fill="#4E5DB3"/>
  <path d="M155.861 95.9814L154.338 94.459C154.045 94.1655 153.899 93.7815 153.899 93.3971C153.899 93.0126 154.045 92.6286 154.338 92.3351L156.833 89.8411C156.882 89.7911 156.938 89.7518 156.992 89.7108C157.261 89.5072 157.582 89.4045 157.903 89.4045C158.284 89.4045 158.664 89.5492 158.956 89.8411L160.724 91.6098C159.635 92.3495 157.695 94.1266 155.861 95.9814Z" fill="#1445C2"/>
  <path d="M189.222 119.242L161.564 91.2836C161.464 91.1826 161.162 91.3161 160.726 91.6117C159.638 92.3493 157.699 94.1243 155.862 95.9823C153.962 97.9025 152.179 99.9036 151.57 100.926C151.371 101.258 151.294 101.489 151.381 101.577L179.04 129.536C181.851 132.379 186.41 132.379 189.222 129.536C192.033 126.694 192.033 122.085 189.222 119.242Z" fill="url(#paint8_linear_1_3144)"/>
  <path d="M155.321 96.5342C155.5 96.3502 155.68 96.1657 155.862 95.9822C157.699 94.1242 159.638 92.3492 160.726 91.6116L160.724 91.61C161.064 91.3792 161.321 91.2495 161.466 91.2495C161.508 91.2495 161.541 91.2606 161.564 91.2835C161.542 91.2612 161.509 91.25 161.468 91.25C161.323 91.25 161.064 91.3819 160.726 91.6116C159.638 92.3492 157.699 94.1242 155.862 95.9822C155.68 96.1657 155.5 96.3502 155.321 96.5342Z" fill="#E4C3DC"/>
  <path d="M155.321 96.5342C155.325 96.5294 155.33 96.5251 155.334 96.5204C155.508 96.3406 155.684 96.1609 155.861 95.9817L155.862 95.9822C155.68 96.1657 155.5 96.3502 155.321 96.5342Z" fill="#4C59B1"/>
  <path d="M155.862 95.9824L155.861 95.9819C157.695 94.1271 159.635 92.3499 160.724 91.6102L160.726 91.6118C159.638 92.3494 157.699 94.1244 155.862 95.9824Z" fill="#454EAA"/>
  <path d="M188.732 129.707C183.762 129.704 153.241 98.9161 155.321 96.5343C155.5 96.3503 155.68 96.1657 155.862 95.9823C157.699 94.1243 159.638 92.3492 160.726 91.6117C161.064 91.382 161.323 91.2501 161.468 91.2501C161.509 91.2501 161.542 91.2613 161.564 91.2836L189.222 119.242C190.628 120.664 191.33 122.527 191.33 124.389C191.33 126.252 190.628 128.115 189.222 129.536C189.108 129.652 188.943 129.707 188.732 129.707Z" fill="url(#paint9_linear_1_3144)"/>
  <path d="M88.387 104.4H43.1335C39.9668 104.4 37.3994 101.833 37.3994 98.6659V94.9052C37.3994 91.7268 34.8225 89.1499 31.6441 89.1499H10.7419C7.5634 89.1499 4.98656 91.7268 4.98656 94.9052V109.761V126.84V154.64C4.98656 157.601 7.38659 160 10.347 160H88.387C91.3473 160 93.7472 157.601 93.7472 154.64V109.761C93.7472 106.801 91.3473 104.4 88.387 104.4Z" fill="url(#paint10_linear_1_3144)"/>
  <path d="M83.4006 104.4H38.1471C34.9799 104.4 32.4125 101.833 32.4125 98.6659V94.9052C32.4125 91.7268 29.8361 89.1499 26.6577 89.1499H5.75538C2.57679 89.1499 0 91.7268 0 94.9052V109.761V126.84V154.64C0 157.601 2.40003 160 5.36049 160H83.4006C86.3609 160 88.7608 157.601 88.7608 154.64V109.761C88.7608 106.801 86.3609 104.4 83.4006 104.4Z" fill="#F26690"/>
  <path d="M44.7974 160H4.62287C2.06975 160 0 157.601 0 154.64C0 157.601 2.40003 160 5.36049 160H44.7974Z" fill="#F8F7FC"/>
  <path d="M0 94.9053C0 94.0167 0.173678 93.1754 0.483593 92.424H0.560859C0.201277 93.1754 0 94.0167 0 94.9053ZM1.22078 91.3605H1.05274C1.96132 90.0151 3.3753 89.1499 4.96331 89.1499H5.75538C3.91392 89.1499 2.27437 90.0151 1.22078 91.3605Z" fill="#EBE7F6"/>
  <path d="M0.560878 92.4238H0.483612C0.640218 92.0447 0.831548 91.6884 1.05276 91.3603H1.2208C0.964276 91.6884 0.742424 92.0447 0.560878 92.4238Z" fill="#FCFDFE"/>
  <path fill-rule="evenodd" clip-rule="evenodd" d="M5.36049 160H71.9223H83.4006C86.361 160 88.7608 157.601 88.7608 154.64V109.761C88.7608 106.801 86.361 104.4 83.4006 104.4H71.9223H38.1471C34.9799 104.4 32.4125 101.833 32.4125 98.6659V94.9052C32.4125 91.7268 29.8361 89.1499 26.6577 89.1499H22.9885H5.75538C2.57679 89.1499 0 91.7268 0 94.9052V109.761V126.84V154.64C0 157.601 2.40003 160 5.36049 160ZM27.952 94.9052L27.9521 98.6659C27.9521 100.454 28.6574 102.05 29.7629 103.102C28.6574 102.05 27.952 100.454 27.952 98.6659V94.9052Z" fill="url(#paint11_linear_1_3144)"/>
  <defs>
    <linearGradient id="paint0_linear_1_3144" x1="134.653" y1="148.638" x2="153.066" y2="59.145" gradientUnits="userSpaceOnUse">
      <stop stop-color="#E4ECFF"/>
      <stop offset="1" stop-color="#D1DCFA"/>
    </linearGradient>
    <linearGradient id="paint1_linear_1_3144" x1="65.6999" y1="91.9199" x2="85.4643" y2="5.73106" gradientUnits="userSpaceOnUse">
      <stop stop-color="#E4ECFF"/>
      <stop offset="1" stop-color="#D1DCFA"/>
    </linearGradient>
    <linearGradient id="paint2_linear_1_3144" x1="131.18" y1="98.3193" x2="140.179" y2="46.9089" gradientUnits="userSpaceOnUse">
      <stop stop-color="#E4ECFF"/>
      <stop offset="1" stop-color="#D1DCFA"/>
    </linearGradient>
    <linearGradient id="paint3_linear_1_3144" x1="120.828" y1="81.4236" x2="123.548" y2="42.4507" gradientUnits="userSpaceOnUse">
      <stop stop-color="#8BA9F3"/>
      <stop offset="1" stop-color="#265DE9"/>
    </linearGradient>
    <linearGradient id="paint4_linear_1_3144" x1="132.488" y1="54.2555" x2="132.7" y2="46.7152" gradientUnits="userSpaceOnUse">
      <stop stop-color="#8BA9F3"/>
      <stop offset="1" stop-color="#265DE9"/>
    </linearGradient>
    <linearGradient id="paint5_linear_1_3144" x1="117.733" y1="51.0138" x2="117.941" y2="44.5604" gradientUnits="userSpaceOnUse">
      <stop stop-color="#8BA9F3"/>
      <stop offset="1" stop-color="#265DE9"/>
    </linearGradient>
    <linearGradient id="paint6_linear_1_3144" x1="114.713" y1="104.964" x2="120.763" y2="17.4633" gradientUnits="userSpaceOnUse">
      <stop stop-color="#8BA9F3"/>
      <stop offset="1" stop-color="#265DE9"/>
    </linearGradient>
    <linearGradient id="paint7_linear_1_3144" x1="114.562" y1="105.496" x2="120.693" y2="16.8103" gradientUnits="userSpaceOnUse">
      <stop stop-color="#8BA9F3"/>
      <stop offset="1" stop-color="#265DE9"/>
    </linearGradient>
    <linearGradient id="paint8_linear_1_3144" x1="165.645" y1="131.648" x2="168.791" y2="86.6305" gradientUnits="userSpaceOnUse">
      <stop stop-color="#8BA9F3"/>
      <stop offset="1" stop-color="#265DE9"/>
    </linearGradient>
    <linearGradient id="paint9_linear_1_3144" x1="168.133" y1="129.688" x2="171.286" y2="86.8774" gradientUnits="userSpaceOnUse">
      <stop stop-color="#8BA9F3"/>
      <stop offset="1" stop-color="#265DE9"/>
    </linearGradient>
    <linearGradient id="paint10_linear_1_3144" x1="36.7285" y1="159.966" x2="41.0917" y2="80.907" gradientUnits="userSpaceOnUse">
      <stop stop-color="#8BA9F3"/>
      <stop offset="1" stop-color="#265DE9"/>
    </linearGradient>
    <linearGradient id="paint11_linear_1_3144" x1="44.3804" y1="160" x2="54.1241" y2="91.4594" gradientUnits="userSpaceOnUse">
      <stop stop-color="#E4ECFF"/>
      <stop offset="1" stop-color="#D1DCFA"/>
    </linearGradient>
  </defs>
</svg>