<svg xmlns="http://www.w3.org/2000/svg" width="21" height="20" viewBox="0 0 21 20" fill="none">
  <path d="M18.0802 6.818C17.9642 6.908 15.9162 8.062 15.9162 10.628C15.9162 13.596 18.5222 14.646 18.6002 14.672C18.5882 14.736 18.1862 16.11 17.2262 17.51C16.3702 18.742 15.4762 19.972 14.1162 19.972C12.7562 19.972 12.4062 19.182 10.8362 19.182C9.30618 19.182 8.76218 19.998 7.51818 19.998C6.27418 19.998 5.40618 18.858 4.40818 17.458C3.25218 15.814 2.31818 13.26 2.31818 10.836C2.31818 6.948 4.84618 4.886 7.33418 4.886C8.65618 4.886 9.75818 5.754 10.5882 5.754C11.3782 5.754 12.6102 4.834 14.1142 4.834C14.6842 4.834 16.7322 4.886 18.0802 6.818ZM13.4002 3.188C14.0222 2.45 14.4622 1.426 14.4622 0.402C14.4622 0.26 14.4502 0.116 14.4242 0C13.4122 0.038 12.2082 0.674 11.4822 1.516C10.9122 2.164 10.3802 3.188 10.3802 4.226C10.3802 4.382 10.4062 4.538 10.4182 4.588C10.4822 4.6 10.5862 4.614 10.6902 4.614C11.5982 4.614 12.7402 4.006 13.4002 3.188Z" fill="#454F5B"/>
</svg>