<svg xmlns="http://www.w3.org/2000/svg" width="15" height="20" viewBox="0 0 15 20" fill="none">
  <path fill-rule="evenodd" clip-rule="evenodd" d="M6.77028 0.0343541C6.5945 0.0881378 6.34569 0.346652 6.29542 0.527756C6.27262 0.60982 6.25388 0.889026 6.25376 1.14817L6.25353 1.61939L5.97061 1.66789C5.3385 1.77628 4.58678 2.09186 3.935 2.52241C3.57099 2.76281 2.76541 3.56839 2.52501 3.9324C2.10045 4.57507 1.83779 5.1891 1.67034 5.93022C1.58757 6.2965 1.58381 6.4097 1.56238 9.20414C1.53668 12.5484 1.57842 12.2409 1.10782 12.5523C0.228698 13.1338 -0.176576 14.1336 0.072315 15.1068C0.185359 15.5487 0.358992 15.8488 0.69781 16.1876C1.03663 16.5264 1.33672 16.7 1.77857 16.8131C2.07162 16.888 2.22926 16.8903 7.03584 16.8903C11.8424 16.8903 12.0001 16.888 12.2931 16.8131C12.735 16.7 13.035 16.5264 13.3739 16.1876C13.7127 15.8488 13.8863 15.5487 13.9994 15.1068C14.2483 14.1336 13.843 13.1338 12.9639 12.5523C12.4933 12.2409 12.535 12.5484 12.5093 9.20414C12.4879 6.4097 12.4841 6.2965 12.4013 5.93022C12.1469 4.80432 11.6988 3.98881 10.8896 3.17912C10.2207 2.50973 9.61726 2.1291 8.78211 1.84962C8.56314 1.77636 8.25827 1.69484 8.10459 1.66852L7.82519 1.6206L7.81189 1.07056C7.79984 0.572582 7.78979 0.506399 7.70577 0.371216C7.5213 0.0744865 7.11602 -0.0714531 6.77028 0.0343541ZM7.95505 3.23407C9.25752 3.55795 10.3208 4.53767 10.7474 5.80709C10.9374 6.37227 10.9473 6.5513 10.948 9.41462C10.9488 12.3935 10.95 12.4099 11.2014 12.9151C11.3865 13.2871 11.6036 13.5256 12.0005 13.7932C12.3981 14.0613 12.4928 14.2095 12.4919 14.563C12.4911 14.8475 12.385 15.0445 12.1482 15.2012L11.9896 15.3062H7.03869H2.08774L1.93843 15.2133C1.85629 15.1623 1.74188 15.0491 1.68418 14.9619C1.59707 14.8303 1.57924 14.7597 1.57924 14.5463C1.57924 14.1964 1.66756 14.0642 2.09235 13.7787C2.55215 13.4696 2.82412 13.118 3.01372 12.5876L3.10462 12.3334L3.12664 9.38016C3.14792 6.52971 3.15156 6.41608 3.23186 6.11403C3.5882 4.77385 4.54356 3.74375 5.82389 3.31919C6.46354 3.10707 7.30855 3.07335 7.95505 3.23407ZM5.20567 18.4983C5.02034 18.5529 4.78013 18.8091 4.72607 19.0099C4.63243 19.3576 4.77156 19.7231 5.06767 19.9072L5.21697 20H7.03584H8.8547L9.00401 19.9072C9.08615 19.8561 9.20056 19.743 9.25826 19.6558C9.34568 19.5237 9.3632 19.4538 9.3632 19.2372C9.3632 19.0207 9.34568 18.9508 9.25826 18.8187C9.20056 18.7315 9.08615 18.6184 9.00401 18.5673L8.8547 18.4745L7.09451 18.4675C6.05209 18.4633 5.28186 18.4759 5.20567 18.4983Z" fill="#454F5B"/>
</svg>