<svg xmlns="http://www.w3.org/2000/svg" width="18" height="18" viewBox="0 0 18 18" fill="none">
  <g clip-path="url(#clip0_1_6123)">
    <path fill-rule="evenodd" clip-rule="evenodd" d="M4.50057 0.00782089C4.22815 0.0593409 4.01898 0.255919 3.94744 0.527663C3.93413 0.57822 3.93318 0.599777 3.93084 0.902058L3.92836 1.22282L3.89084 1.2272C3.80857 1.23681 3.6294 1.26583 3.51702 1.28774C2.38645 1.50817 1.51077 2.09301 0.974203 2.98604C0.614479 3.58474 0.417005 4.29476 0.375 5.14047C0.365748 5.3268 0.365768 14.6156 0.375026 14.733C0.407582 15.1459 0.514914 15.5307 0.704885 15.9156C1.07803 16.6716 1.71583 17.3052 2.47469 17.6738C2.85238 17.8572 3.23483 17.9627 3.63209 17.993C3.7548 18.0023 14.3915 18.0024 14.5101 17.993C14.923 17.9605 15.3078 17.8531 15.6927 17.6632C16.4487 17.29 17.0824 16.6522 17.4509 15.8934C17.6367 15.5108 17.7424 15.1242 17.7703 14.7257C17.7812 14.5691 17.776 5.08463 17.7649 4.94662C17.7484 4.74096 17.7364 4.6195 17.7204 4.49493C17.6073 3.61256 17.3227 2.9152 16.862 2.3914C16.7776 2.29537 16.6189 2.13874 16.5338 2.06752C16.0364 1.65082 15.3961 1.38323 14.6032 1.26067C14.5082 1.246 14.318 1.22259 14.2424 1.21627L14.2193 1.21434L14.2157 0.897825L14.2121 0.581306L14.1943 0.515833C14.127 0.267386 13.9346 0.079242 13.6827 0.0157009C13.6356 0.00383144 13.6077 0.00143119 13.5203 0.00174112C13.4277 0.00207082 13.4068 0.00426006 13.3493 0.0196244C13.1033 0.0854075 12.9156 0.27615 12.8495 0.527663C12.8363 0.577884 12.8353 0.600548 12.8329 0.882988L12.8304 1.18467H9.07258H5.31476L5.31239 0.882988L5.31001 0.581306L5.29226 0.515833C5.22529 0.268718 5.03144 0.0783782 4.78398 0.0167823C4.71186 -0.0011735 4.57157 -0.00561136 4.50057 0.00782089ZM12.8328 2.87112L12.8352 3.1728L12.8529 3.23828C12.9202 3.48676 13.1127 3.67487 13.3646 3.73841C13.4116 3.75028 13.4396 3.75268 13.5269 3.75237C13.6195 3.75204 13.6404 3.74985 13.6979 3.73448C13.944 3.66869 14.1317 3.4778 14.1977 3.22644C14.2107 3.17662 14.2119 3.15275 14.2143 2.8909L14.2169 2.609L14.2346 2.60903C14.2663 2.60908 14.4796 2.64197 14.5815 2.66253C15.0174 2.75045 15.3774 2.90761 15.6338 3.12188C15.7157 3.19038 15.8312 3.31095 15.8908 3.39025C16.1235 3.69992 16.2756 4.12252 16.3447 4.65154L16.357 4.7455H9.08141C2.02509 4.7455 1.80584 4.74514 1.80584 4.73339C1.80584 4.70676 1.84098 4.53346 1.86913 4.42124C2.0417 3.73339 2.40518 3.23957 2.96436 2.93327C3.21027 2.79857 3.50639 2.69682 3.82244 2.63842C3.87074 2.62949 3.9143 2.62219 3.91925 2.62219C3.92667 2.62219 3.92868 2.67048 3.9307 2.8975C3.93314 3.1719 3.9332 3.17301 3.95085 3.23828C4.01801 3.48662 4.2106 3.67487 4.46251 3.73841C4.50956 3.75028 4.53748 3.75268 4.62483 3.75237C4.71744 3.75204 4.73835 3.74985 4.79581 3.73448C5.04187 3.6687 5.22951 3.47796 5.29561 3.22644C5.30881 3.17622 5.30987 3.15356 5.31223 2.87112L5.31476 2.56944H9.07258H12.8304L12.8328 2.87112ZM16.3921 10.3663C16.3921 13.2104 16.3899 14.6248 16.3853 14.6706C16.3521 15.0062 16.21 15.351 15.9744 15.6679C15.8938 15.7763 15.8136 15.8667 15.6989 15.9786C15.5067 16.1662 15.3343 16.2906 15.1062 16.4066C14.88 16.5216 14.6688 16.5864 14.4506 16.6079C14.3519 16.6176 3.79544 16.6179 3.69741 16.6082C3.36181 16.575 3.01707 16.4329 2.70018 16.1973C2.59175 16.1166 2.50134 16.0365 2.38941 15.9218C2.20189 15.7295 2.07746 15.5572 1.96148 15.3291C1.84647 15.1029 1.78162 14.8917 1.76017 14.6735C1.75521 14.623 1.75309 13.3349 1.75309 10.3659V6.13027H9.07258H16.3921V10.3663ZM3.88646 7.22831C3.4616 7.29764 3.14967 7.59344 3.0574 8.01449C3.03798 8.1031 3.03657 8.28591 3.05457 8.38217C3.12994 8.7853 3.42756 9.08877 3.83513 9.17809C3.92374 9.19751 4.10656 9.19892 4.20281 9.18092C4.60594 9.10555 4.90941 8.80793 4.99874 8.40036C5.01815 8.31175 5.01956 8.12893 5.00156 8.03268C4.92646 7.63104 4.6277 7.32539 4.22437 7.23761C4.14177 7.21963 3.96884 7.21487 3.88646 7.22831ZM7.24947 7.22831C6.82461 7.29764 6.51268 7.59344 6.4204 8.01449C6.40099 8.1031 6.39958 8.28591 6.41758 8.38217C6.49295 8.7853 6.79057 9.08877 7.19814 9.17809C7.28675 9.19751 7.46956 9.19892 7.56582 9.18092C7.96895 9.10555 8.27242 8.80793 8.36174 8.40036C8.38116 8.31175 8.38257 8.12893 8.36457 8.03268C8.28947 7.63104 7.99071 7.32539 7.58738 7.23761C7.50478 7.21963 7.33185 7.21487 7.24947 7.22831ZM10.6125 7.22831C10.1876 7.29764 9.87569 7.59344 9.78341 8.01449C9.764 8.1031 9.76259 8.28591 9.78059 8.38217C9.85596 8.7853 10.1536 9.08877 10.5611 9.17809C10.6498 9.19751 10.8326 9.19892 10.9288 9.18092C11.332 9.10555 11.6354 8.80793 11.7248 8.40036C11.7442 8.31175 11.7456 8.12893 11.7276 8.03268C11.6525 7.63104 11.3537 7.32539 10.9504 7.23761C10.8678 7.21963 10.6949 7.21487 10.6125 7.22831ZM14.1733 7.22831C13.7485 7.29764 13.4365 7.59344 13.3442 8.01449C13.3248 8.1031 13.3234 8.28591 13.3414 8.38217C13.4168 8.7853 13.7144 9.08877 14.122 9.17809C14.2106 9.19751 14.3934 9.19892 14.4897 9.18092C14.8928 9.10555 15.1963 8.80793 15.2856 8.40036C15.305 8.31175 15.3064 8.12893 15.2884 8.03268C15.2133 7.63104 14.9145 7.32539 14.5112 7.23761C14.4286 7.21963 14.2557 7.21487 14.1733 7.22831ZM3.88646 10.3935C3.4616 10.4628 3.14967 10.7586 3.0574 11.1797C3.03798 11.2683 3.03657 11.4511 3.05457 11.5474C3.12994 11.9505 3.42756 12.254 3.83513 12.3433C3.92374 12.3627 4.10656 12.3641 4.20281 12.3461C4.60594 12.2707 4.90941 11.9731 4.99874 11.5655C5.01815 11.4769 5.01956 11.2941 5.00156 11.1979C4.92646 10.7962 4.6277 10.4906 4.22437 10.4028C4.14177 10.3848 3.96884 10.3801 3.88646 10.3935ZM7.24947 10.3935C6.82461 10.4628 6.51268 10.7586 6.4204 11.1797C6.40099 11.2683 6.39958 11.4511 6.41758 11.5474C6.49295 11.9505 6.79057 12.254 7.19814 12.3433C7.28675 12.3627 7.46956 12.3641 7.56582 12.3461C7.96895 12.2707 8.27242 11.9731 8.36174 11.5655C8.38116 11.4769 8.38257 11.2941 8.36457 11.1979C8.28947 10.7962 7.99071 10.4906 7.58738 10.4028C7.50478 10.3848 7.33185 10.3801 7.24947 10.3935ZM10.6125 10.3935C10.1876 10.4628 9.87569 10.7586 9.78341 11.1797C9.764 11.2683 9.76259 11.4511 9.78059 11.5474C9.85596 11.9505 10.1536 12.254 10.5611 12.3433C10.6498 12.3627 10.8326 12.3641 10.9288 12.3461C11.332 12.2707 11.6354 11.9731 11.7248 11.5655C11.7442 11.4769 11.7456 11.2941 11.7276 11.1979C11.6525 10.7962 11.3537 10.4906 10.9504 10.4028C10.8678 10.3848 10.6949 10.3801 10.6125 10.3935ZM14.1733 10.3935C13.7485 10.4628 13.4365 10.7586 13.3442 11.1797C13.3248 11.2683 13.3234 11.4511 13.3414 11.5474C13.4168 11.9505 13.7144 12.254 14.122 12.3433C14.2106 12.3627 14.3934 12.3641 14.4897 12.3461C14.8928 12.2707 15.1963 11.9731 15.2856 11.5655C15.305 11.4769 15.3064 11.2941 15.2884 11.1979C15.2133 10.7962 14.9145 10.4906 14.5112 10.4028C14.4286 10.3848 14.2557 10.3801 14.1733 10.3935ZM3.88646 13.5587C3.4616 13.628 3.14967 13.9238 3.0574 14.3449C3.03798 14.4335 3.03657 14.6163 3.05457 14.7125C3.12994 15.1157 3.42756 15.4191 3.83513 15.5085C3.92374 15.5279 4.10656 15.5293 4.20281 15.5113C4.60594 15.4359 4.90941 15.1383 4.99874 14.7307C5.01815 14.6421 5.01956 14.4593 5.00156 14.3631C4.92646 13.9614 4.6277 13.6558 4.22437 13.568C4.14177 13.55 3.96884 13.5452 3.88646 13.5587ZM7.24947 13.5587C6.82461 13.628 6.51268 13.9238 6.4204 14.3449C6.40099 14.4335 6.39958 14.6163 6.41758 14.7125C6.49295 15.1157 6.79057 15.4191 7.19814 15.5085C7.28675 15.5279 7.46956 15.5293 7.56582 15.5113C7.96895 15.4359 8.27242 15.1383 8.36174 14.7307C8.38116 14.6421 8.38257 14.4593 8.36457 14.3631C8.28947 13.9614 7.99071 13.6558 7.58738 13.568C7.50478 13.55 7.33185 13.5452 7.24947 13.5587ZM10.6125 13.5587C10.1876 13.628 9.87569 13.9238 9.78341 14.3449C9.764 14.4335 9.76259 14.6163 9.78059 14.7125C9.85596 15.1157 10.1536 15.4191 10.5611 15.5085C10.6498 15.5279 10.8326 15.5293 10.9288 15.5113C11.332 15.4359 11.6354 15.1383 11.7248 14.7307C11.7442 14.6421 11.7456 14.4593 11.7276 14.3631C11.6525 13.9614 11.3537 13.6558 10.9504 13.568C10.8678 13.55 10.6949 13.5452 10.6125 13.5587Z" fill="black"/>
  </g>
  <defs>
    <clipPath id="clip0_1_6123">
      <rect width="18" height="18" fill="white"/>
    </clipPath>
  </defs>
</svg>