<svg xmlns="http://www.w3.org/2000/svg" width="19" height="18" viewBox="0 0 19 18" fill="none">
  <path d="M16.121 7.43804L10.133 13.4253C9.47194 14.1099 8.57236 14.5132 7.62146 14.5513C6.67056 14.5894 5.74156 14.2595 5.02778 13.63C4.67923 13.3019 4.40016 12.907 4.20711 12.4689C4.01407 12.0309 3.91099 11.5585 3.904 11.0798C3.897 10.6011 3.98623 10.1259 4.16639 9.68237C4.34655 9.23883 4.61397 8.836 4.95278 8.49779L10.0528 3.39779C10.4549 3.00737 10.9944 2.79084 11.5549 2.79497C12.1153 2.79911 12.6516 3.02357 13.0479 3.41988C13.4442 3.81618 13.6687 4.35249 13.6728 4.91293C13.677 5.47337 13.4604 6.01294 13.07 6.41504L7.97003 11.515C7.83846 11.64 7.66396 11.7096 7.48253 11.7096C7.3011 11.7096 7.1266 11.64 6.99503 11.515C6.86678 11.3852 6.79487 11.21 6.79487 11.0275C6.79487 10.845 6.86678 10.6699 6.99503 10.54L11.0728 6.46229C11.2136 6.32066 11.2924 6.12889 11.2918 5.92917C11.2913 5.72944 11.2114 5.53812 11.0698 5.39729C10.9282 5.25646 10.7364 5.17766 10.5367 5.17822C10.3369 5.17878 10.1456 5.25866 10.0048 5.40029L5.92703 9.47654C5.51681 9.88803 5.28645 10.4454 5.28645 11.0264C5.28645 11.6075 5.51681 12.1648 5.92703 12.5763C6.34447 12.9748 6.89941 13.1971 7.47653 13.1971C8.05365 13.1971 8.60858 12.9748 9.02603 12.5763L14.126 7.47629C14.469 7.13998 14.7419 6.73901 14.9289 6.29657C15.1159 5.85413 15.2133 5.379 15.2156 4.89866C15.2178 4.41833 15.1248 3.94231 14.9419 3.49816C14.759 3.054 14.4898 2.65051 14.15 2.31104C13.8102 1.97156 13.4064 1.70282 12.9621 1.52037C12.5177 1.33792 12.0416 1.24538 11.5613 1.24811C11.081 1.25083 10.6059 1.34875 10.1637 1.53622C9.72143 1.72369 9.32074 1.99698 8.98478 2.34029L3.88478 7.44029C3.40417 7.92066 3.02495 8.49268 2.76962 9.1224C2.5143 9.75212 2.38806 10.4267 2.39842 11.1062C2.40877 11.7856 2.5555 12.456 2.82989 13.0777C3.10429 13.6993 3.50076 14.2595 3.99578 14.725C4.92469 15.5883 6.14922 16.0626 7.41728 16.0503C8.83378 16.0499 10.1921 15.4869 11.1935 14.485L17.1815 8.49704C17.2532 8.42785 17.3103 8.34509 17.3496 8.25359C17.3889 8.16209 17.4096 8.06367 17.4105 7.96409C17.4113 7.8645 17.3924 7.76574 17.3546 7.67357C17.3169 7.5814 17.2612 7.49766 17.1908 7.42724C17.1204 7.35682 17.0367 7.30113 16.9445 7.26342C16.8523 7.22571 16.7536 7.20674 16.654 7.2076C16.5544 7.20847 16.456 7.22916 16.3645 7.26846C16.273 7.30777 16.1902 7.36491 16.121 7.43654V7.43804Z" fill="#454F5B"/>
</svg>