<svg xmlns="http://www.w3.org/2000/svg" width="14" height="14" viewBox="0 0 14 14" fill="none">
  <g clip-path="url(#clip0_1_2809)">
    <path fill-rule="evenodd" clip-rule="evenodd" d="M5.49409 0.00672306C5.27934 0.045708 5.1107 0.205027 5.05643 0.420211C5.04704 0.457418 5.04514 0.479497 5.04539 0.548581C5.04565 0.621811 5.04738 0.638346 5.05953 0.683792C5.11155 0.878347 5.26166 1.02608 5.46129 1.07917C5.50269 1.09018 5.5132 1.09049 5.89872 1.0922L6.29373 1.09395V1.30105V1.50817L6.19857 1.51747C5.90203 1.54645 5.56501 1.60695 5.26383 1.68527C4.40362 1.90898 3.61131 2.30896 2.91024 2.87344L2.81983 2.94625L2.42006 2.54736C1.99139 2.11962 1.98984 2.11824 1.89626 2.07789C1.81662 2.04356 1.77231 2.03499 1.67613 2.03533C1.6029 2.03559 1.58637 2.03733 1.54092 2.04948C1.37877 2.09283 1.24282 2.20917 1.17783 2.36019C1.14283 2.44152 1.13387 2.48723 1.1343 2.58231C1.13462 2.65475 1.13644 2.67235 1.1481 2.7159C1.16404 2.77538 1.18942 2.83221 1.22308 2.88376C1.24156 2.91205 1.34552 3.01944 1.64633 3.32095L2.04508 3.72064L1.96212 3.82417C1.57165 4.31144 1.26518 4.83417 1.03471 5.40606C0.36817 7.05998 0.442944 8.93794 1.2388 10.5321C1.73056 11.5171 2.46862 12.3513 3.38655 12.9596C4.55165 13.7318 5.92621 14.0885 7.32363 13.9814C8.95356 13.8564 10.472 13.0963 11.5475 11.8671C12.0136 11.3342 12.3851 10.7304 12.6478 10.0784C13.3144 8.42449 13.2396 6.54654 12.4437 4.95238C12.22 4.50423 11.9246 4.05663 11.6129 3.69354L11.5645 3.63714L11.9215 3.2792C12.3043 2.89545 12.3092 2.88997 12.3492 2.79722C12.3835 2.71758 12.3921 2.67327 12.3917 2.57709C12.3915 2.50386 12.3897 2.48733 12.3776 2.44188C12.3252 2.2461 12.1724 2.09664 11.9731 2.04637C11.9359 2.03699 11.9138 2.03509 11.8448 2.03533C11.7715 2.03559 11.755 2.03733 11.7096 2.04948C11.6438 2.06704 11.5729 2.10148 11.5206 2.14121C11.4979 2.15848 11.3236 2.32861 11.128 2.52437L10.7763 2.87647L10.7551 2.85928C10.5655 2.70485 10.2853 2.50981 10.0546 2.37158C9.35408 1.95182 8.57264 1.67208 7.76688 1.55262C7.65211 1.5356 7.43914 1.51069 7.40837 1.51069H7.38882V1.30232V1.09395L7.78383 1.09232L8.17884 1.09068L8.23062 1.07652C8.42764 1.02262 8.57589 0.87089 8.62613 0.671736C8.63551 0.634529 8.63741 0.61245 8.63717 0.543366C8.63691 0.470136 8.63517 0.453601 8.62302 0.408155C8.57101 0.213626 8.42176 0.0666815 8.22126 0.0126209L8.17884 0.00118509L6.85692 0.000241231C5.73288 -0.00056183 5.52888 0.000408082 5.49409 0.00672306ZM7.06551 2.585C7.70348 2.61485 8.28518 2.74641 8.86718 2.99246C8.99927 3.04831 9.26538 3.18044 9.39092 3.2525C9.79779 3.4861 10.1314 3.73961 10.4647 4.06843C10.7358 4.33589 10.9425 4.58595 11.1457 4.89241C11.9787 6.14838 12.2188 7.70214 11.8056 9.16324C11.7231 9.45502 11.613 9.73835 11.4691 10.0289C11.2177 10.5367 10.9163 10.959 10.5151 11.3657C10.3357 11.5475 10.1775 11.6885 9.99322 11.8306C8.69545 12.832 7.00723 13.1554 5.42027 12.7066C5.1287 12.6241 4.84554 12.5141 4.55464 12.3701C4.04791 12.1194 3.62436 11.8171 3.21784 11.416C2.94675 11.1486 2.74008 10.8985 2.53682 10.5921C1.70381 9.33609 1.46374 7.78234 1.87693 6.32124C1.9594 6.02959 2.06993 5.74518 2.21334 5.4556C2.38901 5.10085 2.58951 4.78848 2.83591 4.48567C3.03362 4.24268 3.30001 3.97356 3.54396 3.77034C4.35315 3.09625 5.35926 2.6845 6.40846 2.59805C6.62275 2.58039 6.86443 2.5756 7.06551 2.585ZM8.62704 5.32468C8.54518 5.34032 8.48109 5.36583 8.4145 5.40927C8.38568 5.42807 8.24671 5.56382 7.81381 5.99604L7.25063 6.55834L7.21673 6.54782C6.94119 6.46231 6.63952 6.47437 6.37292 6.58157C6.21179 6.64635 6.05351 6.75404 5.93406 6.88014C5.65467 7.17508 5.53621 7.58305 5.61373 7.98328C5.67251 8.28681 5.84284 8.55779 6.09173 8.7438C6.37673 8.9568 6.73151 9.03773 7.08232 8.96978C7.38585 8.911 7.65683 8.74068 7.84284 8.49178C7.96837 8.32382 8.04762 8.134 8.07959 7.92475C8.0915 7.8468 8.09542 7.71083 8.08801 7.63273C8.0809 7.55779 8.05733 7.43539 8.03831 7.3746L8.02526 7.33288L8.58754 6.7697C9.18933 6.16694 9.17931 6.17781 9.21947 6.08446C9.25448 6.00313 9.26343 5.95742 9.26301 5.86234C9.26268 5.78927 9.26091 5.77248 9.24879 5.72713C9.19673 5.53244 9.04278 5.38121 8.84703 5.33248C8.79205 5.31879 8.67887 5.31478 8.62704 5.32468Z" fill="#637381"/>
  </g>
  <defs>
    <clipPath id="clip0_1_2809">
      <rect width="14" height="14" fill="white"/>
    </clipPath>
  </defs>
</svg>