<svg width="192" height="160" viewBox="0 0 192 160" fill="none" xmlns="http://www.w3.org/2000/svg">
<path d="M189.029 132.285C190.069 130.828 191.028 129.322 191.9 127.782C191.216 129.44 190.248 130.961 189.029 132.285Z" fill="#FCFDFE"/>
<path d="M166.085 131.992C165.834 131.703 165.592 131.404 165.36 131.092C164.912 130.492 164.514 129.868 164.166 129.228L164.493 127.456C164.884 128.385 165.38 129.285 165.984 130.141C166.014 130.523 166.039 130.906 166.059 131.288C166.07 131.523 166.079 131.758 166.085 131.992Z" fill="#F9F7FC"/>
<path d="M126.915 145.232L126.762 145.204C126.767 145.186 126.772 145.169 126.778 145.151L126.915 145.232Z" fill="#D1CCEB"/>
<path d="M121.847 142.229L121.32 141.916L121.778 142C121.79 142.049 121.805 142.098 121.82 142.147C121.829 142.174 121.838 142.201 121.847 142.229Z" fill="#BBB6E1"/>
<path d="M158.668 148.799L90.209 136.179L107.262 43.6677L175.72 56.2866L158.668 148.799Z" fill="white"/>
<path d="M157.724 148.627C157.716 148.625 157.708 148.624 157.7 148.623L156.631 148.426C156.631 148.425 156.631 148.425 156.631 148.425L157.724 148.627Z" fill="#DEB6DC"/>
<path d="M155.548 148.227L152.305 147.628L155.548 148.226C155.548 148.226 155.548 148.226 155.548 148.227Z" fill="#DEB6DC"/>
<path d="M151.187 147.422L149.885 147.182H149.885L151.187 147.421C151.187 147.421 151.187 147.421 151.187 147.422Z" fill="#DEB6DC"/>
<path d="M156.63 148.426L155.549 148.226C155.549 148.226 155.549 148.226 155.549 148.226L156.63 148.425C156.63 148.425 156.63 148.425 156.63 148.426Z" fill="#E9C2DD"/>
<path d="M152.306 147.627L151.188 147.421C151.188 147.421 151.188 147.421 151.188 147.421L152.306 147.627Z" fill="#E9C2DD"/>
<path d="M158.842 147.852L158.977 147.117L158.846 147.833C158.844 147.839 158.843 147.845 158.842 147.852ZM160.017 141.477L160.283 140.035L160.017 141.477Z" fill="#DEB6DC"/>
<path d="M159.213 145.838L159.781 142.756L159.213 145.838H159.213Z" fill="#DEB6DC"/>
<path d="M160.555 138.564L162.868 126.013V126.013L160.555 138.564H160.555Z" fill="#DEB6DC"/>
<path d="M158.979 147.115L159.214 145.836H159.215L158.979 147.115ZM159.783 142.755L160.018 141.475L159.783 142.755Z" fill="#E9C2DD"/>
<path d="M160.283 140.033L160.554 138.563H160.554L160.283 140.033Z" fill="#E9C2DD"/>
<path d="M162.867 126.012V126.011L163.062 124.955L162.867 126.012Z" fill="#E9C2DD"/>
<path d="M121.321 141.916L115.147 140.779V140.778L121.32 141.916H121.321ZM114.084 140.582L100.663 138.109H100.664L114.084 140.582V140.582ZM94.894 137.045H94.8929L93.748 136.834V136.833L94.894 137.045Z" fill="#DEB6DC"/>
<path d="M115.147 140.777L114.084 140.581V140.581L115.147 140.777V140.777ZM100.663 138.107H100.662L94.8926 137.044H94.8936L100.663 138.107Z" fill="#EBC5DD"/>
<path d="M149.885 147.182L146.826 146.618V146.617L149.885 147.182H149.885Z" fill="#D3AAD6"/>
<path d="M121.778 142L121.321 141.915H121.32L121.778 141.999C121.778 142 121.778 142 121.778 142Z" fill="#D3AAD6"/>
<path d="M126.896 142.943L123.006 142.227C123.006 142.227 123.006 142.227 123.006 142.226L126.896 142.943H126.896Z" fill="#D3AAD6"/>
<path d="M123.006 142.227L121.777 142C121.777 142 121.777 142 121.777 141.999L123.006 142.226C123.006 142.227 123.006 142.227 123.006 142.227Z" fill="#DAB3D5"/>
<path d="M164.205 118.758V118.757L164.594 116.65L164.205 118.758Z" fill="#D6AED6"/>
<path d="M163.418 123.023C163.418 123.023 163.418 123.023 163.418 123.023L164.204 118.757V118.758L163.418 123.023Z" fill="#D3AAD6"/>
<path d="M163.062 124.955L163.419 123.022C163.419 123.023 163.419 123.022 163.419 123.023L163.062 124.955Z" fill="#DAB3D5"/>
<path d="M146.825 146.617L126.895 142.943H126.895L146.825 146.617V146.617ZM164.593 116.649L164.859 115.202H164.86L164.593 116.649ZM168.058 97.8487L168.304 96.5135L168.058 97.8487Z" fill="#E98EB3"/>
<path d="M157.88 148.639C157.828 148.639 157.776 148.634 157.724 148.626L156.631 148.425L155.55 148.225L152.306 147.628L151.188 147.421L149.886 147.182L146.827 146.617L126.896 142.944L123.006 142.227L121.778 142L121.32 141.916L115.147 140.778L114.084 140.582L100.664 138.109L94.894 137.045L93.748 136.833V116.983L94.8525 110.99H107.56C109.904 110.99 112.077 110.167 113.863 108.764L128.022 111.374L128.119 111.383C128.37 111.383 128.594 111.204 128.641 110.947C128.695 110.658 128.504 110.381 128.215 110.328L114.871 107.869C115.808 106.933 116.601 105.821 117.21 104.579C120.008 105.204 122.915 105.534 125.898 105.534C130.519 105.534 135.015 104.755 139.255 103.242L156.101 106.347L164.861 115.203L164.594 116.65L164.206 118.757L163.42 123.023L163.063 124.956L162.868 126.012L160.555 138.564L160.284 140.034L160.018 141.476L159.782 142.756L159.214 145.837L158.978 147.116L158.843 147.851C158.748 148.315 158.339 148.639 157.88 148.639ZM154.792 105.024L141.15 102.509C144.004 101.32 146.73 99.7873 149.284 97.9261C149.26 98.3393 149.406 98.7609 149.721 99.0768L151.57 100.926C152.122 100.002 153.633 98.2765 155.322 96.5344C153.633 98.2765 152.122 100.002 151.57 100.926C151.372 101.258 151.295 101.489 151.382 101.577L154.792 105.024ZM168.06 97.8495L161.564 91.2837C161.542 91.2609 161.509 91.2497 161.467 91.2497C161.322 91.2497 161.065 91.3795 160.725 91.6102L158.957 89.8416C158.665 89.5496 158.285 89.405 157.904 89.405C157.9 89.405 157.896 89.405 157.892 89.405C160.495 85.8985 162.472 82.0602 163.786 78.0018C163.81 77.9555 163.827 77.9055 163.837 77.8523C163.838 77.8449 163.84 77.838 163.84 77.8311C164.94 74.3826 165.562 70.7745 165.684 67.0766C165.785 66.9995 165.858 66.8857 165.883 66.7506C165.919 66.5555 165.844 66.3661 165.702 66.247C165.704 66.0737 165.706 65.8998 165.706 65.7264C165.706 61.693 165.102 57.7967 163.981 54.1243L174.752 56.1099C175.287 56.2083 175.641 56.722 175.543 57.2564L168.306 96.5142L168.06 97.8495Z" fill="url(#paint0_linear_455_4330)"/>
<path d="M165.36 67.1855L165.263 67.1765L148.611 64.1071C148.322 64.054 148.131 63.7769 148.185 63.4882C148.238 63.1994 148.512 63.0085 148.804 63.0617L165.456 66.131C165.745 66.1842 165.936 66.4613 165.883 66.75C165.836 67.0063 165.612 67.1855 165.36 67.1855Z" fill="white"/>
<path d="M164.38 72.5059L164.283 72.4973L147.631 69.4274C147.342 69.3743 147.151 69.0972 147.204 68.8085C147.258 68.5203 147.532 68.3288 147.824 68.382L164.476 71.4514C164.765 71.5045 164.956 71.7821 164.903 72.0709C164.855 72.3266 164.632 72.5059 164.38 72.5059Z" fill="white"/>
<path d="M163.313 78.2871L163.216 78.2786L146.564 75.2092C146.275 75.1561 146.084 74.8785 146.138 74.5897C146.191 74.3015 146.464 74.1106 146.757 74.1632L163.409 77.2326C163.698 77.2858 163.889 77.5634 163.836 77.8521C163.788 78.1084 163.565 78.2871 163.313 78.2871Z" fill="white"/>
<path d="M136.501 81.4216L109.303 76.408C108.723 76.3017 108.341 75.7455 108.447 75.1669L113.802 46.1175C113.909 45.5384 114.465 45.1555 115.043 45.2624L142.242 50.2759C142.821 50.3828 143.204 50.9385 143.098 51.5176L137.743 80.567C137.636 81.1456 137.08 81.5284 136.501 81.4216Z" fill="#6C92D3"/>
<path d="M121.494 63.3066C121.288 63.3066 121.079 63.288 120.869 63.2492L120.463 63.1742C118.31 62.7775 116.88 60.702 117.277 58.5478L118.3 52.9967C118.38 52.5633 118.799 52.2762 119.229 52.357C119.663 52.4368 119.949 52.8526 119.869 53.286L118.846 58.8371C118.609 60.1261 119.464 61.3678 120.753 61.6055L121.158 61.6805C122.161 61.8666 123.125 61.2003 123.31 60.1979L125.9 46.1475C126.091 45.1138 125.405 44.1173 124.371 43.9264L123.677 43.7987C122.575 43.5961 121.522 44.3252 121.318 45.4228L121.255 45.7695C121.174 46.2029 120.754 46.4889 120.326 46.4092C119.893 46.3294 119.606 45.9136 119.686 45.4807L119.75 45.1335C120.112 43.1702 122.004 41.8673 123.966 42.23L124.66 42.3576C126.559 42.7075 127.819 44.5373 127.469 46.4363L124.879 60.4872C124.573 62.1442 123.122 63.3066 121.494 63.3066Z" fill="#3C419F"/>
<path d="M124.263 51.5078L124.214 51.5036L113.585 49.544C113.44 49.5174 113.345 49.3791 113.372 49.2345C113.398 49.0899 113.535 48.992 113.681 49.0213L124.311 50.9803C124.455 51.0069 124.551 51.1457 124.524 51.2903C124.5 51.4185 124.389 51.5078 124.263 51.5078Z" fill="white"/>
<path d="M156.766 106.459L156.668 106.45L105.787 97.0711C105.498 97.018 105.307 96.7409 105.361 96.4516C105.414 96.1634 105.687 95.9704 105.98 96.0252L156.862 105.404C157.151 105.457 157.341 105.735 157.288 106.024C157.241 106.28 157.018 106.459 156.766 106.459Z" fill="white"/>
<path d="M153.127 126.195L153.03 126.187L102.148 116.808C101.859 116.755 101.669 116.478 101.722 116.188C101.775 115.9 102.049 115.707 102.341 115.762L153.224 125.141C153.512 125.193 153.703 125.471 153.65 125.76C153.603 126.016 153.379 126.195 153.127 126.195Z" fill="white"/>
<path d="M128.119 111.383L128.022 111.374L103.969 106.94C103.68 106.887 103.489 106.61 103.542 106.32C103.596 106.032 103.869 105.838 104.162 105.894L128.215 110.328C128.504 110.381 128.695 110.658 128.641 110.947C128.594 111.204 128.37 111.383 128.119 111.383Z" fill="white"/>
<path d="M131.433 93.4023L131.336 93.3938L107.283 88.9605C106.994 88.9068 106.803 88.6297 106.857 88.341C106.91 88.0527 107.184 87.8618 107.476 87.9145L131.529 92.3478C131.818 92.4005 132.009 92.6781 131.956 92.9673C131.908 93.2231 131.685 93.4023 131.433 93.4023Z" fill="white"/>
<path d="M154.961 116.252L154.865 116.243L131.947 112.019C131.658 111.965 131.467 111.688 131.521 111.399C131.574 111.111 131.848 110.918 132.14 110.973L155.058 115.197C155.346 115.25 155.537 115.528 155.484 115.817C155.437 116.073 155.214 116.252 154.961 116.252Z" fill="white"/>
<path d="M33.5193 -0.000770569H101.395C102.762 -0.000770569 103.871 1.10796 103.871 2.47461V102.449C103.871 107.165 100.048 110.988 95.3315 110.988H48.2024C38.1526 110.988 30.0059 102.842 30.0059 92.7922V3.51315C30.0059 1.57273 31.5788 -0.000770569 33.5193 -0.000770569Z" fill="white"/>
<path d="M36.5663 91.9199C35.557 90.2592 33.7304 89.1494 31.6448 89.1494H30.0059V3.51347C30.0059 1.57304 31.5788 -0.000465393 33.5193 -0.000465393H101.395H37.1528C36.829 -0.000465393 36.5663 0.26223 36.5663 0.586075V91.9199Z" fill="url(#paint1_linear_455_4330)"/>
<path d="M57.1389 104.4H43.1343C39.9676 104.4 37.4002 101.833 37.4002 98.6658V94.9051C37.4002 93.8124 37.0955 92.7908 36.5664 91.9203V0.586479C36.5664 0.262627 36.8291 -6.86646e-05 37.1529 -6.86646e-05H101.395C102.763 -6.86646e-05 103.871 1.10867 103.871 2.47532V32.583C96.9338 37.2083 91.5252 43.95 88.5744 51.8803H61.9408C61.6473 51.8803 61.409 52.1185 61.409 52.4121C61.409 52.7056 61.6473 52.9438 61.9408 52.9438H88.1958C87.203 55.8638 86.5409 58.9337 86.2538 62.1115H49.2044C48.9103 62.1115 48.6726 62.3498 48.6726 62.6433C48.6726 62.9368 48.9103 63.1751 49.2044 63.1751H86.1719C86.1182 64.019 86.091 64.8687 86.091 65.7259C86.091 76.7357 90.5829 86.7154 97.8314 93.9288H58.5678V98.6254C58.5678 100.712 58.0514 102.676 57.1389 104.4Z" fill="#8BA9F3"/>
<path d="M46.873 110.971V110.99H106.201C113.03 110.99 118.566 105.455 118.566 98.6261V93.9295H58.5661V98.6261C58.5661 105.229 53.3893 110.623 46.873 110.971Z" fill="#1445C2"/>
<path d="M107.559 110.99H94.8516H106.202C108.888 110.99 111.374 110.134 113.401 108.679L113.862 108.764C112.076 110.167 109.903 110.99 107.559 110.99ZM114.871 107.869L114.492 107.799C115.52 106.87 116.39 105.771 117.06 104.546C117.109 104.557 117.16 104.568 117.209 104.579C116.6 105.821 115.807 106.933 114.871 107.869Z" fill="#C9ADD2"/>
<path d="M113.861 108.764L113.4 108.679C113.781 108.406 114.145 108.112 114.492 107.799L114.87 107.868C114.55 108.188 114.212 108.487 113.861 108.764Z" fill="#CCCBE6"/>
<path d="M92.6584 81.1367H50.0005C49.707 81.1367 49.4688 80.8985 49.4688 80.605C49.4688 80.3114 49.707 80.0732 50.0005 80.0732H92.6584C92.9525 80.0732 93.1902 80.3114 93.1902 80.605C93.1902 80.8985 92.9525 81.1367 92.6584 81.1367Z" fill="white"/>
<path d="M71.3303 72.1484H48.6685C48.375 72.1484 48.1367 71.9107 48.1367 71.6167C48.1367 71.3231 48.375 71.0849 48.6685 71.0849H71.3303C71.6244 71.0849 71.8621 71.3231 71.8621 71.6167C71.8621 71.9107 71.6244 72.1484 71.3303 72.1484Z" fill="white"/>
<path d="M69.6135 72.1484H50.3853C50.0912 72.1484 49.8535 71.9107 49.8535 71.6167C49.8535 71.3231 50.0912 71.0849 50.3853 71.0849H69.6135C69.907 71.0849 70.1453 71.3231 70.1453 71.6167C70.1453 71.9107 69.907 72.1484 69.6135 72.1484Z" fill="white"/>
<path d="M78.7068 43.9707H49.5122C49.2182 43.9707 48.9805 43.7325 48.9805 43.4389C48.9805 43.1454 49.2182 42.9072 49.5122 42.9072H78.7068C79.0004 42.9072 79.2386 43.1454 79.2386 43.4389C79.2386 43.7325 79.0004 43.9707 78.7068 43.9707Z" fill="white"/>
<path d="M92.2409 43.9707H83.3482C83.0541 43.9707 82.8164 43.7325 82.8164 43.4389C82.8164 43.1454 83.0541 42.9072 83.3482 42.9072H92.2409C92.535 42.9072 92.7727 43.1454 92.7727 43.4389C92.7727 43.7325 92.535 43.9707 92.2409 43.9707Z" fill="white"/>
<path d="M93.5536 52.9434H61.94C61.6464 52.9434 61.4082 52.7051 61.4082 52.4116C61.4082 52.1181 61.6464 51.8798 61.94 51.8798H93.5536C93.8477 51.8798 94.0854 52.1181 94.0854 52.4116C94.0854 52.7051 93.8477 52.9434 93.5536 52.9434Z" fill="white"/>
<path d="M58.8175 52.9434H49.2036C48.9096 52.9434 48.6719 52.7051 48.6719 52.4116C48.6719 52.1181 48.9096 51.8798 49.2036 51.8798H58.8175C59.111 51.8798 59.3493 52.1181 59.3493 52.4116C59.3493 52.7051 59.111 52.9434 58.8175 52.9434Z" fill="white"/>
<path d="M92.6584 36.373H50.0005C49.707 36.373 49.4688 36.1348 49.4688 35.8413C49.4688 35.5472 49.707 35.3095 50.0005 35.3095H92.6584C92.9525 35.3095 93.1902 35.5472 93.1902 35.8413C93.1902 36.1348 92.9525 36.373 92.6584 36.373Z" fill="white"/>
<path d="M92.6584 18.4121H50.0005C49.707 18.4121 49.4688 18.1739 49.4688 17.8803C49.4688 17.5863 49.707 17.3486 50.0005 17.3486H92.6584C92.9525 17.3486 93.1902 17.5863 93.1902 17.8803C93.1902 18.1739 92.9525 18.4121 92.6584 18.4121Z" fill="white"/>
<path d="M65.6573 27.3848H49.5122C49.2182 27.3848 48.9805 27.1465 48.9805 26.853C48.9805 26.5589 49.2182 26.3212 49.5122 26.3212H65.6573C65.9508 26.3212 66.189 26.5589 66.189 26.853C66.189 27.1465 65.9508 27.3848 65.6573 27.3848Z" fill="white"/>
<path d="M92.3342 27.3848H73.106C72.8125 27.3848 72.5742 27.1465 72.5742 26.853C72.5742 26.5589 72.8125 26.3212 73.106 26.3212H92.3342C92.6283 26.3212 92.866 26.5589 92.866 26.853C92.866 27.1465 92.6283 27.3848 92.3342 27.3848Z" fill="white"/>
<path d="M155.731 52.6035L127.298 47.3624V47.3619L155.731 52.603V52.6035ZM125.729 47.0731L121.017 46.2042L124.997 46.9381L125.729 47.0726V47.0731ZM119.752 45.9713L112.49 44.6328L112.491 44.6323L119.751 45.9708C119.751 45.9708 119.752 45.9708 119.752 45.9713Z" fill="white"/>
<path d="M103.869 62.0645L105.751 51.8582V51.8577L103.869 62.0645Z" fill="#F2D2EB"/>
<path d="M125.897 98.3184C123.377 98.3184 120.922 98.0312 118.566 97.4872V93.9281H109.572C107.519 92.7353 105.607 91.3245 103.869 89.7282V62.064L105.751 51.8572C107.529 49.05 109.82 46.597 112.489 44.6321L119.75 45.9706C119.761 45.9924 119.773 46.0142 119.785 46.0349L115.061 45.1644C114.996 45.1522 114.931 45.1463 114.867 45.1463C114.363 45.1463 113.915 45.5058 113.82 46.0195L108.664 73.9905L108.447 75.1668C108.447 75.1678 108.447 75.1694 108.446 75.171L108.164 76.702C108.057 77.2811 108.44 77.8368 109.019 77.9437L137.55 83.2028C137.615 83.2145 137.681 83.2204 137.744 83.2204C138.248 83.2204 138.697 82.8609 138.791 82.3478L144.447 51.6647C144.554 51.0862 144.171 50.5305 143.592 50.4236L127.287 47.418L127.297 47.3617L155.73 52.6028C157.393 56.3661 158.362 60.5006 158.478 64.8441L148.803 63.0611C148.771 63.0552 148.738 63.052 148.706 63.052C148.452 63.052 148.231 63.2312 148.184 63.4875C148.13 63.7763 148.321 64.0533 148.61 64.1065L158.489 65.9278C158.48 67.4051 158.372 68.8627 158.172 70.2878L147.823 68.3803C147.79 68.374 147.758 68.3713 147.726 68.3713C147.472 68.3713 147.251 68.551 147.203 68.8068C147.15 69.0956 147.341 69.3726 147.629 69.4258L158.006 71.3386C157.727 72.9408 157.329 74.5047 156.825 76.0181L146.757 74.1623C146.724 74.1564 146.692 74.1537 146.66 74.1537C146.406 74.1537 146.185 74.3324 146.138 74.5887C146.084 74.8775 146.275 75.1551 146.564 75.2082L156.467 77.0338C151.86 89.4479 139.894 98.3184 125.897 98.3184ZM107.378 87.9053C107.124 87.9053 106.902 88.0839 106.855 88.3403C106.801 88.629 106.992 88.9061 107.281 88.9598L131.334 93.3931L131.431 93.4016C131.683 93.4016 131.907 93.2224 131.954 92.9666C132.007 92.6774 131.816 92.3998 131.527 92.3471L107.475 87.9138C107.442 87.9079 107.41 87.9053 107.378 87.9053ZM125.718 47.1288L120.96 46.2519C120.979 46.2364 120.998 46.2205 121.016 46.2035L125.728 47.0724L125.718 47.1288Z" fill="url(#paint2_linear_455_4330)"/>
<path d="M158.49 65.9277L148.611 64.1064C148.322 64.0533 148.131 63.7762 148.185 63.4875C148.233 63.2311 148.453 63.0519 148.707 63.0519C148.739 63.0519 148.772 63.0551 148.804 63.061L158.479 64.844C158.487 65.1375 158.491 65.43 158.491 65.7251C158.491 65.7932 158.491 65.8597 158.49 65.9277Z" fill="white"/>
<path d="M158.007 71.3398L147.631 69.4271C147.342 69.3739 147.151 69.0969 147.204 68.8081C147.252 68.5523 147.473 68.3726 147.727 68.3726C147.759 68.3726 147.791 68.3752 147.824 68.3816L158.173 70.2891C158.123 70.6422 158.068 70.991 158.007 71.3398Z" fill="white"/>
<path d="M156.467 77.0352L146.564 75.2096C146.275 75.1564 146.084 74.8788 146.138 74.5901C146.185 74.3338 146.406 74.1551 146.66 74.1551C146.692 74.1551 146.724 74.1578 146.757 74.1636L156.825 76.0195C156.711 76.3609 156.592 76.6985 156.467 77.0352Z" fill="white"/>
<path d="M137.745 83.2207C137.681 83.2207 137.616 83.2149 137.55 83.2032L109.02 77.944C108.441 77.8371 108.058 77.2814 108.164 76.7023L108.447 75.1713C108.343 75.7483 108.725 76.3019 109.303 76.4082L136.502 81.4217C136.567 81.434 136.632 81.4398 136.696 81.4398C137.2 81.4398 137.649 81.0803 137.743 80.5672L142.593 54.2585L142.93 52.4276L143.098 51.5177C143.098 51.5156 143.099 51.514 143.099 51.5124L143.11 51.4502C143.21 50.9083 142.852 50.3883 142.31 50.2883L127.27 47.5162L127.288 47.4184L143.593 50.4239C144.171 50.5308 144.554 51.0865 144.447 51.6651L138.791 82.3481C138.697 82.8612 138.249 83.2207 137.745 83.2207ZM108.664 73.9908L113.82 46.0198C113.915 45.5061 114.363 45.1466 114.868 45.1466C114.932 45.1466 114.996 45.1525 115.062 45.1647L119.785 46.0352C119.81 46.0767 119.839 46.1161 119.871 46.1522L115.013 45.2567C114.95 45.245 114.886 45.2397 114.824 45.2397C114.335 45.2397 113.9 45.588 113.808 46.0868L113.741 46.45L108.664 73.9908ZM125.7 47.2269L120.839 46.3309C120.881 46.308 120.922 46.282 120.961 46.2522L125.718 47.1291L125.7 47.2269Z" fill="#8BA9F3"/>
<path d="M136.696 81.4395C136.632 81.4395 136.567 81.4336 136.502 81.4214L109.303 76.4079C108.725 76.3015 108.343 75.7479 108.447 75.171C108.447 75.1694 108.447 75.1678 108.448 75.1667L108.664 73.9905L113.741 46.4496L113.297 48.8586L125.002 51.0159L123.309 60.1974C123.145 61.0866 122.368 61.7114 121.495 61.7114C121.384 61.7114 121.271 61.7008 121.158 61.68L120.752 61.605C119.463 61.3673 118.608 60.1257 118.845 58.8367L119.869 53.2855C119.948 52.8521 119.662 52.4363 119.228 52.3565C119.179 52.3475 119.131 52.3432 119.083 52.3432C118.708 52.3432 118.37 52.6123 118.299 52.9962L117.276 58.5474C116.879 60.7016 118.309 62.777 120.462 63.1737L120.868 63.2487C121.078 63.2876 121.287 63.3062 121.494 63.3062C123.121 63.3062 124.573 62.1437 124.878 60.4867L126.571 51.3052L142.593 54.2581L137.743 80.5668C137.649 81.08 137.2 81.4395 136.696 81.4395ZM113.629 49.016C113.503 49.016 113.394 49.1069 113.371 49.2345C113.344 49.3792 113.439 49.5174 113.584 49.544L124.214 51.5036L124.262 51.5078C124.388 51.5078 124.5 51.4185 124.524 51.2903C124.55 51.1457 124.454 51.0069 124.31 50.9803L113.68 49.0213C113.663 49.0176 113.646 49.016 113.629 49.016ZM142.93 52.4273L143.099 51.5121C143.099 51.5137 143.098 51.5153 143.098 51.5174L142.93 52.4273Z" fill="url(#paint3_linear_455_4330)"/>
<path d="M142.593 54.2598L142.93 52.4289L142.593 54.2598ZM143.099 51.5137C143.202 50.9368 142.82 50.3837 142.243 50.2774L127.27 47.5175L142.31 50.2896C142.852 50.3896 143.21 50.9096 143.11 51.4515L143.099 51.5137Z" fill="#EAD4E6"/>
<path d="M142.592 54.2598L126.57 51.3069L127.269 47.5175L142.242 50.2774C142.82 50.3837 143.202 50.9368 143.099 51.5137L142.93 52.4289L142.592 54.2598Z" fill="url(#paint4_linear_455_4330)"/>
<path d="M125.701 47.2266L120.839 46.3305H120.84L125.701 47.2266ZM113.742 46.4496L113.809 46.0865C113.901 45.5877 114.336 45.2393 114.825 45.2393C114.887 45.2393 114.95 45.2447 115.014 45.2564L119.872 46.1519L115.044 45.2622C114.979 45.25 114.914 45.2441 114.85 45.2441C114.346 45.2441 113.898 45.6036 113.803 46.1173L113.742 46.4496Z" fill="#EAD4E6"/>
<path d="M125.001 51.0176L113.297 48.8602L113.741 46.4513L113.802 46.1189C113.897 45.6052 114.345 45.2458 114.849 45.2458C114.913 45.2458 114.978 45.2516 115.043 45.2638L119.871 46.1535C119.985 46.2832 120.142 46.3768 120.325 46.4103C120.373 46.4194 120.421 46.4236 120.468 46.4236C120.599 46.4236 120.726 46.3912 120.838 46.3322L125.7 47.2282L125.001 51.0176Z" fill="url(#paint5_linear_455_4330)"/>
<path d="M121.494 63.3066C121.288 63.3066 121.079 63.288 120.869 63.2492L120.463 63.1742C118.31 62.7775 116.88 60.702 117.277 58.5478L118.3 52.9967C118.371 52.6128 118.709 52.3437 119.083 52.3437C119.132 52.3437 119.18 52.348 119.229 52.357C119.663 52.4368 119.949 52.8526 119.869 53.286L118.846 58.8371C118.609 60.1261 119.464 61.3678 120.753 61.6055L121.158 61.6805C121.272 61.7012 121.384 61.7119 121.496 61.7119C122.369 61.7119 123.146 61.087 123.31 60.1979L125.003 51.0164L125.701 47.227L125.719 47.1292L125.729 47.0728V47.0723L125.9 46.1475C125.946 45.9008 125.941 45.6567 125.894 45.4249C125.744 44.6841 125.158 44.0715 124.371 43.9264L123.677 43.7987C123.553 43.7759 123.43 43.7647 123.308 43.7647C122.349 43.7647 121.499 44.4486 121.318 45.4228L121.255 45.7695C121.223 45.9423 121.137 46.0917 121.017 46.2039C120.999 46.2209 120.981 46.2369 120.962 46.2523C120.923 46.2821 120.882 46.3081 120.84 46.331H120.839C120.727 46.39 120.601 46.4225 120.47 46.4225C120.422 46.4225 120.374 46.4182 120.326 46.4092C120.143 46.3757 119.986 46.2821 119.872 46.1523C119.84 46.1162 119.811 46.0768 119.786 46.0354C119.774 46.0146 119.763 45.9928 119.752 45.971C119.752 45.9705 119.751 45.9705 119.751 45.9705C119.681 45.8237 119.654 45.6535 119.686 45.4807L119.75 45.1335C120.071 43.3914 121.598 42.1694 123.308 42.1694C123.525 42.1694 123.745 42.1891 123.966 42.23L124.66 42.3576C125.589 42.5289 126.365 43.0548 126.875 43.77C127.407 44.5156 127.648 45.4669 127.469 46.4363L127.299 47.3616V47.3621L127.289 47.4185L127.271 47.5163L126.572 51.3057L124.879 60.4872C124.573 62.1442 123.122 63.3066 121.494 63.3066Z" fill="#1445C2"/>
<path d="M124.263 51.5078L124.214 51.5036L113.585 49.544C113.44 49.5174 113.345 49.3791 113.372 49.2345C113.395 49.1069 113.504 49.0159 113.63 49.0159C113.647 49.0159 113.664 49.0175 113.681 49.0213L124.311 50.9803C124.455 51.0069 124.551 51.1457 124.524 51.2903C124.5 51.4185 124.389 51.5078 124.263 51.5078Z" fill="white"/>
<path d="M131.433 93.4023L131.336 93.3938L107.283 88.9605C106.994 88.9068 106.803 88.6297 106.857 88.341C106.904 88.0847 107.126 87.906 107.379 87.906C107.411 87.906 107.443 87.9086 107.476 87.9145L131.529 92.3478C131.818 92.4005 132.009 92.6781 131.956 92.9673C131.908 93.2231 131.685 93.4023 131.433 93.4023Z" fill="white"/>
<path d="M103.87 89.7285C97.3796 83.7669 93.3047 75.2128 93.3047 65.7256C93.3047 64.8668 93.3382 64.017 93.4036 63.1747H93.5541C93.8482 63.1747 94.0859 62.9364 94.0859 62.6429C94.0859 62.3494 93.8482 62.1111 93.5541 62.1111H93.5041C94.3943 54.0793 98.2156 46.9169 103.87 41.7231V47.1482C99.8141 52.3638 97.3961 58.9136 97.3961 66.0175C97.3961 67.1922 98.349 68.1446 99.5232 68.1446C100.698 68.1446 101.651 67.1922 101.651 66.0175C101.651 62.2419 102.443 58.6477 103.87 55.3933V89.7285Z" fill="#8BA9F3"/>
<path d="M118.566 97.4883C115.362 96.7491 112.34 95.5372 109.572 93.9292H118.566V97.4883Z" fill="#1445C2"/>
<path d="M103.869 55.3945V47.1495C109.508 39.8993 118.312 35.2267 128.187 35.2267C129.362 35.2267 130.314 36.1791 130.314 37.3538C130.314 38.5284 129.362 39.4808 128.187 39.4808C122.318 39.4808 116.888 41.3957 112.49 44.6331L107.26 43.6696L107.085 44.6214C107.084 44.6268 107.083 44.6321 107.082 44.6379L105.751 51.8593C105.038 52.984 104.409 54.164 103.869 55.3945Z" fill="white"/>
<path d="M112.49 44.6328L108.23 43.8474C108.169 43.8362 108.109 43.8309 108.05 43.8309C107.59 43.8309 107.18 44.1548 107.086 44.6206L107.261 43.6687L112.491 44.6323L112.49 44.6328Z" fill="white"/>
<path d="M105.752 51.8594L107.083 44.638C107.084 44.6321 107.085 44.6268 107.086 44.6215L105.752 51.8588V51.8594Z" fill="#FCF8FC"/>
<path d="M99.5236 68.1445C98.3494 68.1445 97.3965 67.1921 97.3965 66.0175C97.3965 58.9136 99.8144 52.3638 103.871 47.1482V55.3933C102.443 58.6477 101.651 62.2419 101.651 66.0175C101.651 67.1921 100.698 68.1445 99.5236 68.1445Z" fill="#D1DCFA"/>
<path d="M155.258 50.3965L154.367 49.8684C152.333 46.2317 149.621 43.0209 146.406 40.411H147.24C150.516 43.1777 153.251 46.5678 155.258 50.3965Z" fill="#1445C2"/>
<path d="M156.362 52.7188L155.732 52.6023C155.319 51.6674 154.863 50.7549 154.367 49.8685L155.258 50.3965C155.655 51.1537 156.024 51.928 156.362 52.7188Z" fill="#1445C2"/>
<path d="M156.361 52.7188L155.73 52.6028V52.6023L156.361 52.7188Z" fill="#8F8ECB"/>
<path d="M125.897 98.8516C123.379 98.8516 120.925 98.5692 118.566 98.0342V97.4886C120.923 98.0326 123.378 98.3198 125.897 98.3198C139.895 98.3198 151.861 89.4494 156.468 77.0352L156.999 77.1325C152.341 89.7966 140.157 98.8516 125.897 98.8516ZM157.354 76.1169L156.826 76.0196C157.33 74.5061 157.727 72.9422 158.007 71.34L158.53 71.4368C158.25 73.039 157.856 74.6019 157.354 76.1169ZM158.696 70.3855L158.172 70.2892C158.373 68.8641 158.481 67.4065 158.49 65.9293L159.021 66.0271C159.008 67.5044 158.897 68.9598 158.696 70.3855ZM159.013 64.9439L158.479 64.8455C158.363 60.502 157.393 56.3675 155.731 52.6042L156.362 52.7201C157.977 56.4882 158.912 60.6158 159.013 64.9439Z" fill="#1445C2"/>
<path d="M159.021 66.0273L158.49 65.9295C158.49 65.8614 158.49 65.795 158.49 65.7269C158.49 65.4318 158.486 65.1393 158.479 64.8458L159.013 64.9441C159.019 65.2047 159.022 65.4653 159.022 65.7269C159.022 65.8274 159.021 65.9268 159.021 66.0273Z" fill="#1445C2"/>
<path d="M158.529 71.4355L158.006 71.3388C158.067 70.9899 158.122 70.6411 158.172 70.288L158.695 70.3842C158.645 70.7368 158.59 71.0867 158.529 71.4355Z" fill="#1445C2"/>
<path d="M156.998 77.1309L156.467 77.0336C156.592 76.6969 156.711 76.3593 156.825 76.0179L157.353 76.1152C157.24 76.4555 157.121 76.7953 156.998 77.1309Z" fill="#1445C2"/>
<path d="M103.869 41.7227V41.0058C109.727 35.7796 117.447 32.6002 125.897 32.6002C130.043 32.6002 134.012 33.3659 137.674 34.7629V35.3329C134.019 33.9121 130.048 33.1319 125.897 33.1319C117.412 33.1319 109.674 36.3906 103.869 41.7227Z" fill="#1445C2"/>
<path d="M147.239 40.4121H146.405C143.797 38.2941 140.856 36.5717 137.674 35.3343V34.7642C141.186 36.1048 144.414 38.0271 147.239 40.4121Z" fill="#1445C2"/>
<path d="M109.572 93.9297H108.538C106.879 92.905 105.318 91.7388 103.869 90.4466V89.7298C105.607 91.3262 107.519 92.7369 109.572 93.9297Z" fill="#1445C2"/>
<path d="M103.869 90.4453C97.0634 84.3746 92.7715 75.542 92.7715 65.7255C92.7715 64.8673 92.8044 64.017 92.8688 63.1746H93.4022C93.3367 64.017 93.3033 64.8667 93.3033 65.7255C93.3033 75.2128 97.3782 83.7668 103.869 89.7285V90.4453Z" fill="#1445C2"/>
<path d="M93.5037 62.1113H92.9688C93.8791 53.7541 97.911 46.3221 103.87 41.0065V41.7233C98.2152 46.9171 94.3939 54.0795 93.5037 62.1113Z" fill="#1445C2"/>
<path d="M118.567 98.0332C114.968 97.2169 111.59 95.8131 108.539 93.9285H109.573C112.341 95.5366 115.363 96.7485 118.567 97.4876V98.0332Z" fill="#0F3594"/>
<path d="M125.896 99.3828C107.308 99.3828 92.2398 84.314 92.2398 65.7266C92.2398 47.1381 107.308 32.0699 125.896 32.0699C144.484 32.0699 159.553 47.1381 159.553 65.7266C159.553 84.314 144.484 99.3828 125.896 99.3828ZM156.832 89.8412C156.882 89.7913 156.937 89.7519 156.992 89.711C162.117 83.0756 165.172 74.7598 165.172 65.7266C165.172 44.0353 147.588 26.4508 125.896 26.4508C104.205 26.4508 86.6211 44.0353 86.6211 65.7266C86.6211 87.4174 104.205 105.002 125.896 105.002C134.892 105.002 143.172 101.967 149.794 96.8792L154.338 92.3352L156.832 89.8412Z" fill="url(#paint6_linear_455_4330)"/>
<path d="M125.897 32.6007C107.632 32.6007 92.7721 47.4604 92.7721 65.7256C92.7721 83.9913 107.632 98.8505 125.897 98.8505C144.162 98.8505 159.022 83.9913 159.022 65.7256C159.022 47.4604 144.162 32.6007 125.897 32.6007ZM125.897 99.914C107.045 99.914 91.7085 84.5773 91.7085 65.7256C91.7085 46.8744 107.045 31.5371 125.897 31.5371C144.749 31.5371 160.085 46.8744 160.085 65.7256C160.085 84.5773 144.749 99.914 125.897 99.914ZM125.897 26.982C104.534 26.982 87.1534 44.3623 87.1534 65.7256C87.1534 87.0894 104.534 104.47 125.897 104.47C134.485 104.47 142.626 101.706 149.443 96.4777L156.457 89.4648C156.507 89.4143 156.56 89.3706 156.615 89.3292C161.866 82.506 164.641 74.3461 164.641 65.7256C164.641 44.3623 147.26 26.982 125.897 26.982ZM125.897 105.533C103.947 105.533 86.0898 87.6759 86.0898 65.7256C86.0898 43.7763 103.947 25.9185 125.897 25.9185C147.847 25.9185 165.705 43.7763 165.705 65.7256C165.705 74.6072 162.837 83.0134 157.413 90.0354L157.313 90.1343C157.261 90.1736 157.233 90.1917 157.21 90.2156L150.118 97.2998C143.108 102.686 134.732 105.533 125.897 105.533Z" fill="url(#paint7_linear_455_4330)"/>
<path d="M155.863 95.9825L154.339 94.4595C153.752 93.8729 153.752 92.9221 154.339 92.3356L149.796 96.8796L149.721 96.9535C149.135 97.5395 149.135 98.4908 149.721 99.0768L151.57 100.926C152.18 99.9037 153.963 97.9027 155.863 95.9825Z" fill="#1445C2"/>
<path d="M154.338 92.3356C153.752 92.9221 153.752 93.8729 154.338 94.4594L155.862 95.9824C157.699 94.1244 159.638 92.3494 160.726 91.6118L158.956 89.8416C158.419 89.3045 157.581 89.2651 156.992 89.7113C156.938 89.7522 156.882 89.7916 156.833 89.8416L154.338 92.3356Z" fill="#4E5DB3"/>
<path d="M155.861 95.9805L154.338 94.458C154.045 94.1645 153.898 93.7805 153.898 93.3961C153.898 93.0116 154.045 92.6277 154.338 92.3341L156.833 89.8401C156.882 89.7902 156.937 89.7508 156.992 89.7099C157.261 89.5062 157.582 89.4036 157.903 89.4036C158.283 89.4036 158.664 89.5482 158.956 89.8401L160.724 91.6088C159.635 92.3485 157.695 94.1257 155.861 95.9805Z" fill="#1445C2"/>
<path d="M189.222 119.242L161.564 91.2836C161.464 91.1826 161.162 91.3161 160.726 91.6117C159.638 92.3493 157.699 94.1243 155.862 95.9823C153.963 97.9025 152.18 99.9036 151.57 100.926C151.371 101.258 151.294 101.489 151.381 101.577L179.04 129.536C181.851 132.379 186.41 132.379 189.222 129.536C192.033 126.694 192.033 122.085 189.222 119.242Z" fill="url(#paint8_linear_455_4330)"/>
<path d="M155.32 96.5332C155.499 96.3492 155.679 96.1647 155.861 95.9812C157.698 94.1232 159.637 92.3482 160.725 91.6106L160.724 91.609C161.063 91.3782 161.32 91.2485 161.465 91.2485C161.507 91.2485 161.54 91.2597 161.563 91.2825C161.541 91.2602 161.508 91.249 161.467 91.249C161.322 91.249 161.063 91.3809 160.725 91.6106C159.637 92.3482 157.698 94.1232 155.861 95.9812C155.679 96.1647 155.499 96.3492 155.32 96.5332Z" fill="#E4C3DC"/>
<path d="M155.32 96.5332C155.325 96.5284 155.329 96.5242 155.333 96.5194C155.507 96.3396 155.684 96.1599 155.861 95.9807L155.861 95.9812C155.679 96.1647 155.499 96.3492 155.32 96.5332Z" fill="#4C59B1"/>
<path d="M155.862 95.9824L155.861 95.9819C157.695 94.1271 159.635 92.3499 160.724 91.6102L160.726 91.6118C159.638 92.3494 157.699 94.1244 155.862 95.9824Z" fill="#454EAA"/>
<path d="M188.731 129.707C183.761 129.704 153.24 98.9161 155.32 96.5343C155.499 96.3503 155.679 96.1657 155.861 95.9823C157.698 94.1243 159.637 92.3492 160.725 91.6117C161.063 91.382 161.322 91.2501 161.467 91.2501C161.508 91.2501 161.541 91.2613 161.563 91.2836L189.221 119.242C190.627 120.664 191.329 122.527 191.329 124.389C191.329 126.252 190.627 128.115 189.221 129.536C189.107 129.652 188.942 129.707 188.731 129.707Z" fill="url(#paint9_linear_455_4330)"/>
<path d="M88.3867 104.4H43.1332C39.9666 104.4 37.3992 101.833 37.3992 98.6659V94.9052C37.3992 91.7268 34.8222 89.1499 31.6439 89.1499H10.7417C7.56317 89.1499 4.98633 91.7268 4.98633 94.9052V109.761V126.84V154.64C4.98633 157.601 7.38636 160 10.3468 160H88.3867C91.3471 160 93.7469 157.601 93.7469 154.64V109.761C93.7469 106.801 91.3471 104.4 88.3867 104.4Z" fill="url(#paint10_linear_455_4330)"/>
<path d="M83.4006 104.4H38.1471C34.9799 104.4 32.4125 101.833 32.4125 98.6659V94.9052C32.4125 91.7268 29.8361 89.1499 26.6577 89.1499H5.75538C2.57679 89.1499 0 91.7268 0 94.9052V109.761V126.84V154.64C0 157.601 2.40003 160 5.36049 160H83.4006C86.3609 160 88.7608 157.601 88.7608 154.64V109.761C88.7608 106.801 86.3609 104.4 83.4006 104.4Z" fill="#F26690"/>
<path d="M44.7974 160H4.62287C2.06975 160 0 157.601 0 154.64C0 157.601 2.40003 160 5.36049 160H44.7974Z" fill="#F8F7FC"/>
<path d="M0 94.9043C0 94.0157 0.173678 93.1745 0.483593 92.4231H0.560859C0.201277 93.1745 0 94.0157 0 94.9043ZM1.22078 91.3595H1.05274C1.96132 90.0142 3.3753 89.149 4.96331 89.149H5.75538C3.91392 89.149 2.27437 90.0142 1.22078 91.3595Z" fill="#EBE7F6"/>
<path d="M0.561641 92.4238H0.484375C0.640981 92.0447 0.832311 91.6884 1.05353 91.3603H1.22156C0.965039 91.6884 0.743187 92.0447 0.561641 92.4238Z" fill="#FCFDFE"/>
<path fill-rule="evenodd" clip-rule="evenodd" d="M5.36049 160H71.9223H83.4006C86.361 160 88.7608 157.601 88.7608 154.64V109.761C88.7608 106.801 86.361 104.4 83.4006 104.4H71.9223H38.1471C34.9799 104.4 32.4125 101.833 32.4125 98.6659V94.9052C32.4125 91.7268 29.8361 89.1499 26.6577 89.1499H22.9885H5.75538C2.57679 89.1499 0 91.7268 0 94.9052V109.761V126.84V154.64C0 157.601 2.40003 160 5.36049 160ZM27.952 94.9052L27.9521 98.6659C27.9521 100.454 28.6574 102.05 29.7629 103.102C28.6574 102.05 27.952 100.454 27.952 98.6659V94.9052Z" fill="url(#paint11_linear_455_4330)"/>
<defs>
<linearGradient id="paint0_linear_455_4330" x1="134.653" y1="148.639" x2="153.067" y2="59.1459" gradientUnits="userSpaceOnUse">
<stop stop-color="#E4ECFF"/>
<stop offset="1" stop-color="#D1DCFA"/>
</linearGradient>
<linearGradient id="paint1_linear_455_4330" x1="65.7005" y1="91.9199" x2="85.4649" y2="5.73106" gradientUnits="userSpaceOnUse">
<stop stop-color="#E4ECFF"/>
<stop offset="1" stop-color="#D1DCFA"/>
</linearGradient>
<linearGradient id="paint2_linear_455_4330" x1="131.179" y1="98.3184" x2="140.179" y2="46.9079" gradientUnits="userSpaceOnUse">
<stop stop-color="#E4ECFF"/>
<stop offset="1" stop-color="#D1DCFA"/>
</linearGradient>
<linearGradient id="paint3_linear_455_4330" x1="120.828" y1="81.4226" x2="123.547" y2="42.4497" gradientUnits="userSpaceOnUse">
<stop stop-color="#8BA9F3"/>
<stop offset="1" stop-color="#265DE9"/>
</linearGradient>
<linearGradient id="paint4_linear_455_4330" x1="132.487" y1="54.2565" x2="132.7" y2="46.7161" gradientUnits="userSpaceOnUse">
<stop stop-color="#8BA9F3"/>
<stop offset="1" stop-color="#265DE9"/>
</linearGradient>
<linearGradient id="paint5_linear_455_4330" x1="117.732" y1="51.0148" x2="117.94" y2="44.5613" gradientUnits="userSpaceOnUse">
<stop stop-color="#8BA9F3"/>
<stop offset="1" stop-color="#265DE9"/>
</linearGradient>
<linearGradient id="paint6_linear_455_4330" x1="114.712" y1="104.964" x2="120.762" y2="17.4633" gradientUnits="userSpaceOnUse">
<stop stop-color="#8BA9F3"/>
<stop offset="1" stop-color="#265DE9"/>
</linearGradient>
<linearGradient id="paint7_linear_455_4330" x1="114.561" y1="105.495" x2="120.693" y2="16.8093" gradientUnits="userSpaceOnUse">
<stop stop-color="#8BA9F3"/>
<stop offset="1" stop-color="#265DE9"/>
</linearGradient>
<linearGradient id="paint8_linear_455_4330" x1="165.645" y1="131.648" x2="168.791" y2="86.6305" gradientUnits="userSpaceOnUse">
<stop stop-color="#8BA9F3"/>
<stop offset="1" stop-color="#265DE9"/>
</linearGradient>
<linearGradient id="paint9_linear_455_4330" x1="168.132" y1="129.688" x2="171.285" y2="86.8774" gradientUnits="userSpaceOnUse">
<stop stop-color="#8BA9F3"/>
<stop offset="1" stop-color="#265DE9"/>
</linearGradient>
<linearGradient id="paint10_linear_455_4330" x1="36.7283" y1="159.966" x2="41.0914" y2="80.907" gradientUnits="userSpaceOnUse">
<stop stop-color="#8BA9F3"/>
<stop offset="1" stop-color="#265DE9"/>
</linearGradient>
<linearGradient id="paint11_linear_455_4330" x1="44.3804" y1="160" x2="54.1241" y2="91.4594" gradientUnits="userSpaceOnUse">
<stop stop-color="#E4ECFF"/>
<stop offset="1" stop-color="#D1DCFA"/>
</linearGradient>
</defs>
</svg>
