<svg width="275" height="275" viewBox="0 0 275 275" fill="none" xmlns="http://www.w3.org/2000/svg">
<path d="M9.1457 91.7374C7.54181 77.5699 17.7266 64.7847 31.8941 63.1809L182.938 46.0812C197.106 44.4774 209.891 54.6621 211.495 68.8296L228.524 219.25C230.128 233.418 219.943 246.203 205.775 247.807L54.7313 264.906C40.5638 266.51 27.7786 256.325 26.1747 242.158L9.1457 91.7374Z" fill="url(#paint0_linear_1_5553)"/>
<path d="M42.4566 64.4941C42.8088 50.2405 54.6491 38.9712 68.9027 39.3233L220.865 43.0779C235.119 43.43 246.388 55.2704 246.036 69.524L242.297 220.859C241.945 235.113 230.105 246.382 215.851 246.03L63.8883 242.275C49.6347 241.923 38.3654 230.083 38.7176 215.829L42.4566 64.4941Z" fill="url(#paint1_linear_1_5553)"/>
<rect x="85.4233" y="95.9385" width="123.469" height="6.73469" rx="1.5" transform="rotate(1.5928 85.4233 95.9385)" fill="#265DE9"/>
<rect x="85.4233" y="121.225" width="123.469" height="6.73469" rx="1.5" transform="rotate(1.5928 85.4233 121.225)" fill="#265DE9"/>
<rect x="85.4233" y="147.633" width="123.469" height="6.73469" rx="1.5" transform="rotate(1.5928 85.4233 147.633)" fill="#265DE9"/>
<rect x="85.4233" y="174.042" width="82.2877" height="6.73469" rx="1.5" transform="rotate(1.5928 85.4233 174.042)" fill="#265DE9"/>
<path d="M156.582 43.2139L144.235 66.7853" stroke="#0F3594" stroke-width="2"/>
<circle cx="157.143" cy="42.6531" r="16.8367" fill="#8BA9F3"/>
<path d="M152.092 37.0405L162.194 21.3262L169.49 24.1323L165.561 41.5303C164.663 45.5711 160.061 47.816 156.02 46.02C151.979 44.2241 150.408 39.8466 152.092 37.0405Z" fill="#1445C2"/>
<circle cx="168.929" cy="18.5203" r="9.54082" fill="#8BA9F3"/>
<defs>
<linearGradient id="paint0_linear_1_5553" x1="87.5509" y1="46.0207" x2="104.388" y2="290.153" gradientUnits="userSpaceOnUse">
<stop stop-color="#8BA9F3"/>
<stop offset="1" stop-color="#265DE9"/>
</linearGradient>
<linearGradient id="paint1_linear_1_5553" x1="157.389" y1="34.1311" x2="165.561" y2="246.938" gradientUnits="userSpaceOnUse">
<stop stop-color="#E4ECFF"/>
<stop offset="1" stop-color="#D1DCFA"/>
</linearGradient>
</defs>
</svg>
