<svg xmlns="http://www.w3.org/2000/svg" width="20" height="20" viewBox="0 0 20 20" fill="none">
  <path fill-rule="evenodd" clip-rule="evenodd" d="M1.69601 2.51246C1.28345 2.58409 0.958984 2.87824 0.854635 3.27523C0.836591 3.34388 0.832942 3.38461 0.833413 3.51206C0.833914 3.64716 0.837242 3.67766 0.8606 3.7615C0.961209 4.12263 1.25375 4.39724 1.63815 4.49141L1.72453 4.51257H10.0051H18.2856L18.3851 4.48623C18.7647 4.38578 19.0489 4.1066 19.1454 3.73926C19.1635 3.67062 19.1671 3.62989 19.1667 3.50244C19.1662 3.36734 19.1628 3.33683 19.1395 3.25299C19.0395 2.89414 18.7531 2.62351 18.3671 2.5232L18.2856 2.50201L10.0301 2.5004C2.93857 2.49903 1.76357 2.50072 1.69601 2.51246ZM1.69601 9.15046C1.28334 9.22221 0.958984 9.51627 0.854635 9.91325C0.836591 9.98189 0.832942 10.0226 0.833413 10.1501C0.833914 10.2852 0.837242 10.3157 0.8606 10.3995C0.961209 10.7606 1.25375 11.0353 1.63815 11.1294L1.72453 11.1506H6.24574H10.7669L10.8665 11.1242C11.2461 11.0238 11.5303 10.7446 11.6268 10.3773C11.6449 10.3086 11.6485 10.2679 11.648 10.1405C11.6475 10.0054 11.6442 9.97485 11.6208 9.89101C11.5209 9.53214 11.2343 9.26134 10.8485 9.16125L10.7669 9.1401L6.2708 9.13844C2.42324 9.13703 1.76331 9.13876 1.69601 9.15046ZM1.69601 15.4999C1.28345 15.5715 0.958984 15.8657 0.854635 16.2627C0.836591 16.3313 0.832942 16.372 0.833413 16.4995C0.833914 16.6346 0.837242 16.6651 0.8606 16.7489C0.961209 17.1101 1.25375 17.3847 1.63815 17.4788L1.72453 17.5H10.0051H18.2856L18.3851 17.4737C18.7647 17.3732 19.0489 17.094 19.1454 16.7267C19.1635 16.658 19.1671 16.6173 19.1667 16.4899C19.1662 16.3548 19.1628 16.3243 19.1395 16.2404C19.0395 15.8816 18.7531 15.6109 18.3671 15.5106L18.2856 15.4894L10.0301 15.4878C2.93857 15.4865 1.76357 15.4882 1.69601 15.4999Z" fill="#212B36"/>
</svg>