<svg width="275" height="275" viewBox="0 0 275 275" fill="none" xmlns="http://www.w3.org/2000/svg">
<g clip-path="url(#clip0_1_5786)">
<circle cx="137.5" cy="137.5" r="137.5" fill="url(#paint0_linear_1_5786)"/>
<mask id="mask0_1_5786" style="mask-type:alpha" maskUnits="userSpaceOnUse" x="0" y="0" width="275" height="275">
<circle cx="137.5" cy="137.5" r="137.5" fill="url(#paint1_linear_1_5786)"/>
</mask>
<g mask="url(#mask0_1_5786)">
<path d="M55.2041 71.3184C55.2041 62.7806 62.1254 55.8594 70.6632 55.8594H204.339C212.876 55.8594 219.798 62.7806 219.798 71.3184V396.8C219.798 405.338 212.876 412.259 204.339 412.259H70.6632C62.1254 412.259 55.2041 405.338 55.2041 396.8V71.3184Z" fill="#161C24"/>
<path d="M59.5928 72.5377C59.5928 65.7503 65.095 60.248 71.8824 60.248H203.118C209.906 60.248 215.408 65.7503 215.408 72.5377V395.58C215.408 402.367 209.906 407.87 203.118 407.87H71.8824C65.095 407.87 59.5928 402.367 59.5928 395.58V72.5377Z" fill="white"/>
<path d="M105.678 60.248H168.882C168.882 67.0354 163.379 72.5377 156.592 72.5377H117.967C111.18 72.5377 105.678 67.0354 105.678 60.248Z" fill="#161C24"/>
<circle cx="137.281" cy="184.815" r="60.5704" fill="url(#paint2_linear_1_5786)"/>
<path fill-rule="evenodd" clip-rule="evenodd" d="M111.715 183.126H133.569C133.461 182.855 133.433 182.38 133.433 182.176C133.433 180.479 135.062 178.511 137.234 178.511C139.474 178.511 141.035 180.547 141.035 182.176C141.035 182.447 140.899 182.923 140.831 183.126H162.754V177.9C162.754 176.543 161.532 174.846 159.7 174.846H154.609V166.973C154.609 159.032 147.551 150.141 137.166 150.141C126.782 150.141 119.859 159.032 119.859 166.973V174.846H115.176C113.004 174.846 111.715 176.068 111.715 178.307V183.126ZM150.672 174.845H123.795V167.244C123.795 160.321 129.768 154.213 137.369 154.213C144.971 154.213 150.672 160.389 150.672 167.244V174.845ZM93.3872 194.46C93.3872 190.184 96.5093 187.266 100.582 187.266L173.883 187.198C178.227 187.198 181.077 190.809 181.077 194.392V212.65C181.077 217.061 177.344 219.708 174.018 219.708H100.582C96.3736 219.708 93.3872 216.315 93.3872 212.514V194.46ZM97.3245 194.596C97.3245 192.628 98.8177 191.202 100.718 191.202H173.748C175.648 191.202 177.141 192.56 177.141 194.596V212.514C177.141 214.279 175.648 215.704 173.951 215.704H100.718C98.7498 215.704 97.3245 214.279 97.3245 212.446V194.596ZM108.048 197.922V200.908L105.876 198.737L104.451 200.162L106.69 202.402H103.568V204.438H106.69L104.519 206.61L105.876 207.967L108.048 205.795V208.917H110.084V205.795L112.256 207.967L113.613 206.61L111.441 204.438H114.563V202.402H111.441L113.681 200.162L112.324 198.804L110.084 200.908V197.922H108.048ZM122.029 200.908V197.922H124.065V200.908L126.305 198.804L127.663 200.162L125.423 202.402H128.545V204.438H125.423L127.595 206.61L126.237 207.967L124.065 205.795V208.917H122.029V205.795L119.857 207.967L118.5 206.61L120.672 204.438H117.55V202.402H120.672L118.432 200.162L119.857 198.737L122.029 200.908ZM136.011 197.922V200.908L133.839 198.737L132.414 200.162L134.653 202.402H131.531V204.438H134.653L132.481 206.61L133.839 207.967L136.011 205.795V208.917H138.047V205.795L140.219 207.967L141.576 206.61L139.404 204.438H142.526V202.402H139.404L141.644 200.162L140.287 198.804L138.047 200.908V197.922H136.011ZM149.992 200.908V197.922H152.028V200.908L154.268 198.804L155.626 200.162L153.386 202.402H156.508V204.438H153.386L155.558 206.61L154.2 207.967L152.028 205.795V208.917H149.992V205.795L147.82 207.967L146.463 206.61L148.635 204.438H145.513V202.402H148.635L146.395 200.162L147.82 198.737L149.992 200.908ZM159.494 206.881H170.489V208.917H159.494V206.881Z" fill="white"/>
</g>
</g>
<defs>
<linearGradient id="paint0_linear_1_5786" x1="137.5" y1="2.79299e-06" x2="184.351" y2="263.068" gradientUnits="userSpaceOnUse">
<stop stop-color="#E4ECFF"/>
<stop offset="1" stop-color="#D1DCFA"/>
</linearGradient>
<linearGradient id="paint1_linear_1_5786" x1="137.5" y1="2.79299e-06" x2="184.351" y2="263.068" gradientUnits="userSpaceOnUse">
<stop stop-color="#E4ECFF"/>
<stop offset="1" stop-color="#D1DCFA"/>
</linearGradient>
<linearGradient id="paint2_linear_1_5786" x1="197.657" y1="101.693" x2="91.0004" y2="244.959" gradientUnits="userSpaceOnUse">
<stop stop-color="#8BA9F3"/>
<stop offset="1" stop-color="#265DE9"/>
</linearGradient>
<clipPath id="clip0_1_5786">
<rect width="275" height="275" fill="white"/>
</clipPath>
</defs>
</svg>
