<svg width="18" height="14" viewBox="0 0 18 14" fill="none" xmlns="http://www.w3.org/2000/svg">
<path d="M14.2238 4.63421C14.446 4.4221 14.452 4.07225 14.2373 3.85278C14.0225 3.63332 13.6683 3.62736 13.4461 3.83947C12.1837 5.04464 10.4859 6.66805 10.1614 6.98853C9.74422 7.40059 9.3854 7.55809 8.95258 7.55809C8.45988 7.55809 7.86984 7.35687 7.49692 6.98853L4.31541 3.84607C4.09691 3.63026 3.74265 3.63026 3.52415 3.84607C3.30566 4.06189 3.30566 4.4118 3.52415 4.62761L6.70567 7.77007C7.3201 8.37695 8.21109 8.66335 8.95258 8.66335C9.75395 8.66335 10.3825 8.33323 10.9527 7.77007C11.2683 7.45829 12.9556 5.84485 14.2238 4.63421Z"/>
<path fill-rule="evenodd" clip-rule="evenodd" d="M4.3855 0C3.24792 0 2.15597 0.618515 1.36841 1.41636C0.582758 2.21226 0 3.28788 0 4.33166L8.82632e-05 4.34147L0.0959957 9.67345C0.0975994 10.8183 0.638309 11.8958 1.43235 12.68C2.22757 13.4655 3.32043 14 4.48149 14H13.6145C15.8866 14 18 12.0573 18 9.66834L17.9999 9.65853L17.904 4.32656C17.9024 3.31546 17.4337 2.24408 16.677 1.42872C15.9128 0.605211 14.8141 0 13.5185 0H4.3855ZM1.2149 9.65853L1.11901 4.32709C1.1208 3.66504 1.51277 2.85336 2.16961 2.18794C2.82605 1.52293 3.6471 1.10526 4.3855 1.10526H13.5185C14.4445 1.10526 15.2588 1.53624 15.8522 2.17557C16.4518 2.8217 16.785 3.6376 16.785 4.33166L16.7851 4.34147L16.881 9.67301C16.8782 11.4267 15.2904 12.8947 13.6145 12.8947H4.48149C3.66784 12.8947 2.8477 12.5149 2.2236 11.8985C1.5995 11.2821 1.21499 10.472 1.21499 9.66834L1.2149 9.65853Z" />
</svg>
