<svg width="16" height="16" viewBox="0 0 16 16" fill="none" xmlns="http://www.w3.org/2000/svg">
<path fill-rule="evenodd" clip-rule="evenodd" d="M8 2.96875C5.3125 2.96875 1.95312 4.14062 0 8.01562C1.825 11.5031 4.98438 13.0469 8 13.0469C11.5469 13.0469 14.3125 11.1719 16 8.01562C13.9625 4.06562 10.6875 2.96875 8 2.96875ZM11.625 8.01562C11.625 10.009 10.009 11.625 8.01562 11.625C6.02222 11.625 4.40625 10.009 4.40625 8.01562C4.40625 6.02222 6.02222 4.40625 8.01562 4.40625C10.009 4.40625 11.625 6.02222 11.625 8.01562ZM8.01562 10.4688C9.38771 10.4688 10.5 9.35646 10.5 7.98438C10.5 6.61229 9.38771 5.5 8.01562 5.5C6.64354 5.5 5.53125 6.61229 5.53125 7.98438C5.53125 9.35646 6.64354 10.4688 8.01562 10.4688Z" fill="#919EAB"/>
</svg>
