<svg xmlns="http://www.w3.org/2000/svg" width="20" height="20" viewBox="0 0 20 20" fill="none">
  <path fill-rule="evenodd" clip-rule="evenodd" d="M15.4996 2.03098C14.3897 2.18467 13.2985 2.8627 12.6821 3.78172C12.5013 4.05135 12.2344 4.6208 12.1892 4.83363L12.1569 4.98549L6.44569 4.99793L0.734473 5.01041L0.546719 5.11148C0.184915 5.30619 0.00692374 5.60577 0.00692374 6.02003C0.00692374 6.41373 0.253493 6.77636 0.627359 6.93253C0.781881 6.99708 1.45254 7.00543 6.47775 7.00543H12.1536L12.1832 7.1633C12.1995 7.25009 12.3042 7.50888 12.416 7.73833C13.5424 10.0509 16.4499 10.7195 18.5043 9.13851C19.0944 8.68444 19.6437 7.85935 19.8632 7.09749C20.0911 6.3061 20.0299 5.24414 19.7123 4.48044C19.4096 3.75247 18.7301 2.95517 18.0951 2.58302C17.3146 2.12557 16.3295 1.91602 15.4996 2.03098ZM16.4974 4.07135C16.893 4.17438 17.1268 4.30944 17.4222 4.60554C18.19 5.37515 18.2085 6.57014 17.4648 7.35656C17.0521 7.79302 16.5956 7.99121 16.003 7.99121C15.4332 7.99121 14.9499 7.77528 14.5429 7.33891C13.8469 6.59268 13.842 5.43575 14.5314 4.67281C15.0312 4.11974 15.7909 3.88734 16.4974 4.07135ZM3.26916 10.0802C2.60709 10.2054 2.0351 10.4678 1.50323 10.8905C-0.113051 12.175 -0.477296 14.4805 0.661296 16.2196C1.01202 16.7554 1.59209 17.27 2.17305 17.5609C2.85145 17.9004 3.2648 18 3.99671 18C4.72168 18 5.13474 17.9017 5.8115 17.5681C6.58425 17.1872 7.26308 16.4833 7.63033 15.6821C7.71721 15.4926 7.80278 15.2693 7.82052 15.1858L7.85282 15.0339L13.564 15.0215L19.2753 15.009L19.4844 14.8916C19.7988 14.7152 19.9707 14.4403 19.9939 14.077C20.0151 13.7431 19.9254 13.5096 19.6903 13.2864C19.3864 12.998 19.7477 13.014 13.532 13.014H7.85615L7.82653 12.8561C7.77448 12.5787 7.39958 11.8753 7.10898 11.5099C6.20424 10.3722 4.696 9.81062 3.26916 10.0802ZM4.56317 12.1037C4.92103 12.2098 5.16689 12.365 5.44852 12.6628C6.19551 13.4527 6.17387 14.6441 5.39844 15.4213C4.61001 16.2116 3.38186 16.2071 2.58541 15.411C1.98764 14.8135 1.83523 13.9503 2.18943 13.168C2.31349 12.894 2.66379 12.4944 2.92491 12.3288C3.37609 12.0428 4.0467 11.9507 4.56317 12.1037Z" fill="white"/>
</svg>