<svg xmlns="http://www.w3.org/2000/svg" width="21" height="20" viewBox="0 0 21 20" fill="none">
  <path d="M20.2875 10.2257C20.2875 9.56732 20.2292 8.94232 20.1292 8.33398H10.7125V12.0923H16.1042C15.8625 13.3257 15.1542 14.3673 14.1042 15.0757V17.5757H17.3208C19.2042 15.834 20.2875 13.2673 20.2875 10.2257Z" fill="#454F5B"/>
  <path d="M10.7125 19.9999C13.4125 19.9999 15.6708 19.0999 17.3208 17.5749L14.1042 15.0749C13.2042 15.6749 12.0625 16.0415 10.7125 16.0415C8.10416 16.0415 5.89583 14.2832 5.10416 11.9082H1.78749V14.4832C3.42916 17.7499 6.80416 19.9999 10.7125 19.9999Z" fill="#454F5B"/>
  <path d="M5.10416 11.9092C4.89583 11.3092 4.78749 10.6676 4.78749 10.0009C4.78749 9.33424 4.90416 8.69258 5.10416 8.09258V5.51758H1.78749C1.10416 6.86758 0.712494 8.38424 0.712494 10.0009C0.712494 11.6176 1.10416 13.1342 1.78749 14.4842L5.10416 11.9092Z" fill="#454F5B"/>
  <path d="M10.7125 3.95833C12.1875 3.95833 13.5042 4.46667 14.5458 5.45834L17.3958 2.60833C15.6708 0.991668 13.4125 0 10.7125 0C6.80416 0 3.42916 2.25 1.78749 5.51667L5.10416 8.09167C5.89583 5.71667 8.10416 3.95833 10.7125 3.95833Z" fill="#454F5B"/>
</svg>