<svg width="12" height="12" viewBox="0 0 12 12" fill="none" xmlns="http://www.w3.org/2000/svg">
<path fill-rule="evenodd" clip-rule="evenodd" d="M0.988271 0.435057C0.916216 0.447192 0.801307 0.493166 0.736204 0.535894C0.591891 0.630621 0.490069 0.771687 0.444553 0.939973C0.428985 0.997538 0.428467 1.06296 0.428467 2.96249V4.92552L0.447672 4.9918C0.518962 5.23775 0.70273 5.41534 0.946843 5.47414C1.01296 5.49007 1.0683 5.49052 2.95661 5.49043C5.05788 5.49033 4.94653 5.49272 5.06381 5.44534C5.15267 5.40945 5.21015 5.37009 5.28931 5.29093C5.36846 5.21177 5.40783 5.15429 5.44371 5.06544C5.49109 4.94816 5.4887 5.05951 5.4888 2.95824C5.48889 1.03755 5.4887 1.01567 5.47167 0.944222C5.41635 0.712074 5.23528 0.523912 4.9959 0.449776L4.93239 0.43012L2.98211 0.428922C1.90945 0.428259 1.01223 0.431029 0.988271 0.435057ZM7.04839 0.439884C6.87252 0.477674 6.71303 0.587332 6.61711 0.736404C6.56788 0.812902 6.54545 0.864714 6.52527 0.94847C6.50933 1.01459 6.50888 1.06972 6.50897 2.95824C6.50907 5.05951 6.50668 4.94816 6.55406 5.06544C6.58995 5.15429 6.62931 5.21177 6.70847 5.29093C6.78763 5.37009 6.84511 5.40945 6.93396 5.44534C7.05124 5.49272 6.93989 5.49033 9.04116 5.49043C10.9356 5.49052 10.9846 5.49012 11.0519 5.47399C11.2939 5.41596 11.4791 5.2367 11.5501 4.9918L11.5693 4.92552V2.95824C11.5693 1.07863 11.5686 0.988521 11.5538 0.936216C11.4864 0.698596 11.3177 0.527039 11.0744 0.448696L11.0169 0.430179L9.0624 0.428641C7.35068 0.427299 7.10048 0.428692 7.04839 0.439884ZM0.943826 6.52699C0.866282 6.54603 0.741693 6.60757 0.67727 6.65866C0.574844 6.73989 0.486797 6.87405 0.448012 7.00801L0.428467 7.07551V9.04279C0.428467 11.2536 0.422212 11.0433 0.492295 11.1892C0.578354 11.3684 0.74245 11.503 0.938345 11.5551C0.995545 11.5703 1.07328 11.5709 2.96086 11.5709H4.92389L4.99017 11.5517C5.23613 11.4804 5.41371 11.2967 5.47251 11.0526C5.48844 10.9864 5.48889 10.9311 5.4888 9.04279C5.4887 6.94152 5.49109 7.05287 5.44371 6.93559C5.37778 6.77235 5.23584 6.62811 5.0754 6.56132C4.94587 6.50739 5.08328 6.51064 2.95236 6.51117C1.10565 6.51162 1.00314 6.51242 0.943826 6.52699ZM7.03912 6.523C6.82825 6.56888 6.63619 6.73225 6.55406 6.93559C6.50668 7.05287 6.50907 6.94152 6.50897 9.04279C6.50888 10.9372 6.50928 10.9863 6.52541 11.0535C6.58344 11.2955 6.7627 11.4807 7.0076 11.5517L7.07388 11.5709H9.04116C11.2519 11.5709 11.0416 11.5772 11.1876 11.5071C11.3668 11.421 11.5014 11.257 11.5535 11.0611C11.5687 11.0039 11.5693 10.9261 11.5693 9.03854V7.07551L11.5498 7.00801C11.4809 6.7702 11.2884 6.58373 11.0536 6.52744C10.9841 6.51077 10.9522 6.51052 9.03691 6.51113C7.4547 6.51162 7.0812 6.51385 7.03912 6.523Z" />
</svg>
