<svg width="32" height="32" viewBox="0 0 32 32" fill="none" xmlns="http://www.w3.org/2000/svg">
<path d="M13.9501 23.1791C14.8913 23.9726 15.5544 24 16.0178 24C16.7023 24 17.4439 23.7264 18.0856 23.1791L21.6863 20.0322C23.1123 18.7461 26 15.9618 26 12.7123C26 9.29175 23.1123 7 19.975 7C18.4421 7 16.9804 7.58149 16.0178 8.40241C15.0766 7.63622 13.7005 7 11.9537 7C8.92335 7 6 9.15493 6 12.7123C6 16.2569 9.57492 19.36 10.3412 20.0251L10.3494 20.0322C10.9483 20.5521 12.9994 22.3467 13.9501 23.1791Z" stroke="#454F5B" stroke-width="1.6"/>
</svg>
