<svg xmlns="http://www.w3.org/2000/svg" width="25" height="24" viewBox="0 0 25 24" fill="none">
  <path d="M20.2824 5.36474C19.3247 4.32348 18.0107 3.75 16.582 3.75C15.5141 3.75 14.5361 4.08846 13.6752 4.75589C13.2407 5.09279 12.8471 5.50496 12.5 5.98604C12.1531 5.5051 11.7593 5.09279 11.3247 4.75589C10.4639 4.08846 9.48587 3.75 8.41798 3.75C6.98932 3.75 5.67513 4.32348 4.71747 5.36474C3.77124 6.39383 3.25 7.79973 3.25 9.32362C3.25 10.8921 3.83307 12.3278 5.08487 13.8421C6.2047 15.1967 7.81417 16.5717 9.67797 18.1639C10.3144 18.7077 11.0358 19.3241 11.7848 19.9806C11.9827 20.1544 12.2366 20.25 12.5 20.25C12.7632 20.25 13.0173 20.1544 13.2149 19.9809C13.9639 19.3242 14.6858 18.7076 15.3225 18.1635C17.186 16.5716 18.7954 15.1967 19.9153 13.842C21.1671 12.3278 21.75 10.8921 21.75 9.32348C21.75 7.79973 21.2288 6.39383 20.2824 5.36474Z" />
</svg>