<svg xmlns="http://www.w3.org/2000/svg" width="25" height="24" viewBox="0 0 25 24" fill="none">
  <path d="M16.3006 17.8825L18.7931 20.3812L19.84 19.3317L4.0469 3.5L3 4.54956L4.75692 6.30949C4.09728 7.25575 3.73997 8.43134 3.73997 9.68803C3.73997 11.2401 4.31547 12.6608 5.55104 14.1592C6.65635 15.4996 8.24494 16.8602 10.0846 18.4358L10.0859 18.4369C10.7137 18.9747 11.4254 19.5843 12.1641 20.2334C12.3594 20.4054 12.61 20.5 12.87 20.5C13.1298 20.5 13.3806 20.4054 13.5756 20.2337C14.3089 19.5892 15.0157 18.9837 15.6404 18.4486L15.6558 18.4354C15.8744 18.2482 16.0896 18.0639 16.3006 17.8825Z" />
  <path d="M20.1891 14.1591C19.7163 14.7324 19.1551 15.3094 18.5238 15.9054L7.12033 4.47304C7.66112 4.27553 8.24079 4.17275 8.84092 4.17275C9.89496 4.17275 10.8603 4.50766 11.7099 5.16811C12.1389 5.50148 12.5276 5.90948 12.87 6.38539C13.2126 5.90934 13.6011 5.50148 14.0299 5.16811C14.8797 4.50766 15.845 4.17275 16.8991 4.17275C18.3092 4.17275 19.6062 4.74022 20.5514 5.77058C21.4855 6.7889 22 8.18008 22 9.68789C22 11.2401 21.4246 12.6608 20.1891 14.1591Z" />
</svg>