<svg width="80" height="80" viewBox="0 0 80 80" fill="none" xmlns="http://www.w3.org/2000/svg">
<path d="M38.5862 37.792C34.2414 33.0981 25 24.2625 25 15.9791C25 7.69573 31.7241 1 40.1724 1C48.1379 1 55 7.6267 55 15.9791C55 22.8474 48.3448 30.6069 41.4138 37.792C40.6414 38.5927 40.4483 39 39.9655 39C39.5862 39 39.069 38.3135 38.5862 37.792Z" fill="white"/>
<path d="M40 34C41.1046 34 42 33.1046 42 32C42 30.8954 41.1046 30 40 30C38.8954 30 38 30.8954 38 32C38 33.1046 38.8954 34 40 34Z" fill="#3FD626"/>
</svg>
