<svg xmlns="http://www.w3.org/2000/svg" width="23" height="22" viewBox="0 0 23 22" fill="none">
  <path d="M11.0913 8.9989L8.70489 11.1957C8.46638 10.8849 8.46608 10.6427 8.46608 10.4036C8.04846 9.94031 7.27287 9.28277 6.84032 9.05861C6.49486 8.87957 6.34812 8.99883 6.45253 9.14827C6.64643 9.41727 6.48236 9.85065 6.25864 10.0748L5.31898 11.0163C5.03559 11.3002 4.55847 11.4198 4.15576 11.0163L2.57475 9.43221C2.21678 9.07355 2.2912 8.59537 2.57475 8.3114L3.5144 7.36993C3.75305 7.13082 3.9022 7.10093 4.15576 7.10093C4.31087 7.10093 4.43488 6.93655 4.45406 6.75722C4.49881 6.33878 5.02873 5.84563 5.78151 5.18809C6.71222 4.37513 8.07845 3.5293 9.73404 3.5293C11.3896 3.5293 12.2994 4.66505 12.2994 5.05359C12.2994 5.36742 12.0906 5.63641 11.7476 5.63641C11.6487 5.63641 11.5678 5.61077 11.473 5.58073C11.3389 5.53825 11.177 5.48697 10.8974 5.48697C10.4201 5.48697 9.80861 5.69619 9.48048 6.08474C9.15235 6.47328 9.13743 6.95149 9.31641 7.26532C9.4596 7.51638 10.0423 8.31643 10.3157 8.68507C10.6737 8.67312 10.972 8.86434 11.0913 8.9989Z" fill="white"/>
  <path d="M18.0267 4.79954L16.2071 6.62272C16.0281 6.80205 16.0579 7.0561 16.2071 7.20554L16.9528 7.95275C17.1467 8.14702 17.4003 8.17691 17.624 7.95275L19.3393 6.23418C19.5421 6.03094 19.6525 5.99507 19.8315 5.99507C20.2789 5.99507 20.6667 6.63767 20.6667 7.80331C20.6667 9.64143 19.4287 11.6439 16.9827 11.6439C16.2027 11.6439 15.7115 11.5142 15.5009 11.4586C15.4538 11.4462 15.4207 11.4375 15.4016 11.4347C15.2972 11.4198 15.1928 11.4796 15.0288 11.6439C14.8752 11.8064 14.403 12.315 13.7868 12.9786L13.7868 12.9786C12.249 14.6348 9.81452 17.2568 9.19693 17.8756C8.33184 18.7424 7.06405 18.5929 6.34812 17.8756C5.6322 17.1583 5.42338 15.8133 6.45253 14.8719C7.27585 14.1187 10.8823 10.7622 12.5827 9.17816C12.7139 9.04665 12.7617 8.98389 12.7617 8.86434C12.7617 8.81416 12.7394 8.73197 12.7085 8.61777C12.6382 8.35778 12.523 7.93186 12.523 7.34004C12.523 4.72482 14.5067 3.54424 16.3115 3.54424C16.7589 3.54424 17.2064 3.58907 17.7284 3.78335C18.2504 3.97762 18.325 4.50066 18.0267 4.79954Z" fill="white"/>
  <path d="M12.9705 15.5593L15.3271 13.0188C16.0082 13.6215 17.4898 14.9346 17.9671 15.365C18.5637 15.903 18.3549 16.6502 18.1013 16.9043L16.8037 18.2044C16.4457 18.563 15.7298 18.5332 15.4016 18.2044C15.1391 17.9414 13.6715 16.3314 12.9705 15.5593Z" fill="white"/>
</svg>