<svg width="12" height="12" viewBox="0 0 12 12" fill="none" xmlns="http://www.w3.org/2000/svg">
<path fill-rule="evenodd" clip-rule="evenodd" d="M0.967989 0.440757C0.794773 0.477857 0.640709 0.581792 0.541811 0.728274C0.496866 0.794837 0.484478 0.819636 0.456228 0.899613L0.432718 0.966151L0.430382 1.92023C0.428088 2.85766 0.428351 2.8756 0.445514 2.94785C0.508761 3.21412 0.729708 3.41565 1.00622 3.45926C1.04349 3.46514 2.66719 3.468 5.99885 3.46804C11.44 3.46812 11.0125 3.47242 11.1476 3.41619C11.3528 3.33077 11.4941 3.16786 11.5523 2.94957L11.5714 2.87766V1.94739V1.01712L11.5523 0.945218C11.4867 0.699066 11.3106 0.519987 11.0617 0.446067C11.013 0.431624 10.7796 0.430859 6.01908 0.429475C1.61147 0.428192 1.0205 0.429509 0.967989 0.440757ZM0.980733 4.49182C0.714143 4.54584 0.507121 4.742 0.445514 4.99893C0.429141 5.06722 0.428589 5.10003 0.428589 5.9998C0.428589 6.89206 0.42926 6.93288 0.445114 6.999C0.50385 7.24394 0.686071 7.4293 0.938252 7.50064C0.991583 7.51573 1.16516 7.51627 5.99359 7.51627C10.1918 7.51627 11.0012 7.5144 11.0404 7.50466C11.297 7.44094 11.4843 7.25698 11.5523 7.00198L11.5714 6.93007V5.9998V5.06953L11.5523 4.99762C11.4873 4.75386 11.3176 4.5786 11.073 4.50266L11.0107 4.48333L6.02332 4.48198C1.92721 4.48087 1.02609 4.48263 0.980733 4.49182ZM0.984982 8.54401C0.867443 8.56584 0.762317 8.61576 0.665773 8.69558C0.594132 8.75481 0.537147 8.83042 0.491683 8.92654C0.424587 9.0684 0.427603 9.01175 0.43039 10.0777C0.433168 11.1401 0.428139 11.056 0.497358 11.1964C0.578847 11.3616 0.734577 11.4911 0.921488 11.549L0.984982 11.5687L5.9596 11.5712C9.69734 11.5731 10.9501 11.5713 10.9979 11.5639C11.2671 11.5224 11.4796 11.327 11.5523 11.0544L11.5714 10.9825V10.0522V9.12193L11.5524 9.04972C11.5144 8.90548 11.4324 8.7772 11.3191 8.68459C11.2587 8.63525 11.1399 8.57477 11.0574 8.5514C11.0041 8.53627 10.8325 8.5357 6.02332 8.53435C1.96992 8.53323 1.0334 8.53502 0.984982 8.54401Z" />
</svg>
