<svg xmlns="http://www.w3.org/2000/svg" width="20" height="21" viewBox="0 0 20 21" fill="none">
  <path fill-rule="evenodd" clip-rule="evenodd" d="M7.27539 2.49414H10.7207C11.1953 2.49414 11.5117 2.86328 11.5117 3.28516V5.5C11.5117 5.92188 11.8809 6.23828 12.25 6.23828C12.7422 6.23828 12.9883 5.8375 12.9883 5.5V3.16211C12.9883 2.07227 11.9512 1 10.8262 1H2.61719C1.61523 1 1 1.70312 1 2.61719V15.9238C1 16.75 1.52383 17.2316 2.00195 17.4004L6.0625 18.7715C6.11792 18.789 6.17285 18.807 6.22729 18.8248C6.501 18.9144 6.76247 19 7.01172 19C7.78516 19 8.48828 18.3496 8.48828 17.5059V16.75H10.7031C11.9336 16.75 12.9883 15.8008 12.9883 14.4648V11.5117C12.9883 11.1074 12.6895 10.7734 12.25 10.7734C11.8105 10.7734 11.5117 11.1426 11.5117 11.5117V14.4648C11.5117 14.8867 11.1672 15.2734 10.7031 15.2734H8.48828V4.00586C8.48828 3.12695 7.92227 2.74727 7.27539 2.49414ZM14.5 7.75H11.5117C11.0898 7.75 10.7734 8.10156 10.7734 8.48828C10.7734 8.83984 11.0477 9.22656 11.5117 9.22656H14.5V11.5117C14.5 11.9512 14.943 12.25 15.2383 12.25C15.5557 12.25 15.7536 12.0446 15.9727 11.8172C16.0084 11.7801 16.0446 11.7425 16.082 11.7051L18.666 9.12109C18.8418 8.94531 18.9824 8.73438 18.9824 8.50586C18.9824 8.3125 18.9051 8.11211 18.666 7.87305L16.082 5.27148C15.748 4.91992 15.5195 4.76172 15.2559 4.76172C14.7812 4.76172 14.5 5.12383 14.5 5.51758V7.75Z" fill="#454F5B"/>
</svg>