<svg xmlns="http://www.w3.org/2000/svg" width="24" height="24" viewBox="0 0 24 24" fill="none">
  <path fill-rule="evenodd" clip-rule="evenodd" d="M10.125 21.1875C14.0859 21.1875 17.2969 17.9765 17.2969 14.0156C17.2969 10.0547 14.0859 6.84375 10.125 6.84375C6.16408 6.84375 2.95312 10.0547 2.95312 14.0156C2.95312 17.9765 6.16408 21.1875 10.125 21.1875ZM10.125 19.1719C12.9727 19.1719 15.2812 16.8633 15.2812 14.0156C15.2812 11.1679 12.9727 8.85938 10.125 8.85938C7.27728 8.85938 4.96875 11.1679 4.96875 14.0156C4.96875 16.8633 7.27728 19.1719 10.125 19.1719Z" fill="#161C24"/>
  <path d="M17.7188 4.6875L14.2031 8.20312L15.6797 9.58594L19.1719 6.11719V9.32812H21.0938V2.76562H14.5312V4.6875H17.7188Z" fill="#161C24"/>
</svg>