<svg xmlns="http://www.w3.org/2000/svg" width="24" height="24" viewBox="0 0 24 24" fill="none">
<path fill-rule="evenodd" clip-rule="evenodd" d="M10.2836 21.7516C10.597 22.0827 10.8892 22.3915 11.1517 22.6751C11.2073 22.7351 11.2636 22.7987 11.32 22.8625C11.5574 23.1308 11.7954 23.3999 11.9793 23.3999C12.1937 23.3999 12.3129 23.266 12.5482 23.0016C12.6309 22.9088 12.7278 22.7999 12.8483 22.6751C17.0069 18.364 21 13.7083 21 9.58732C21 4.57587 16.8828 0.599854 12.1034 0.599854C7.03448 0.599854 3 4.61729 3 9.58732C3 14.0569 7.48444 18.7945 10.2836 21.7516ZM12.0413 13.9154C14.4295 13.9154 16.3655 11.9776 16.3655 9.58729C16.3655 7.19697 14.4295 5.25923 12.0413 5.25923C9.65318 5.25923 7.7172 7.19697 7.7172 9.58729C7.7172 11.9776 9.65318 13.9154 12.0413 13.9154Z" fill="#265DE9"/>
</svg>