<svg width="20" height="16" viewBox="0 0 20 16" fill="none" xmlns="http://www.w3.org/2000/svg">
<path d="M11.7038 0.5H8.29753C7.16166 0.499994 6.2583 0.499989 5.52947 0.559536C4.78314 0.620514 4.14675 0.748064 3.56404 1.04497C2.74627 1.46164 2.06141 2.09405 1.58145 2.87019C1.46797 3.05369 1.53304 3.29042 1.71506 3.40625L6.86887 6.68595C8.21856 7.54485 8.72722 7.855 9.25146 7.97592C9.74445 8.08963 10.2568 8.08963 10.7498 7.97592C11.2741 7.855 11.7827 7.54485 13.1324 6.68595L18.2863 3.40624C18.4683 3.29041 18.5333 3.05368 18.4199 2.87018C17.9399 2.09404 17.255 1.46164 16.4373 1.04497C15.8546 0.748064 15.2182 0.620514 14.4718 0.559536C13.743 0.499989 12.8397 0.499994 11.7038 0.5Z" fill="#919EAB"/>
<path d="M19.1238 5.42094C19.1078 5.16993 18.8296 5.036 18.6174 5.17103L13.8942 8.17671C12.7257 8.92082 11.9628 9.40657 11.1244 9.59995C10.3849 9.77051 9.61635 9.77051 8.87687 9.59995C8.03847 9.40656 7.27563 8.92082 6.10704 8.1767L1.3839 5.17103C1.17172 5.03601 0.893524 5.16993 0.877557 5.42092C0.833885 6.10738 0.833932 6.91826 0.833988 7.8934L0.833992 8.03646C0.833984 9.17234 0.83398 10.0757 0.893528 10.8045C0.954506 11.5509 1.08206 12.1872 1.37896 12.77C1.85833 13.7108 2.62323 14.4757 3.56404 14.955C4.14675 15.2519 4.78314 15.3795 5.52947 15.4405C6.25828 15.5 7.1616 15.5 8.29743 15.5H11.7038C12.8396 15.5 13.743 15.5 14.4718 15.4405C15.2182 15.3795 15.8546 15.2519 16.4373 14.955C17.3781 14.4757 18.143 13.7108 18.6224 12.77C18.9193 12.1872 19.0468 11.5509 19.1078 10.8045C19.1673 10.0757 19.1673 9.17239 19.1673 8.03656L19.1673 7.89339C19.1674 6.91826 19.1674 6.10739 19.1238 5.42094Z" fill="#919EAB"/>
</svg>
