<svg width="24" height="20" viewBox="0 0 24 20" fill="none" xmlns="http://www.w3.org/2000/svg">
<path d="M12 16.9999C12.714 16.9999 13.37 17.2499 13.886 17.6659L12 19.9999L10.114 17.6659C10.6474 17.2338 11.3135 16.9986 12 16.9999ZM2.808 0.392944L20.485 18.0709L19.071 19.4849L13.891 14.3049C13.2811 14.1026 12.6426 13.9996 12 13.9999C10.572 13.9999 9.25999 14.4989 8.22999 15.3319L6.974 13.7759C8.28805 12.7114 9.90689 12.0929 11.596 12.0099L9 9.41394C7.57216 9.81867 6.24131 10.5089 5.088 11.4429L3.83 9.88694C4.9078 9.01416 6.11847 8.31969 7.416 7.82994L5.132 5.54494C3.99509 6.08635 2.92603 6.76001 1.947 7.55194L0.688995 5.99694C1.604 5.25694 2.592 4.60594 3.641 4.05494L1.393 1.80794L2.808 0.392944ZM14.5 9.28494L12.216 7.00194L12 6.99994C15.095 6.99994 17.937 8.08095 20.17 9.88694L18.912 11.4429C17.6235 10.3991 16.115 9.66125 14.5 9.28494ZM12 1.99994C16.285 1.99994 20.22 3.49694 23.31 5.99694L22.053 7.55194C19.2093 5.24859 15.6595 3.99433 12 3.99994C11.122 3.99994 10.26 4.06994 9.42 4.20694L7.725 2.50994C9.094 2.17694 10.527 1.99994 12 1.99994Z"/>
</svg>
