<svg xmlns="http://www.w3.org/2000/svg" width="20" height="20" viewBox="0 0 20 20" fill="none">
  <path fill-rule="evenodd" clip-rule="evenodd" d="M9.68956 1.04269C9.49199 1.10212 5.75602 4.81915 5.6423 5.06943C5.37688 5.65343 5.80777 6.34787 6.44332 6.36041C6.8404 6.36825 6.86873 6.34748 8.01082 5.21133L9.06852 4.15914V9.31608C9.06852 13.2516 9.0797 14.5109 9.11572 14.6328C9.17872 14.846 9.50026 15.1675 9.71347 15.2305C10.084 15.34 10.4196 15.248 10.6715 14.9677C10.7638 14.865 10.8601 14.7117 10.8855 14.627C10.9201 14.5114 10.9316 13.1878 10.9316 9.31608V4.15914L11.9893 5.21133C13.1314 6.34748 13.1598 6.36825 13.5568 6.36041C14.1962 6.34779 14.6241 5.65332 14.3553 5.06438C14.2982 4.93924 13.7807 4.39894 12.3816 3.00366C10.798 1.42444 10.4572 1.10282 10.3154 1.05321C10.1236 0.98618 9.89031 0.98226 9.68956 1.04269ZM1.61607 9.11809C1.41326 9.18202 1.09801 9.51528 1.03983 9.72721C1.00287 9.86182 0.994451 10.8094 1.00315 13.861L1.01444 17.8201L1.13729 18.0794C1.30823 18.4403 1.52827 18.665 1.88156 18.8396L2.17485 18.9846H10.0001H17.8253L18.1186 18.8396C18.4719 18.665 18.6919 18.4403 18.8629 18.0794L18.9857 17.8201L18.997 13.861C19.0054 10.8979 18.9967 9.85988 18.9623 9.73485C18.8973 9.4989 18.6243 9.20682 18.3961 9.12907C18.0199 9.00087 17.7163 9.07267 17.4318 9.35715C17.3087 9.48027 17.2189 9.61166 17.1892 9.7123C17.1536 9.83275 17.142 10.7664 17.142 13.5065V17.1408H10.0001H2.85815V13.5065C2.85815 10.811 2.84623 9.83228 2.812 9.71805C2.74438 9.49234 2.46872 9.20391 2.24914 9.12907C2.04401 9.05917 1.81558 9.05521 1.61607 9.11809Z" fill="#454F5B"/>
</svg>