<svg xmlns="http://www.w3.org/2000/svg" width="24" height="24" viewBox="0 0 24 24" fill="none">
  <path fill-rule="evenodd" clip-rule="evenodd" d="M12.0171 17.2748C15.7314 17.2748 18.7424 14.2638 18.7424 10.5495C18.7424 6.83523 15.7314 3.82422 12.0171 3.82422C8.30288 3.82422 5.29187 6.83523 5.29187 10.5495C5.29187 14.2638 8.30288 17.2748 12.0171 17.2748ZM12.0172 15.3847C14.6875 15.3847 16.8523 13.2199 16.8523 10.5495C16.8523 7.8791 14.6875 5.71432 12.0172 5.71432C9.34677 5.71432 7.18199 7.8791 7.18199 10.5495C7.18199 13.2199 9.34677 15.3847 12.0172 15.3847Z" fill="#161C24"/>
  <path d="M19.138 1.8022L15.8413 5.0989L17.226 6.3956L20.5007 3.14286V6.15385H22.3029V0H16.149V1.8022H19.138Z" fill="#161C24"/>
  <path d="M7.62157 4.57143L8.14904 5.0989L6.83036 6.46154L6.25893 5.89011L4.89629 7.2967L3.53365 5.93407L4.94025 4.59341L3.4897 3.12088V4.54945H1.6875V0H6.25893V1.8022H4.85233L6.25893 3.23077L7.64354 1.84615L9.00618 3.18681L7.62157 4.57143Z" fill="#161C24"/>
  <path d="M11.0061 19.5602V17.1426H13.0281V19.5602H15.6655V21.5821H13.0281V23.9997H10.9842V21.5821H8.32483V19.5602H11.0061Z" fill="#161C24"/>
</svg>