<svg xmlns="http://www.w3.org/2000/svg" width="20" height="20" viewBox="0 0 20 20" fill="none">
  <g clip-path="url(#clip0_1_8135)">
    <path d="M5 18.924C7.98489 20.6474 11.8143 19.6213 13.5377 16.6364L17.9127 9.05864C18.1431 8.65956 18.0059 8.15031 17.6077 7.92036C17.2092 7.69033 16.6996 7.82621 16.4692 8.22528L12.0942 15.803C10.8309 17.9912 8.02221 18.7443 5.83336 17.4806C3.64451 16.2169 2.89241 13.4079 4.15576 11.2197L8.73912 3.28111C9.54326 1.88831 11.3304 1.40944 12.7232 2.21358C14.1162 3.01779 14.595 4.80495 13.7909 6.19775L9.62417 13.4147C9.27963 14.0115 8.51354 14.2169 7.91664 13.8723C7.31974 13.5276 7.11457 12.7615 7.45911 12.1647L11.4175 5.30864C11.6479 4.90956 11.5108 4.40031 11.1125 4.17036C10.714 3.94033 10.2045 4.07621 9.97405 4.47528L6.01569 11.3314C5.21155 12.7242 5.69055 14.5114 7.08336 15.3155C8.47617 16.1197 10.2635 15.6409 11.0676 14.2481L15.2343 7.03111C16.4976 4.84306 15.7456 2.03397 13.5566 0.770157C11.3677 -0.493576 8.55898 0.259698 7.2957 2.44775L2.71234 10.3864C0.989014 13.3713 2.01511 17.2007 5 18.924Z" fill="#919EAB"/>
  </g>
  <defs>
    <clipPath id="clip0_1_8135">
      <rect width="20" height="20" fill="white"/>
    </clipPath>
  </defs>
</svg>