<svg xmlns="http://www.w3.org/2000/svg" width="14" height="14" viewBox="0 0 14 14" fill="none">
<g clip-path="url(#clip0_1_2968)">
<path fill-rule="evenodd" clip-rule="evenodd" d="M10.6808 0.00800917C10.594 0.0236935 10.5132 0.0593371 10.444 0.112554C10.4238 0.128065 8.09132 2.45712 5.26075 5.28824C1.07321 9.47659 0.109559 10.443 0.0889756 10.4746C0.0574339 10.523 0.0286409 10.5893 0.0124373 10.6508L0 10.698V12.0409V13.3837L0.0143624 13.4358C0.0691211 13.6344 0.220671 13.7825 0.421656 13.8338L0.466857 13.8453H1.88841H3.30996L3.36205 13.831C3.42881 13.8126 3.50002 13.7778 3.5521 13.7383C3.57763 13.7189 5.54482 11.755 8.73971 8.55944C12.9271 4.37113 13.8909 3.40464 13.9115 3.37304C13.9431 3.32451 13.9719 3.25819 13.988 3.19681C13.9986 3.15622 14.0003 3.13784 14 3.06567C13.9996 2.99217 13.9979 2.97528 13.9857 2.92966C13.9679 2.86337 13.9334 2.79244 13.8925 2.73811C13.8678 2.70528 13.547 2.40054 12.4966 1.41189C11.7465 0.705908 11.117 0.116829 11.0978 0.102828C10.983 0.0190407 10.8221 -0.0175263 10.6808 0.00800917ZM11.7266 2.20103L12.6611 3.08055L12.0731 3.66848L11.4852 4.25642L10.5764 3.34762L9.66762 2.43883L10.2263 1.88018C10.5335 1.57291 10.7865 1.32152 10.7885 1.32152C10.7905 1.32152 11.2127 1.7173 11.7266 2.20103ZM9.79875 4.1279L10.7062 5.0354L6.85073 8.89089L2.99523 12.7464H2.04709H1.09895V11.8769V11.0075L4.99248 7.11395C7.13392 4.97251 8.8872 3.22042 8.88864 3.22042C8.89009 3.22042 9.29963 3.62879 9.79875 4.1279Z" fill="#454F5B"/>
</g>
<defs>
<clipPath id="clip0_1_2968">
<rect width="14" height="14" fill="white"/>
</clipPath>
</defs>
</svg>