<svg width="20" height="20" viewBox="0 0 20 20" fill="none" xmlns="http://www.w3.org/2000/svg">
<path fill-rule="evenodd" clip-rule="evenodd" d="M9.62298 0.00398811C8.19083 0.0802552 6.89686 0.49562 5.76361 1.24285C5.50668 1.41226 5.20876 1.639 4.96867 1.84786C4.84091 1.959 4.45433 2.34318 4.34454 2.46811C3.47788 3.45428 2.90977 4.6044 2.65228 5.89404C2.5081 6.6162 2.46359 7.40955 2.53039 8.06686C2.6024 8.77553 2.78472 9.52562 3.08925 10.3661C3.75458 12.2025 5.01588 14.4128 6.69084 16.6777C7.65274 17.9783 8.73323 19.2351 9.28064 19.69C9.58397 19.9421 9.85377 20.0358 10.139 19.988C10.4061 19.9432 10.6123 19.809 11.0028 19.4256C12.0452 18.4023 13.6525 16.3112 14.8056 14.478C14.9968 14.1741 15.0446 14.0948 15.1098 13.9733C15.1441 13.9094 15.185 13.8417 15.2006 13.8227C15.2162 13.8038 15.2654 13.7262 15.3099 13.6503C16.5389 11.5555 17.2637 9.72143 17.4502 8.23391C17.5268 7.62367 17.515 6.96881 17.4153 6.28971C17.2017 4.83534 16.6095 3.55112 15.6513 2.46428C15.54 2.33809 15.2474 2.04357 15.1103 1.91988C13.9782 0.898071 12.5599 0.255713 11 0.0582204C10.874 0.0422634 10.6901 0.024651 10.5115 0.0114378C10.3695 0.000922402 9.77428 -0.00406704 9.62298 0.00398811ZM10.4923 1.62477C11.8041 1.7317 12.9566 2.19825 13.9021 3.00512C14.9122 3.86717 15.5755 5.06107 15.8009 6.42287C15.8563 6.75719 15.8804 7.06229 15.8807 7.43072C15.8809 7.71458 15.8758 7.80573 15.846 8.04003C15.655 9.54651 14.7445 11.6045 13.2402 13.93C12.2962 15.3894 11.1022 16.9587 10.1598 17.9787C10.0751 18.0704 10.0032 18.1454 10.0001 18.1454C9.97676 18.1454 9.49264 17.6052 9.16206 17.2103C8.13409 15.9824 7.09551 14.5306 6.27426 13.1737C5.03087 11.1193 4.29699 9.328 4.14588 7.97872C4.09641 7.53691 4.10807 7.05787 4.18076 6.5455C4.33242 5.47649 4.76809 4.47831 5.43019 3.6829C6.38666 2.53384 7.74914 1.81551 9.29602 1.64474C9.4166 1.63143 9.5603 1.6203 9.73838 1.61048C9.85678 1.60395 10.3521 1.61334 10.4923 1.62477ZM9.56913 4.25472C9.25949 4.28167 9.03733 4.32332 8.79213 4.40042C7.87213 4.68965 7.12087 5.38716 6.76654 6.28108C6.65412 6.56467 6.58629 6.84203 6.5519 7.15864C6.53681 7.29747 6.53927 7.67443 6.5562 7.81777C6.62259 8.38014 6.81316 8.88024 7.13164 9.32788C7.43992 9.76117 7.839 10.1034 8.31516 10.3428C8.67151 10.5219 9.04203 10.6295 9.45758 10.6742C9.59693 10.6893 9.97531 10.6868 10.1192 10.67C10.6837 10.6038 11.1856 10.414 11.635 10.0967C12.0699 9.78956 12.4134 9.39196 12.6537 8.91759C12.8335 8.56257 12.9414 8.19344 12.9864 7.77945C13.0015 7.64062 12.999 7.26366 12.9821 7.12032C12.9157 6.55795 12.7251 6.05785 12.4067 5.61021C12.0984 5.17692 11.6993 4.83469 11.2231 4.5953C10.8767 4.42113 10.5205 4.31541 10.1229 4.26878C10.0247 4.25727 9.64934 4.24774 9.56913 4.25472ZM10.0384 5.88279C10.3905 5.94353 10.6863 6.10106 10.9387 6.36234C11.0634 6.49147 11.1396 6.60158 11.2229 6.77301C11.2858 6.90273 11.3237 7.01257 11.3498 7.14135C11.4484 7.62851 11.3255 8.12135 11.0125 8.49409C10.9471 8.57197 10.8242 8.69176 10.7577 8.74238C10.6259 8.84275 10.4287 8.94701 10.275 8.99758C9.75059 9.17016 9.16159 9.05893 8.74025 8.70776C8.66208 8.6426 8.54183 8.52012 8.49103 8.4539C8.39028 8.32259 8.28563 8.12613 8.23487 7.97302C8.06164 7.45056 8.17328 6.86376 8.52578 6.444C8.68249 6.25738 8.85073 6.12666 9.0705 6.02077C9.24116 5.93854 9.4134 5.88881 9.60029 5.8678C9.70489 5.85605 9.92753 5.86366 10.0384 5.88279Z" />
</svg>
