<svg xmlns="http://www.w3.org/2000/svg" width="18" height="18" viewBox="0 0 18 18" fill="none">
  <g clip-path="url(#clip0_1_6128)">
    <path fill-rule="evenodd" clip-rule="evenodd" d="M8.6487 0.00208072C8.05226 0.0345397 7.65257 0.0836728 7.16606 0.18434C5.11713 0.608299 3.27101 1.74495 1.9582 3.39083C1.3031 4.21212 0.795457 5.14205 0.466209 6.12394C0.211507 6.8835 0.0714686 7.59418 0.0114638 8.43164C0.00458907 8.52761 0 8.75553 0 9.00078C0 9.58109 0.0310118 9.96714 0.120703 10.5035C0.665371 13.7604 2.98861 16.4816 6.12294 17.5338C6.88091 17.7883 7.59301 17.9286 8.43081 17.9886C8.64255 18.0038 9.35745 18.0038 9.56919 17.9886C11.0482 17.8827 12.3681 17.4748 13.598 16.7436C16.0558 15.2823 17.6768 12.7403 17.9598 9.90341C17.9932 9.56849 18 9.41535 18 9.00078C18 8.58556 17.9931 8.43126 17.9597 8.09816C17.728 5.79216 16.6277 3.68616 14.8594 2.16438C14.2958 1.67939 13.6151 1.23159 12.9487 0.907544C11.8834 0.389436 10.8036 0.102517 9.58697 0.0142462C9.45682 0.00480194 8.76383 -0.00417986 8.6487 0.00208072ZM9.56414 1.41755L9.62135 1.42406L9.44382 1.57166C8.65863 2.22453 8.24505 2.7435 8.11923 3.23384C8.09707 3.32016 8.09569 3.3361 8.10061 3.44719C8.11037 3.66737 8.14648 3.83732 8.26538 4.22276C8.41448 4.70612 8.4627 4.93916 8.48932 5.30509C8.50233 5.48381 8.49525 5.82926 8.47565 5.97276C8.39948 6.53032 8.19041 7.0601 7.83518 7.59571C7.47772 8.13469 6.97268 8.65886 6.50091 8.98055C6.35442 9.08045 6.37791 9.07864 6.27686 8.9977C6.22888 8.95926 6.12961 8.87675 6.05623 8.81432C5.54303 8.37765 5.15245 8.18267 4.6555 8.11504C4.5325 8.09831 4.27341 8.10049 4.14429 8.11935C4.00121 8.14025 3.77486 8.1867 3.31953 8.28863C2.65381 8.43766 2.28179 8.49831 2.03321 8.49833C1.95573 8.49834 1.48419 8.4591 1.43714 8.44874C1.4164 8.44416 1.41613 8.44283 1.42201 8.37117C1.53842 6.9508 2.05206 5.59641 2.90829 4.45208C3.99119 3.00481 5.54058 1.99414 7.29688 1.5894C7.67781 1.50161 8.10416 1.43991 8.52864 1.41113C8.65801 1.40236 9.47516 1.40743 9.56414 1.41755ZM11.8281 1.94135C13.5956 2.64567 15.0626 4.0275 15.8768 5.75489C16.2981 6.64889 16.533 7.5751 16.5914 8.57294C16.6051 8.80715 16.5973 9.42704 16.5781 9.63662C16.5057 10.4233 16.3385 11.1343 16.0656 11.8154C16.0034 11.9709 15.8871 12.2373 15.8772 12.2472C15.8734 12.2509 15.4124 12.3013 14.9898 12.3442C14.4141 12.4027 13.8103 12.454 13.3489 12.4838C13.256 12.4898 13.0479 12.4949 12.8865 12.4952C12.6134 12.4956 12.5867 12.4942 12.5018 12.4755C12.2612 12.4223 12.1415 12.3531 11.8682 12.1089C11.6229 11.8899 11.4518 11.7857 11.2546 11.7353C10.7842 11.6153 10.4071 11.8008 9.4939 12.6017C9.07003 12.9735 8.41758 13.5939 7.89259 14.1245C7.60634 14.4138 7.58012 14.4466 7.52314 14.5879C7.42234 14.8378 7.3558 15.3247 7.30958 16.1507C7.30163 16.2925 7.29418 16.4096 7.29301 16.4108C7.28868 16.4154 6.94084 16.3238 6.79833 16.2806C5.89867 16.0075 5.07045 15.5779 4.32464 14.9974C3.26383 14.1716 2.43313 13.0645 1.93383 11.8109C1.73921 11.3223 1.59772 10.8215 1.50791 10.3036C1.47889 10.1363 1.44184 9.86795 1.44703 9.86277C1.44878 9.86103 1.53406 9.86722 1.63656 9.87654C2.01571 9.91101 2.16728 9.90869 2.52994 9.86291C2.8414 9.8236 3.06249 9.78126 3.71278 9.63639C4.25343 9.51595 4.34477 9.49979 4.45095 9.5058C4.50693 9.50898 4.56093 9.5187 4.61103 9.53463C4.78087 9.58866 4.88599 9.65992 5.26026 9.97476C5.52259 10.1954 5.69803 10.3135 5.87355 10.3875C6.1897 10.5207 6.47406 10.5348 6.754 10.4311C7.25289 10.2463 7.99562 9.64011 8.57721 8.94298C8.88642 8.57234 9.16642 8.14538 9.37324 7.7291C9.65693 7.15808 9.81915 6.61032 9.88151 6.01278C9.90032 5.83249 9.90299 5.37317 9.88636 5.17685C9.84451 4.68277 9.779 4.376 9.56929 3.69191C9.54233 3.60397 9.52027 3.52134 9.52027 3.50832C9.52027 3.45709 9.68507 3.25659 9.9081 3.03647C10.254 2.69513 10.7305 2.31885 11.3058 1.93276L11.4861 1.81179L11.5726 1.8429C11.6202 1.86001 11.7352 1.90431 11.8281 1.94135ZM11.0661 13.2676C11.3701 13.528 11.6571 13.6891 12.0016 13.7926C12.1951 13.8508 12.3793 13.8819 12.6228 13.8976C12.9328 13.9175 13.6366 13.8789 14.6063 13.7887C14.7647 13.774 14.9018 13.7632 14.9109 13.7647C14.9243 13.7668 14.9104 13.7878 14.8416 13.8696C14.5368 14.232 14.2101 14.5579 13.8578 14.8508C12.7494 15.7723 11.3884 16.3647 9.97384 16.5412C9.62989 16.5841 9.4971 16.5925 9.08671 16.5973L8.69317 16.6019V16.5715C8.69317 16.3515 8.74743 15.6253 8.78741 15.3103L8.80151 15.1991L9.15422 14.8478C9.85672 14.1482 10.4526 13.6026 10.8765 13.2709C10.9303 13.2288 10.9756 13.1942 10.9772 13.1941C10.9787 13.1939 11.0187 13.227 11.0661 13.2676Z" fill="#F9FAFB"/>
  </g>
  <defs>
    <clipPath id="clip0_1_6128">
      <rect width="18" height="18" fill="white"/>
    </clipPath>
  </defs>
</svg>