<svg xmlns="http://www.w3.org/2000/svg" width="20" height="21" viewBox="0 0 20 21" fill="none">
  <g clip-path="url(#clip0_1_15098)">
    <ellipse cx="9.87073" cy="5.02576" rx="3.75" ry="4.18103" fill="#454F5B"/>
    <path d="M2.88796 19.1637C4.00865 20.0689 7.71555 20.0689 10.0431 20.0689C12.4914 20.0689 15.9052 20.0689 17.1552 19.1637C17.888 18.474 18.4483 17.3965 18.4483 15.7585C18.4483 14.5085 18.1035 12.9568 17.0259 12.3102C15.7328 11.5344 13.0173 10.8447 10.0431 10.8447C7.069 10.8447 4.13796 11.4859 2.97417 12.3102C1.93969 13.043 1.55176 14.5947 1.55176 15.7585C1.55176 17.0947 1.92737 18.3878 2.88796 19.1637Z" fill="#454F5B"/>
  </g>
  <defs>
    <clipPath id="clip0_1_15098">
      <rect width="20" height="20" fill="white" transform="translate(0 0.5)"/>
    </clipPath>
  </defs>
</svg>