<svg xmlns="http://www.w3.org/2000/svg" width="20" height="20" viewBox="0 0 20 20" fill="none">
<path fill-rule="evenodd" clip-rule="evenodd" d="M3.95841 13.6942C4.38449 13.2735 5.12356 12.8337 6.08341 12.8337C7.54493 12.8337 8.5618 13.3064 9.7074 13.8559L9.77331 13.8875C10.9031 14.4297 12.1789 15.042 13.9584 15.042C15.2184 15.042 16.5601 14.3391 17.363 13.7592C17.5799 13.6026 17.7084 13.3512 17.7084 13.0837V3.70866C17.7084 3.39572 17.5331 3.10916 17.2545 2.96669C16.9758 2.82422 16.6409 2.84987 16.3872 3.03309C15.7959 3.46011 14.92 4.00033 14.0001 4.00033C12.6909 4.00033 11.6008 3.50417 10.3445 2.91298L10.2648 2.87545C9.068 2.31186 7.69859 1.66699 6.04175 1.66699C4.71847 1.66699 3.44488 2.26777 2.57144 3.04415C2.39354 3.20229 2.29175 3.42896 2.29175 3.66699V16.667C2.29175 17.1217 2.65589 17.4913 3.10845 17.5002C3.11398 17.5003 3.11953 17.5004 3.12508 17.5004C3.13063 17.5004 3.13618 17.5003 3.14171 17.5002C3.59427 17.4913 3.95841 17.1217 3.95841 16.667V13.6942ZM3.95841 7.7605V11.6714C4.55091 11.3721 5.26601 11.167 6.08341 11.167C6.7186 11.167 7.28984 11.2397 7.81258 11.3575V7.46132C8.55086 7.67226 9.27547 7.98281 10.0001 8.29335C10.7247 8.6039 11.4493 8.91445 12.1876 9.12538V13.0992C12.7266 13.2696 13.2957 13.3753 13.9584 13.3753C14.5831 13.3753 15.387 13.0449 16.0417 12.6391V8.82621C14.6903 9.53412 13.4213 9.47468 12.1876 9.12538V5.42648C11.2538 5.18294 10.4239 4.79238 9.66598 4.43567L9.63483 4.42101C8.99363 4.11927 8.40356 3.84375 7.81258 3.64555V7.46132C6.5789 7.11203 5.30987 7.05259 3.95841 7.7605Z" fill="#212B36"/>
</svg>