<svg xmlns="http://www.w3.org/2000/svg" width="20" height="20" viewBox="0 0 20 20" fill="none">
  <path d="M2.27674 12.0094C2.2229 12.2096 2.25104 12.4232 2.35504 12.6028L3.92107 15.3131C4.02486 15.4928 4.19595 15.6238 4.39639 15.6775C4.59704 15.7311 4.81074 15.7032 4.99059 15.5993L6.14207 14.9352C6.60189 15.2941 7.11146 15.5887 7.65101 15.8075V17.134C7.65101 17.5659 8.00154 17.9163 8.43403 17.9163H11.5661C11.9984 17.9163 12.3491 17.5659 12.3491 17.134V15.8075C12.8887 15.5887 13.3982 15.2941 13.8581 14.9352L15.0096 15.5993C15.1892 15.703 15.4031 15.7311 15.6035 15.6775C15.8042 15.6238 15.9753 15.4928 16.0791 15.3131L17.6451 12.6028C17.7489 12.4232 17.777 12.2096 17.7234 12.0094C17.6696 11.8089 17.5382 11.638 17.3586 11.5343L16.2047 10.8687C16.2442 10.5831 16.2642 10.294 16.2642 10.0049C16.2642 9.71231 16.2438 9.42037 16.2032 9.13148L17.3586 8.46507C17.5385 8.36137 17.6696 8.19044 17.7234 7.98997C17.777 7.7895 17.7489 7.57599 17.6451 7.3963L16.0791 4.68628C15.8629 4.31223 15.3839 4.18408 15.0096 4.40004L13.8505 5.06868C13.3925 4.71236 12.8856 4.4198 12.3491 4.20221V2.86533C12.3491 2.43342 11.9986 2.08301 11.5661 2.08301H8.43403C8.00154 2.08301 7.65101 2.43342 7.65101 2.86533V4.20221C7.11473 4.4198 6.6076 4.71236 6.14982 5.06868L4.99059 4.40004C4.61621 4.18388 4.13722 4.31223 3.92107 4.68628L2.35504 7.3963C2.25125 7.57599 2.22311 7.78971 2.27674 7.98997C2.33057 8.19044 2.46168 8.36137 2.64153 8.46507L3.79689 9.13148C3.75631 9.42037 3.73592 9.71231 3.73592 10.0049C3.73592 10.294 3.75591 10.5829 3.79546 10.8687L2.64174 11.5343C2.46168 11.638 2.33057 11.8089 2.27674 12.0094ZM10.0001 7.65789C11.2973 7.65789 12.3491 8.70873 12.3491 10.0049C12.3491 11.301 11.2973 12.3518 10.0001 12.3518C8.70258 12.3518 7.65101 11.301 7.65101 10.0049C7.65101 8.70873 8.70279 7.65789 10.0001 7.65789Z" fill="#2D981B"/>
</svg>