<svg xmlns="http://www.w3.org/2000/svg" width="20" height="20" viewBox="0 0 20 20" fill="none">
  <path fill-rule="evenodd" clip-rule="evenodd" d="M8.32332 8.85958C9.02885 9.48516 9.02885 10.5155 8.32332 11.1411L8.22691 11.2265C6.41847 12.8292 5.02149 14.0668 4.60038 16.6609C4.45139 17.5756 5.29536 18.3337 6.31111 18.3337H10.4165H14.5221C15.5378 18.3337 16.3818 17.5756 16.2328 16.6609C15.8117 14.0668 14.4147 12.8292 12.6063 11.2265L12.5099 11.1411C11.8043 10.5155 11.8043 9.48516 12.5099 8.85958L12.6063 8.77416C14.4147 7.17145 15.8117 5.93386 16.2328 3.33976C16.3818 2.42505 15.5378 1.66699 14.5221 1.66699H10.4165H6.31111C5.29536 1.66699 4.45139 2.42505 4.60038 3.33976C5.02149 5.93386 6.41847 7.17145 8.22691 8.77416L8.32332 8.85958ZM8.93633 7.44488L8.92977 7.4397C7.55164 6.29539 6.52626 5.44354 6.39261 3.33671C6.38429 3.20711 6.44475 3.09074 6.54335 3.01363C6.62004 2.95331 6.72038 2.91699 6.82993 2.91699H10.4165H14.0028C14.1321 2.91699 14.2487 2.96765 14.3288 3.04853C14.4037 3.1238 14.4472 3.22533 14.4401 3.33671C14.3065 5.44354 13.2811 6.29539 11.9034 7.4397C11.5388 7.74233 11.1497 8.06551 10.7461 8.43774C10.5643 8.60549 10.2685 8.60549 10.0867 8.43774C9.68523 8.06765 9.29835 7.74599 8.93633 7.44488Z" fill="#AD770B"/>
</svg>