<svg xmlns="http://www.w3.org/2000/svg" width="20" height="20" viewBox="0 0 20 20" fill="none">
  <path d="M15.7335 8.81703C16.021 8.90879 16.3333 8.70534 16.3333 8.40354V6.66895C16.3333 6.00699 16.0707 5.37205 15.6032 4.90339L12.8633 2.15662C12.5506 1.84316 12.1261 1.66699 11.6833 1.66699H2.86938C2.43554 1.66699 2.08325 2.01937 2.08325 2.45429V16.7527C2.08491 16.9611 2.16829 17.1606 2.31538 17.3079C2.46248 17.4552 2.66147 17.5386 2.86938 17.54H8.29128C8.62149 17.54 8.82596 17.1699 8.68449 16.8716C8.32566 16.1148 8.12492 15.2685 8.12492 14.3753C8.12492 11.1537 10.7366 8.54199 13.9583 8.54199C14.5772 8.54199 15.1737 8.63841 15.7335 8.81703Z" fill="white"/>
  <path fill-rule="evenodd" clip-rule="evenodd" d="M11.1593 17.1714C11.9016 17.9156 12.9084 18.3337 13.9583 18.3337C15.0081 18.3337 16.0149 17.9156 16.7572 17.1714C17.4995 16.4272 17.9166 15.4179 17.9166 14.3654C17.9166 13.313 17.4995 12.3036 16.7572 11.5595C16.0149 10.8153 15.0081 10.3972 13.9583 10.3972C12.9084 10.3972 11.9016 10.8153 11.1593 11.5595C10.417 12.3036 9.99992 13.313 9.99992 14.3654C9.99992 15.4179 10.417 16.4272 11.1593 17.1714ZM14.3605 16.7137C13.8761 16.7968 13.378 16.7272 12.9346 16.5146L16.1021 13.3392C16.3142 13.7837 16.3835 14.283 16.3006 14.7687C16.2177 15.2542 15.9866 15.7021 15.639 16.0504C15.2916 16.3988 14.8448 16.6305 14.3605 16.7137ZM14.9819 12.217L11.8144 15.3916C11.6023 14.9472 11.533 14.4486 11.6159 13.963C11.6988 13.4774 11.9299 13.0295 12.2775 12.6812C12.6249 12.3328 13.0717 12.1011 13.556 12.018C14.0404 11.9349 14.5385 12.0044 14.9819 12.217Z" fill="white"/>
</svg>