<svg xmlns="http://www.w3.org/2000/svg" width="20" height="20" viewBox="0 0 20 20" fill="none">
<path d="M12.8559 8.3602C12.8785 8.2049 12.9237 7.78733 12.9237 7.3594C12.9237 5.08173 11.3814 2.66601 9.44915 1.73423C9.04237 1.53807 8.68644 1.79635 8.68644 2.18286C8.68644 2.85581 8.4661 3.56327 7.88983 4.58133C7.41434 5.42133 6.76785 5.93276 6.17653 6.40055C5.869 6.64384 5.57638 6.87532 5.33051 7.13509C4.19492 8.3348 3.5 9.99253 3.5 11.6214C3.5 15.383 6.41526 18.3337 10.0424 18.3337C13.8898 18.3337 16.5 15.0034 16.5 11.6214C16.5 9.68884 15.5 7.98058 14.7373 7.2041C14.5339 6.99704 14.378 6.859 14.161 6.859C13.9441 6.859 13.8593 6.98324 13.7373 7.2041C13.5275 7.58372 13.1949 8.08412 12.8559 8.3602Z" fill="#E93226"/>
</svg>