<svg xmlns="http://www.w3.org/2000/svg" width="245" height="243" viewBox="0 0 245 243" fill="none">
    <circle cx="121.5" cy="121.5" r="121.5" fill="url(#paint0_linear_1_5577)"/>
    <path d="M26.7305 58C23.1537 63.2647 16 76.953 16 89.5884C16 105.383 31.7943 131.228 49.6383 131.228C60.4894 131.228 64.1064 121.057 64.1064 115.314C64.1064 108.254 59.5248 101.793 50.844 101.793C42.1631 101.793 37.9433 109.81 37.9433 117.228C37.9433 139.244 61.0922 148.099 84 142.236" stroke="#D1DCFA" stroke-width="2.5" stroke-dasharray="7 11"/>
    <path d="M35.9865 37.3164L22.1516 65.4097L48.2685 50.4454L35.9865 37.3164Z" fill="#265DE9"/>
    <path d="M59.28 62.163L35.9866 37.3166L22.2929 65.2687L28.081 28.8463L4.92871 4L116.455 8.51751L59.28 62.163Z" fill="#D1DCFA"/>
    <path d="M22.2925 65.268L28.0806 28.8456L113.349 9.22266L35.9862 37.3159L22.2925 65.268Z" fill="#8BA9F3"/>
    <path d="M60.8905 94.0978C59.3453 81.5133 68.2945 70.0589 80.879 68.5137L201.646 53.6854C214.231 52.1402 225.685 61.0893 227.23 73.6738L242.058 194.441C243.604 207.025 234.655 218.48 222.07 220.025L101.303 234.853C88.7184 236.399 77.264 227.449 75.7188 214.865L60.8905 94.0978Z" fill="url(#paint1_linear_1_5577)"/>
    <rect x="75.1492" y="84.6377" width="136.979" height="104.839" rx="20" transform="rotate(-7 75.1492 84.6377)" fill="#8BA9F3"/>
    <path d="M90.0697 206.164C89.8522 204.393 89.7435 203.508 89.8879 202.793C90.0411 202.035 90.3873 201.398 90.8658 200.995C91.317 200.614 91.9495 200.537 93.2146 200.381L161.573 191.988C162.838 191.833 163.471 191.755 164.001 192.015C164.563 192.291 165.053 192.825 165.385 193.523C165.698 194.182 165.806 195.067 166.024 196.838C166.241 198.61 166.35 199.495 166.206 200.21C166.052 200.968 165.706 201.605 165.228 202.008C164.777 202.389 164.144 202.466 162.879 202.622L94.5202 211.015C93.2552 211.17 92.6227 211.248 92.0928 210.988C91.5309 210.712 91.0409 210.178 90.7089 209.48C90.3959 208.821 90.2871 207.936 90.0697 206.164Z" fill="#265DE9"/>
    <defs>
      <linearGradient id="paint0_linear_1_5577" x1="86.9001" y1="0.117134" x2="105.615" y2="270.803" gradientUnits="userSpaceOnUse">
        <stop stop-color="#8BA9F3"/>
        <stop offset="1" stop-color="#265DE9"/>
      </linearGradient>
      <linearGradient id="paint1_linear_1_5577" x1="141.263" y1="61.0996" x2="189.139" y2="216.742" gradientUnits="userSpaceOnUse">
        <stop stop-color="#E4ECFF"/>
        <stop offset="1" stop-color="#D1DCFA"/>
      </linearGradient>
    </defs>
  </svg>