<svg xmlns="http://www.w3.org/2000/svg" width="24" height="24" viewBox="0 0 24 24" fill="none">
    <path fill-rule="evenodd" clip-rule="evenodd"
        d="M2.5 8.5C2.5 5.18629 5.18629 2.5 8.5 2.5H15.5C18.8137 2.5 21.5 5.18629 21.5 8.5V15.5C21.5 18.8137 18.8137 21.5 15.5 21.5H8.5C5.18629 21.5 2.5 18.8137 2.5 15.5V8.5ZM7.5 10C7.5 9.44772 7.94772 9 8.5 9H15.5C16.0523 9 16.5 9.44772 16.5 10C16.5 10.5523 16.0523 11 15.5 11H8.5C7.94772 11 7.5 10.5523 7.5 10ZM8.5 13C7.94772 13 7.5 13.4477 7.5 14C7.5 14.5523 7.94772 15 8.5 15H13.5C14.0523 15 14.5 14.5523 14.5 14C14.5 13.4477 14.0523 13 13.5 13H8.5Z"
        fill="#212B36" />
</svg>