<svg xmlns="http://www.w3.org/2000/svg" width="165" height="160" viewBox="0 0 165 160" fill="transparent">
  <path fill='transparent' d="M14.9295 36.9785C12.4801 40.5837 7.58145 49.9572 7.58145 58.6097C7.58145 69.4253 18.3971 87.1235 30.6163 87.1235C38.0469 87.1235 40.5238 80.1589 40.5238 76.226C40.5238 71.3917 37.3864 66.9672 31.442 66.9672C25.4975 66.9672 22.6078 72.4569 22.6078 77.5369C22.6078 92.6132 38.4598 98.6765 54.1466 94.6616" stroke="#D1DCFA" stroke-width="2.5" stroke-dasharray="7 11"/>
  <path d="M21.2678 22.8145L11.7939 42.0522L29.6783 31.805L21.2678 22.8145Z" fill="#265DE9"/>
  <path d="M37.2188 39.8289L21.2679 22.8146L11.8907 41.9557L15.8542 17.0143L0 0L76.371 3.09351L37.2188 39.8289Z" fill="#D1DCFA"/>
  <path d="M11.8905 41.956L15.854 17.0146L74.244 3.57715L21.2677 22.8149L11.8905 41.956Z" fill="#8BA9F3"/>
  <path d="M38.3216 61.6964C37.2635 53.0787 43.3917 45.235 52.0094 44.1769L134.708 34.0227C143.326 32.9646 151.17 39.0928 152.228 47.7104L162.382 130.41C163.44 139.027 157.312 146.871 148.694 147.929L65.9953 158.083C57.3777 159.141 49.5339 153.013 48.4758 144.395L38.3216 61.6964Z" fill="url(#paint0_linear_1_3022)"/>
  <rect x="48.0857" y="55.2188" width="93.8007" height="71.7916" rx="20" transform="rotate(-7 48.0857 55.2188)" fill="#8BA9F3"/>
  <path d="M58.303 138.438C58.1541 137.225 58.0796 136.619 58.1785 136.129C58.2834 135.61 58.5205 135.174 58.8481 134.898C59.1571 134.637 59.5902 134.584 60.4565 134.478L107.267 128.73C108.134 128.624 108.567 128.57 108.93 128.748C109.314 128.937 109.65 129.303 109.877 129.781C110.092 130.232 110.166 130.839 110.315 132.051C110.464 133.264 110.538 133.871 110.439 134.36C110.335 134.879 110.097 135.315 109.77 135.592C109.461 135.852 109.028 135.905 108.161 136.012L61.3506 141.759C60.4843 141.866 60.0512 141.919 59.6884 141.741C59.3036 141.552 58.9681 141.186 58.7407 140.708C58.5263 140.257 58.4519 139.651 58.303 138.438Z" fill="#265DE9"/>
  <defs>
    <linearGradient id="paint0_linear_1_3022" x1="93.3589" y1="39.0998" x2="126.144" y2="145.681" gradientUnits="userSpaceOnUse">
      <stop stop-color="#E4ECFF"/>
      <stop offset="1" stop-color="#D1DCFA"/>
    </linearGradient>
  </defs>
</svg>