<svg width="24" height="24" viewBox="0 0 24 24" fill="none" xmlns="http://www.w3.org/2000/svg">
<path fill-rule="evenodd" clip-rule="evenodd" d="M16.2752 3.00518C15.387 3.07251 14.5764 3.36968 13.9231 3.86743C13.7004 4.0371 13.6048 4.13104 11.4375 6.31038L9.24407 8.51607L7.84475 7.10928C6.64384 5.90194 6.43631 5.69686 6.38104 5.66288C5.83642 5.32791 5.14395 5.62786 5.01553 6.25437C5.00034 6.32847 4.99794 6.36342 5.00138 6.46024C5.00803 6.64732 5.05412 6.79247 5.15424 6.94166C5.19026 6.99535 6.36972 8.18699 11.0377 12.8859C14.4693 16.3402 16.9027 18.7833 16.9405 18.8122C17.1232 18.9518 17.3571 19.0193 17.5748 18.9952C17.7934 18.971 17.978 18.8827 18.1301 18.7296C18.2391 18.6199 18.3208 18.4744 18.3633 18.3144C18.3828 18.2408 18.3855 18.2137 18.3855 18.0923C18.3855 17.971 18.3828 17.9439 18.3633 17.8703C18.3377 17.774 18.2895 17.6655 18.2369 17.5859C18.2118 17.5481 17.7637 17.091 16.8086 16.1292L15.4168 14.7276L17.5937 12.5355C18.791 11.3298 19.8052 10.3045 19.8475 10.257C20.1404 9.92752 20.3689 9.59612 20.5501 9.23761C21.056 8.2372 21.1379 7.10811 20.7824 6.03263C20.5646 5.37382 20.2002 4.77791 19.7053 4.27161C19.4789 4.03995 19.3023 3.89239 19.0524 3.72616C18.4525 3.32706 17.7639 3.08776 17.0006 3.01316C16.8702 3.00042 16.4054 2.99531 16.2752 3.00518Z" />
<path d="M9.4624 14.5L3 20.9624"  stroke-width="1.6" stroke-linecap="round"/>
</svg>
