<svg xmlns="http://www.w3.org/2000/svg" width="20" height="21" viewBox="0 0 20 21" fill="none">
  <path fill-rule="evenodd" clip-rule="evenodd" d="M5.57045 1.56057C5.42534 1.59208 5.19448 1.67764 5.0574 1.75073C4.532 2.03078 4.52997 2.03382 2.28298 5.9252C1.14394 7.89777 0.164105 9.62587 0.105525 9.76545C0.0132344 9.98535 -0.000850215 10.0813 3.80063e-05 10.4845C0.000841635 10.8517 0.0190713 10.9943 0.0865339 11.1612C0.133525 11.2775 1.11294 12.9962 2.26293 14.9804C4.57167 18.9638 4.54168 18.9195 5.11522 19.1993C5.27806 19.2788 5.53501 19.3631 5.68622 19.3866C6.05889 19.4447 13.942 19.4447 14.3147 19.3866C14.4659 19.3631 14.7228 19.2786 14.8857 19.199C15.4602 18.9179 15.4413 18.9458 17.7256 14.989C18.8604 13.0233 19.8368 11.3008 19.8954 11.1612C19.9879 10.9406 20.0016 10.8466 19.9999 10.4422C19.9984 10.1071 19.9774 9.92372 19.9248 9.78668C19.8847 9.68208 18.9057 7.96308 17.7494 5.96674C15.4731 2.03691 15.4691 2.0309 14.9507 1.75458C14.4615 1.49382 14.5379 1.49776 9.97929 1.50063C6.65751 1.50275 5.78185 1.51463 5.57045 1.56057ZM10.8047 7.17916C11.685 7.41847 12.3596 7.9004 12.8361 8.63039C13.8487 10.1815 13.3986 12.2773 11.8334 13.299C10.5171 14.1583 8.75735 13.9776 7.63506 12.868C6.95688 12.1974 6.63975 11.4312 6.63975 10.4633C6.63975 9.72662 6.7888 9.20629 7.16477 8.63039C7.67364 7.85087 8.46504 7.32001 9.38714 7.13966C9.74734 7.06919 10.4747 7.08945 10.8047 7.17916Z" fill="#454F5B"/>
</svg>