<svg width="19" height="19" viewBox="0 0 19 19" fill="none" xmlns="http://www.w3.org/2000/svg">
<g clip-path="url(#clip0_1_12845)">
<path fill-rule="evenodd" clip-rule="evenodd" d="M18.1365 3.83822C18.1365 5.58911 16.7172 7.00848 14.9663 7.00848C13.9965 7.00848 13.1284 6.57304 12.5469 5.887L7.33576 9.01817C7.48615 9.38718 7.56902 9.79089 7.56902 10.214C7.56902 10.5182 7.52616 10.8125 7.44614 11.091L12.4155 13.6148C12.993 12.8338 13.9205 12.3275 14.9663 12.3275C16.7172 12.3275 18.1365 13.7468 18.1365 15.4977C18.1365 17.2486 16.7172 18.668 14.9663 18.668C13.2154 18.668 11.796 17.2486 11.796 15.4977C11.796 15.1703 11.8457 14.8545 11.9378 14.5574L6.98808 12.0436C6.41389 12.8547 5.46816 13.3842 4.39877 13.3842C2.64789 13.3842 1.22852 11.9648 1.22852 10.214C1.22852 8.46307 2.64789 7.0437 4.39877 7.0437C5.34702 7.0437 6.19804 7.46003 6.77901 8.11986L12.0072 4.97841C11.8708 4.62459 11.796 4.24014 11.796 3.83822C11.796 2.08734 13.2154 0.667969 14.9663 0.667969C16.7172 0.667969 18.1365 2.08734 18.1365 3.83822Z" fill="#000"/>
</g>
<defs>
<clipPath id="clip0_1_12845">
<rect width="18" height="18" fill="white" transform="translate(0.666016 0.667969)"/>
</clipPath>
</defs>
</svg>
