<svg xmlns="http://www.w3.org/2000/svg" width="24" height="24" viewBox="0 0 24 24" fill="none">
    <path
        d="M7.1504 2.40228C6.8903 1.86778 6.11438 1.8648 5.85179 2.4C5.2433 3.64024 4.14221 5.01844 2.40369 5.85828C1.86717 6.11746 1.86418 6.89365 2.40228 7.1548C3.98728 7.92403 5.13418 9.15011 5.8456 10.6003C6.11276 11.1449 6.89824 11.1257 7.1504 10.5873C7.9368 8.90823 9.33693 7.7421 10.5929 7.13886C10.8771 7.00235 11.0002 6.72455 11 6.48329C10.9998 6.2419 10.8761 5.96374 10.5906 5.82807C9.18371 5.15941 7.91406 3.97158 7.1504 2.40228Z"
        fill="#212B36" />
    <path
        d="M16.8672 6.53637C16.5204 5.8237 15.4858 5.81974 15.1357 6.53334C14.3244 8.18699 12.8563 10.0246 10.5383 11.1444C9.82289 11.4899 9.81891 12.5249 10.5364 12.8731C12.6497 13.8987 14.1789 15.5335 15.1275 17.4671C15.4837 18.1932 16.531 18.1676 16.8672 17.4497C17.9157 15.211 19.7826 13.6561 21.4572 12.8518C21.8361 12.6698 22.0002 12.2994 22 11.9777C21.9998 11.6559 21.8348 11.285 21.4542 11.1041C19.5783 10.2126 17.8854 8.62878 16.8672 6.53637Z"
        fill="#212B36" />
    <path
        d="M5.85179 13.4C6.11438 12.8648 6.8903 12.8678 7.1504 13.4023C7.91406 14.9716 9.18371 16.1594 10.5906 16.8281C10.8761 16.9637 10.9998 17.2419 11 17.4833C11.0002 17.7246 10.8771 18.0024 10.5929 18.1389C9.33693 18.7421 7.9368 19.9082 7.1504 21.5873C6.89824 22.1257 6.11276 22.1449 5.8456 21.6003C5.13418 20.1501 3.98728 18.924 2.40228 18.1548C1.86418 17.8936 1.86717 17.1175 2.40369 16.8583C4.14221 16.0184 5.2433 14.6402 5.85179 13.4Z"
        fill="#212B36" />
</svg>