<svg xmlns="http://www.w3.org/2000/svg" width="182" height="160" viewBox="0 0 182 160" fill="transparent">
  <path d="M3.24226 38.8241C2.391 36.5138 3.57378 33.9509 5.88407 33.0996L83.881 4.36052C86.1913 3.50926 88.7542 4.69204 89.6055 7.00234L131.674 121.176C132.526 123.486 131.343 126.049 129.032 126.9L51.0356 155.639C48.7253 156.49 46.1623 155.308 45.311 152.997L3.24226 38.8241Z" fill="url(#paint0_linear_1_3075)"/>
  <path fill-rule="evenodd" clip-rule="evenodd" d="M5.88403 33.0996C3.57373 33.9509 2.39095 36.5138 3.24221 38.8241L45.311 152.997C46.1623 155.308 48.7252 156.49 51.0355 155.639L129.032 126.9C131.343 126.049 132.525 123.486 131.674 121.176L89.6055 7.00234C88.7542 4.69204 86.1912 3.50926 83.8809 4.36052L5.88403 33.0996ZM86.0018 9.42767L7.74196 38.3013L49.1518 150.54L127.412 121.666L86.0018 9.42767Z" fill="url(#paint1_linear_1_3075)"/>
  <path d="M49.2058 9.04634L39.2743 12.7343L42.0857 17.6721L50.2638 14.629L49.2058 9.04634Z" fill="url(#paint2_linear_1_3075)"/>
  <path d="M27.1508 25.2026L30.3619 33.8692L69.8136 19.3585L66.6431 10.9931C65.8908 9.0497 64.3433 8.33789 62.978 8.82831L28.6996 21.5182C26.9863 22.1577 26.6468 23.7369 27.1508 25.2026Z" fill="#1445C2"/>
  <path d="M37.1458 41.4992C37.0292 41.1843 37.19 40.8346 37.5049 40.718L68.5184 29.2382C68.8332 29.1217 69.183 29.2824 69.2995 29.5973L71.0978 34.4556C71.2144 34.7704 71.0536 35.1202 70.7387 35.2367L39.7252 46.7165C39.4104 46.8331 39.0606 46.6723 38.9441 46.3575L37.1458 41.4992Z" fill="url(#paint3_linear_1_3075)"/>
  <rect x="25.158" y="64.3291" width="34.2858" height="0.681344" transform="rotate(-20.3123 25.158 64.3291)" fill="url(#paint4_linear_1_3075)"/>
  <rect x="26.9576" y="68.585" width="34.2858" height="0.681344" transform="rotate(-20.3123 26.9576 68.585)" fill="url(#paint5_linear_1_3075)"/>
  <rect x="28.5023" y="72.4668" width="34.2858" height="0.681344" transform="rotate(-20.3123 28.5023 72.4668)" fill="url(#paint6_linear_1_3075)"/>
  <rect x="30.02" y="76.1475" width="34.2858" height="0.681344" transform="rotate(-20.3123 30.02 76.1475)" fill="url(#paint7_linear_1_3075)"/>
  <rect x="31.3639" y="80.0557" width="34.2858" height="0.681344" transform="rotate(-20.3123 31.3639 80.0557)" fill="url(#paint8_linear_1_3075)"/>
  <rect x="32.7078" y="83.9648" width="34.2858" height="0.681344" transform="rotate(-20.3123 32.7078 83.9648)" fill="url(#paint9_linear_1_3075)"/>
  <path d="M44.7852 89.3831L37.9723 91.9357L40.525 98.7486L47.3243 96.0955L44.7852 89.3831Z" stroke="#5681EE"/>
  <path d="M45.3278 89.6172L43.0838 94.213L40.8129 93.2919L40.2451 94.3906L43.7152 95.866L46.5269 90.1715L45.3278 89.6172Z" fill="#1445C2"/>
  <path d="M49.1316 101.169L42.3188 103.722L44.8714 110.535L51.6707 107.882L49.1316 101.169Z" stroke="#5681EE"/>
  <path d="M49.6742 101.403L47.4302 105.999L45.1593 105.078L44.5916 106.177L48.0616 107.652L50.8734 101.958L49.6742 101.403Z" fill="#1445C2"/>
  <path d="M53.478 112.954L46.6652 115.507L49.2179 122.32L56.0172 119.667L53.478 112.954Z" stroke="#5681EE"/>
  <path d="M54.0206 113.189L51.7766 117.784L49.5057 116.863L48.938 117.962L52.408 119.437L55.2198 113.743L54.0206 113.189Z" fill="#1445C2"/>
  <path d="M102.05 149.859L113.855 116.788L123.394 114.442L130.821 119.681L123.863 155.332L116.435 141.572L102.05 149.859Z" fill="#1445C2"/>
  <path d="M139.421 153.142L133.166 119.993L140.828 115.224L150.21 116.709L161.391 147.67L147.005 139.148L139.421 153.142Z" fill="#1445C2"/>
  <circle cx="132.072" cy="72.0663" r="30.1005" fill="url(#paint10_linear_1_3075)"/>
  <path fill-rule="evenodd" clip-rule="evenodd" d="M95.5464 42.6317C95.8167 40.6444 96.0973 38.5816 97.3581 37.3208C98.6165 36.0624 100.31 35.8608 102.091 35.6487C104.065 35.4137 106.147 35.1659 107.862 33.4509C108.495 32.8177 109.106 31.8043 109.744 30.7447C110.443 29.584 111.176 28.3679 112.008 27.5356C113.837 25.7066 116.226 26.3579 118.622 27.0111C120.209 27.4438 121.799 27.8772 123.231 27.5908C124.595 27.3181 125.905 26.3185 127.227 25.3094C128.585 24.2733 129.957 23.2271 131.413 22.947C133.338 22.5767 135.593 24.2763 137.499 25.7132C138.709 26.6258 139.779 27.4325 140.535 27.5356C142.442 27.7957 144.331 27.332 146.062 26.9068C148.393 26.3343 150.44 25.8316 151.868 27.2591C152.83 28.2214 153.636 29.5308 154.411 30.79C155.26 32.1701 156.072 33.4898 157.012 34.2258C157.957 35.0568 159.594 35.3038 161.335 35.5664C163.197 35.8473 165.177 36.146 166.551 37.1967C167.862 38.1993 168.077 39.9659 168.324 42.0011C168.357 42.2717 168.39 42.5471 168.427 42.826C168.592 44.0769 168.98 46.3708 170.333 47.7142C170.693 48.0741 171.464 48.5346 172.38 49.081C173.714 49.8774 175.354 50.8562 176.469 51.971C178.253 53.7547 177.701 55.9275 177.042 58.5254C176.904 59.0678 176.762 59.6286 176.635 60.2083C176.016 63.0388 176.812 64.6752 178.183 66.4001C179.554 68.125 181.025 70.1483 181.113 72.0943C181.183 73.6325 179.624 75.7104 178.366 77.3867C178.032 77.8311 177.72 78.2474 177.464 78.6178C175.866 80.9382 176.441 83.2009 177.1 85.7917C177.148 85.9786 177.196 86.1671 177.243 86.3576C177.951 89.1881 177.962 90.725 176.58 92.1071C175.804 92.8828 174.77 93.4774 173.702 94.0911C172.562 94.7458 171.385 95.4223 170.443 96.3639C169.064 97.743 168.745 99.8537 168.439 101.881C168.156 103.755 167.883 105.558 166.795 106.647C165.446 107.995 163.47 108.259 161.526 108.518C159.644 108.769 157.791 109.016 156.567 110.24C155.892 110.915 155.311 111.853 154.67 112.887C153.883 114.156 153.007 115.57 151.757 116.819C150.343 118.234 147.694 117.566 145.5 117.013C144.95 116.874 144.429 116.743 143.962 116.653C141.088 116.1 139.215 116.771 137.384 118.256C134.454 120.634 133.397 121.125 131.413 121.021C130.369 120.966 128.922 119.862 127.494 118.774C126.624 118.11 125.761 117.452 125 117.04C122.675 115.781 119.925 116.559 118.388 116.994C118.17 117.055 117.977 117.11 117.813 117.151C116.044 117.593 113.722 118.146 112.229 116.653C110.919 115.342 110.066 113.926 109.323 112.692C108.75 111.74 108.243 110.897 107.641 110.295C106.237 108.892 104.278 108.643 102.349 108.398C100.479 108.16 98.6372 107.926 97.3581 106.647C96.0448 105.333 95.7766 103.37 95.5113 101.429C95.2518 99.529 94.995 97.6496 93.7646 96.4192C93.144 95.7986 92.1288 95.1773 91.0509 94.5176C89.2103 93.3911 87.1868 92.1527 86.633 90.6144C86.1178 89.1832 86.5807 87.2776 87.0396 85.3889C87.467 83.63 87.8908 81.8857 87.5176 80.5528C87.1613 79.2805 86.1965 77.9845 85.2424 76.7029C84.1235 75.2 83.0194 73.717 82.929 72.3155C82.8088 70.4529 84.1322 68.7278 85.4062 67.0668C86.4768 65.6712 87.5125 64.321 87.6281 62.9725C87.7571 61.4677 87.3511 59.8792 86.9594 58.3469C86.3438 55.9388 85.7638 53.6695 87.3517 52.0816C88.2654 51.1679 89.3751 50.5024 90.5155 49.8184C91.7213 49.0953 92.9615 48.3515 94.041 47.2719C95.053 46.26 95.2953 44.4785 95.5464 42.6317ZM132.072 102.167C148.696 102.167 162.172 88.6906 162.172 72.0665C162.172 55.4425 148.696 41.966 132.072 41.966C115.448 41.966 101.971 55.4425 101.971 72.0665C101.971 88.6906 115.448 102.167 132.072 102.167Z" fill="url(#paint11_linear_1_3075)"/>
  <defs>
    <linearGradient id="paint0_linear_1_3075" x1="57.7372" y1="7.77044" x2="106.281" y2="139.529" gradientUnits="userSpaceOnUse">
      <stop stop-color="#E4ECFF"/>
      <stop offset="1" stop-color="#D1DCFA"/>
    </linearGradient>
    <linearGradient id="paint1_linear_1_3075" x1="41.3046" y1="10.0529" x2="76.7847" y2="168.671" gradientUnits="userSpaceOnUse">
      <stop stop-color="#8BA9F3"/>
      <stop offset="1" stop-color="#265DE9"/>
    </linearGradient>
    <linearGradient id="paint2_linear_1_3075" x1="42.7345" y1="9.92098" x2="44.2814" y2="18.2739" gradientUnits="userSpaceOnUse">
      <stop stop-color="#8BA9F3"/>
      <stop offset="1" stop-color="#265DE9"/>
    </linearGradient>
    <linearGradient id="paint3_linear_1_3075" x1="34.5074" y1="35.5487" x2="69.9856" y2="47.9329" gradientUnits="userSpaceOnUse">
      <stop stop-color="#8BA9F3"/>
      <stop offset="1" stop-color="#265DE9"/>
    </linearGradient>
    <linearGradient id="paint4_linear_1_3075" x1="24.8761" y1="64.9229" x2="27.832" y2="74.8043" gradientUnits="userSpaceOnUse">
      <stop stop-color="#8BA9F3"/>
      <stop offset="1" stop-color="#265DE9"/>
    </linearGradient>
    <linearGradient id="paint5_linear_1_3075" x1="26.6757" y1="69.1788" x2="29.6316" y2="79.0602" gradientUnits="userSpaceOnUse">
      <stop stop-color="#8BA9F3"/>
      <stop offset="1" stop-color="#265DE9"/>
    </linearGradient>
    <linearGradient id="paint6_linear_1_3075" x1="28.2204" y1="73.0606" x2="31.1763" y2="82.942" gradientUnits="userSpaceOnUse">
      <stop stop-color="#8BA9F3"/>
      <stop offset="1" stop-color="#265DE9"/>
    </linearGradient>
    <linearGradient id="paint7_linear_1_3075" x1="29.7381" y1="76.7413" x2="32.694" y2="86.6227" gradientUnits="userSpaceOnUse">
      <stop stop-color="#8BA9F3"/>
      <stop offset="1" stop-color="#265DE9"/>
    </linearGradient>
    <linearGradient id="paint8_linear_1_3075" x1="31.082" y1="80.6495" x2="34.0379" y2="90.5309" gradientUnits="userSpaceOnUse">
      <stop stop-color="#8BA9F3"/>
      <stop offset="1" stop-color="#265DE9"/>
    </linearGradient>
    <linearGradient id="paint9_linear_1_3075" x1="32.4259" y1="84.5586" x2="35.3818" y2="94.4401" gradientUnits="userSpaceOnUse">
      <stop stop-color="#8BA9F3"/>
      <stop offset="1" stop-color="#265DE9"/>
    </linearGradient>
    <linearGradient id="paint10_linear_1_3075" x1="132.072" y1="41.9658" x2="142.328" y2="99.5548" gradientUnits="userSpaceOnUse">
      <stop stop-color="#E4ECFF"/>
      <stop offset="1" stop-color="#D1DCFA"/>
    </linearGradient>
    <linearGradient id="paint11_linear_1_3075" x1="118.037" y1="22.9428" x2="125.591" y2="132.263" gradientUnits="userSpaceOnUse">
      <stop stop-color="#8BA9F3"/>
      <stop offset="1" stop-color="#265DE9"/>
    </linearGradient>
  </defs>
</svg>