<svg xmlns="http://www.w3.org/2000/svg" width="24" height="24" viewBox="0 0 24 24" fill="none">
    <path fill-rule="evenodd" clip-rule="evenodd"
        d="M12.262 20.9798C9.72836 18.578 4.48221 13.6177 3.76683 12.9905C2.8726 12.2065 2.5 11.2732 2.5 10.2279C2.5 9.73059 2.51687 8.61645 2.53455 7.44826C2.55404 6.16098 2.57452 4.80809 2.57452 4.14265C2.57452 2.87333 3.31971 2.5 4.10216 2.5H9.46755C10.5108 2.5 11.3305 2.612 12.1875 3.39599C12.9327 4.02318 18.2608 8.88392 20.8317 11.2359C21.4438 11.7959 21.9644 12.9084 20.8317 14.2225L14.7584 20.9798C14.125 21.6891 12.9774 21.6575 12.262 20.9798ZM8.08894 10.4892C9.32361 10.4892 10.3245 9.48637 10.3245 8.24926C10.3245 7.01216 9.32361 6.00929 8.08894 6.00929C6.85427 6.00929 5.85336 7.01216 5.85336 8.24926C5.85336 9.48637 6.85427 10.4892 8.08894 10.4892Z"
        fill="#212B36" />
</svg>