<svg xmlns="http://www.w3.org/2000/svg" width="158" height="160" viewBox="0 0 158 160" fill="transparent">
  <path d="M37.7647 158.67L24.174 111.014L37.9092 106.619L53.9633 153.723C54.2975 154.704 53.7527 155.766 52.7616 156.066L40.0575 159.92C39.0782 160.218 38.0454 159.654 37.7647 158.67Z" fill="#8BA9F3"/>
  <ellipse cx="116.114" cy="53.6534" rx="24.7384" ry="47.8224" transform="rotate(-22.5507 116.114 53.6534)" fill="url(#paint0_linear_1_3049)"/>
  <path d="M101.274 46.002C97.172 46.002 91.3849 48.3827 89.1872 51.6792C84.9385 58.1256 87.7221 80.2484 101.274 80.2484C107.281 80.2484 118.306 75.4868 118.306 63.0336C118.306 53.5105 110.98 46.002 101.274 46.002Z" fill="#8BA9F3"/>
  <path fill-rule="evenodd" clip-rule="evenodd" d="M126.364 104.422C95.2307 92.1516 82.9606 52.0448 82.9606 30.2516C82.9606 25.6732 84.6088 17.0659 86.4402 13.5863C89.3318 8.09219 93.0331 2.78125 101.091 2.78125C118.855 2.78125 133.14 23.8419 140.282 39.5916C147.424 55.3413 148.706 69.4427 148.706 76.4019C148.706 101.492 133.872 107.381 126.364 104.422ZM134.454 97.8186C147.072 92.5789 149.09 68.5576 138.961 44.1655C128.832 19.7733 110.392 4.24707 97.774 9.4867C85.156 14.7263 83.1382 38.7477 93.267 63.1398C103.396 87.532 121.836 103.058 134.454 97.8186Z" fill="url(#paint1_linear_1_3049)"/>
  <path d="M33.8802 71.8242C33.8802 66.4033 35.5284 61.5685 39.008 59.3709C40.7661 58.3453 71.362 28.4209 86.4402 13.5869C84.6088 17.0665 82.9606 25.6739 82.9606 30.2523C82.9606 52.0455 95.2307 92.1523 126.364 104.422L58.7867 103.873C57.7611 103.873 56.4059 104.605 54.7577 104.605C44.9416 104.605 33.8802 87.0244 33.8802 71.8242Z" fill="url(#paint2_linear_1_3049)"/>
  <path d="M54.7577 104.606C44.9416 104.606 33.8802 87.0246 33.8802 71.8243C33.8802 67.9005 34.7438 64.2837 36.5404 61.7519L3.84586 83.3619C1.28195 85.0101 0 87.8671 0 91.9693C0 104.239 9.70621 114.678 14.6509 114.678C16.116 114.678 17.1782 114.129 17.7642 113.396L55.6733 104.535C55.3791 104.579 55.0737 104.606 54.7577 104.606Z" fill="url(#paint3_linear_1_3049)"/>
  <defs>
    <linearGradient id="paint0_linear_1_3049" x1="116.114" y1="5.83093" x2="145.169" y2="90.2247" gradientUnits="userSpaceOnUse">
      <stop stop-color="#E4ECFF"/>
      <stop offset="1" stop-color="#D1DCFA"/>
    </linearGradient>
    <linearGradient id="paint1_linear_1_3049" x1="106.472" y1="2.83058" x2="118.659" y2="116.064" gradientUnits="userSpaceOnUse">
      <stop stop-color="#8BA9F3"/>
      <stop offset="1" stop-color="#265DE9"/>
    </linearGradient>
    <linearGradient id="paint2_linear_1_3049" x1="80.122" y1="13.5869" x2="95.3978" y2="100.741" gradientUnits="userSpaceOnUse">
      <stop stop-color="#E4ECFF"/>
      <stop offset="1" stop-color="#D1DCFA"/>
    </linearGradient>
    <linearGradient id="paint3_linear_1_3049" x1="21.0229" y1="59.3978" x2="25.0325" y2="121.04" gradientUnits="userSpaceOnUse">
      <stop stop-color="#8BA9F3"/>
      <stop offset="1" stop-color="#265DE9"/>
    </linearGradient>
  </defs>
</svg>