<svg xmlns="http://www.w3.org/2000/svg" width="14" height="14" viewBox="0 0 14 14" fill="none">
  <path d="M6.55778 1.83817C6.74538 1.4826 7.25462 1.4826 7.44222 1.83817L8.71917 4.25842C8.79151 4.39555 8.92338 4.49135 9.07614 4.51778L11.7725 4.98433C12.1687 5.05287 12.326 5.53719 12.0458 5.82549L10.1386 7.78783C10.0306 7.89901 9.98022 8.05402 10.0023 8.20748L10.3918 10.9161C10.449 11.314 10.0371 11.6133 9.67628 11.4359L7.22062 10.2285C7.0815 10.1601 6.9185 10.1601 6.77938 10.2285L4.32372 11.4359C3.96294 11.6133 3.55096 11.314 3.60819 10.9161L3.99771 8.20748C4.01978 8.05402 3.96941 7.89901 3.86135 7.78783L1.95415 5.82549C1.67396 5.53719 1.83132 5.05287 2.22746 4.98433L4.92386 4.51778C5.07662 4.49135 5.20849 4.39555 5.28083 4.25842L6.55778 1.83817Z" />
</svg>