<svg xmlns="http://www.w3.org/2000/svg" width="20" height="21" viewBox="0 0 20 21" fill="none">
  <path fill-rule="evenodd" clip-rule="evenodd" d="M5.81395 19.5C6.09302 19.5 6.77674 19.3744 7.27907 18.8721C7.7814 18.3698 9.16279 17.1279 9.7907 16.5698H15.0233C16.907 16.5698 18.5814 14.8953 18.5814 13.0116V5.26744C18.5814 3.17442 16.907 1.5 14.814 1.5H4.76744C2.67442 1.5 1 3.17442 1 5.26744V12.8023C1 14.4767 2.46512 16.5698 4.76744 16.5698V18.6628C4.76744 19.3326 5.53488 19.5 5.81395 19.5ZM5.81399 10.7093C6.62316 10.7093 7.27911 10.0533 7.27911 9.24415C7.27911 8.43499 6.62316 7.77904 5.81399 7.77904C5.00483 7.77904 4.34888 8.43499 4.34888 9.24415C4.34888 10.0533 5.00483 10.7093 5.81399 10.7093ZM11.2558 9.24415C11.2558 10.0533 10.5999 10.7093 9.79073 10.7093C8.98157 10.7093 8.32562 10.0533 8.32562 9.24415C8.32562 8.43499 8.98157 7.77904 9.79073 7.77904C10.5999 7.77904 11.2558 8.43499 11.2558 9.24415ZM13.7675 10.7093C14.5766 10.7093 15.2326 10.0533 15.2326 9.24415C15.2326 8.43499 14.5766 7.77904 13.7675 7.77904C12.9583 7.77904 12.3024 8.43499 12.3024 9.24415C12.3024 10.0533 12.9583 10.7093 13.7675 10.7093Z" fill="#454F5B"/>
</svg>