<svg xmlns="http://www.w3.org/2000/svg" width="25" height="24" viewBox="0 0 25 24" fill="none">
  <g clip-path="url(#clip0_1_20532)">
    <path fill-rule="evenodd" clip-rule="evenodd" d="M4.88095 23.8095C2.21429 23.8095 0.5 21.5238 0.5 19.4286V11.0476C0.5 9.14286 1.52857 8.15238 2.59524 7.2381L9.83333 0.952381C10.5952 0.190476 11.7381 3.12378e-08 12.5 3.12378e-08C13.2619 -8.90436e-05 14.4048 0.19029 15.1667 0.952381L22.2143 7.2381C23.5476 8.38077 24.5 9.7141 24.5 11.0476V19.4286C24.5 21.7141 22.5952 23.8095 20.119 23.8095H16.6905L16.6905 15.8093C16.6905 14.8569 15.7382 13.9045 14.7858 13.9045H10.2143C9.26196 13.9045 8.30958 14.8569 8.30958 15.8093L8.30957 23.8095H4.88095Z" fill="#C4CDD5"/>
  </g>
  <defs>
    <clipPath id="clip0_1_20532">
      <rect width="24" height="24" fill="white" transform="translate(0.5)"/>
    </clipPath>
  </defs>
</svg>