<svg xmlns="http://www.w3.org/2000/svg" width="25" height="24" viewBox="0 0 25 24" fill="none">
  <g clip-path="url(#clip0_1_20151)">
    <path fill-rule="evenodd" clip-rule="evenodd" d="M9.70312 0.914063C9.70312 0.398438 10.1484 0 10.6172 0H14.3672C14.8828 0 15.2813 0.46875 15.2813 0.914063V4.6875C15.2813 6.51563 13.7344 7.5 12.4688 7.5C11.2875 7.5 9.70312 6.53906 9.70312 4.73438V0.914063ZM7.7 2.34375H6.60938C4.80469 2.34375 3 3.98438 3 5.95313V20.3672C3 22.2891 4.71094 24 6.63281 24H18.3516C20.5266 24 21.9844 22.3359 21.9844 20.3672V6.16406C21.9844 4.17188 20.4609 2.34375 18.1641 2.34375H17.2667V4.875C17.2667 8.23333 14.64 9.6 12.4688 9.6C10.2975 9.6 7.7 8.03333 7.7 4.875V2.34375ZM7.32812 12.7002C6.77584 12.7002 6.32812 13.1479 6.32812 13.7002C6.32812 14.2525 6.77584 14.7002 7.32813 14.7002H17.6563C18.2085 14.7002 18.6563 14.2525 18.6563 13.7002C18.6563 13.1479 18.2085 12.7002 17.6563 12.7002H7.32812ZM6.32812 17.3002C6.32812 16.7479 6.77584 16.3002 7.32812 16.3002H13.25C13.8023 16.3002 14.25 16.7479 14.25 17.3002C14.25 17.8525 13.8023 18.3002 13.25 18.3002H7.32813C6.77584 18.3002 6.32812 17.8525 6.32812 17.3002Z" fill="#C4CDD5"/>
  </g>
  <defs>
    <clipPath id="clip0_1_20151">
      <rect width="24" height="24" fill="white" transform="translate(0.5)"/>
    </clipPath>
  </defs>
</svg>