<svg xmlns="http://www.w3.org/2000/svg" width="25" height="24" viewBox="0 0 25 24" fill="none">
  <path fill-rule="evenodd" clip-rule="evenodd" d="M5.02174 19.8261V22.2609C5.02174 23.1304 5.8913 24 6.76087 24C7.45652 24 8.04783 23.6174 9.02174 22.7826L12.5 19.8261H19.9783C22.0652 19.8261 23.8043 17.6696 23.8043 16V3.82609C23.8043 2.08696 21.7174 0 19.9783 0H5.02174C2.58696 0 0.5 2.08696 0.5 4.52174V16C0.5 18.087 2.76087 19.8261 4.32609 19.8261H5.02174ZM6.93478 11.8261C7.99133 11.8261 8.84783 10.9696 8.84783 9.91304C8.84783 8.8565 7.99133 8 6.93478 8C5.87824 8 5.02174 8.8565 5.02174 9.91304C5.02174 10.9696 5.87824 11.8261 6.93478 11.8261ZM14.0652 9.91304C14.0652 10.9696 13.2087 11.8261 12.1522 11.8261C11.0956 11.8261 10.2391 10.9696 10.2391 9.91304C10.2391 8.8565 11.0956 8 12.1522 8C13.2087 8 14.0652 8.8565 14.0652 9.91304ZM17.3696 11.8261C18.4261 11.8261 19.2826 10.9696 19.2826 9.91304C19.2826 8.8565 18.4261 8 17.3696 8C16.313 8 15.4565 8.8565 15.4565 9.91304C15.4565 10.9696 16.313 11.8261 17.3696 11.8261Z" fill="#C4CDD5"/>
</svg>