<svg xmlns="http://www.w3.org/2000/svg" width="25" height="24" viewBox="0 0 25 24" fill="none">
  <path fill-rule="evenodd" clip-rule="evenodd" d="M0.5 7.12308C0.5 3.7414 3.24139 1 6.62308 1H13.236C16.6177 1 19.3591 3.74139 19.3591 7.12308V10.0858C19.3591 10.6657 18.8368 11.1031 18.2569 11.1031C14.5371 11.1031 11.5215 14.1186 11.5215 17.8385C11.5215 19.7167 12.2903 21.4153 13.5304 22.6369C13.8983 22.9994 13.7525 23.6554 13.236 23.6554H6.62308C3.2414 23.6554 0.5 20.914 0.5 17.5323V7.12308ZM5.39846 8.65385C5.39846 7.97751 5.94674 7.42923 6.62308 7.42923H12.7462C13.4225 7.42923 13.9708 7.97751 13.9708 8.65385C13.9708 9.33018 13.4225 9.87846 12.7462 9.87846H6.62308C5.94674 9.87846 5.39846 9.33018 5.39846 8.65385ZM6.62308 12.3277C5.94674 12.3277 5.39846 12.876 5.39846 13.5523C5.39846 14.2286 5.94674 14.7769 6.62308 14.7769H10.2969C10.9733 14.7769 11.5215 14.2286 11.5215 13.5523C11.5215 12.876 10.9733 12.3277 10.2969 12.3277H6.62308ZM18.1955 13.3067C18.517 12.6513 19.4673 12.655 19.7858 13.3095C20.721 15.2313 22.2758 16.686 23.9987 17.5048C24.3483 17.671 24.4998 18.0116 24.5001 18.3072C24.5003 18.6027 24.3495 18.9429 24.0015 19.11C22.4634 19.8488 20.7488 21.2768 19.7858 23.333C19.477 23.9923 18.5151 24.0159 18.1879 23.349C17.3167 21.573 15.9122 20.0716 13.9712 19.1295C13.3122 18.8097 13.3158 17.8592 13.9729 17.5418C16.1019 16.5133 17.4503 14.8256 18.1955 13.3067Z" fill="#C4CDD5"/>
</svg>