<svg xmlns="http://www.w3.org/2000/svg" width="25" height="24" viewBox="0 0 25 24" fill="none">
  <path fill-rule="evenodd" clip-rule="evenodd" d="M7.10541 0C3.7973 0 2.5 1.81622 2.5 4.86486V20.173C2.5 22.1449 4.44595 24 6.32703 24H18.5216C20.273 24 22.2189 22.3135 22.2189 20.3027V10.0541C22.2189 9.27568 21.7649 8.75676 20.9216 8.75676H15.7324C14.3703 8.75676 13.3324 7.58919 13.3324 6.35676V1.1027C13.3324 0.48 12.8135 0 12.2297 0H7.10541ZM16.5108 15.6056C16.5108 18.1598 12.5583 20.7568 12.3554 20.7568C12.1541 20.7568 8.20811 18.1428 8.20811 15.6056C8.20811 14.3072 9.22261 13.1027 10.5942 13.1027C11.3734 13.1027 11.9658 13.4786 12.3554 13.9142C12.745 13.47 13.3293 13.1027 14.1085 13.1027C15.3908 13.1027 16.5108 14.2218 16.5108 15.6056ZM15.6676 1.94594C15.6676 1.42703 16.1086 1.02486 16.5757 1.49188L20.5324 5.44865C20.7919 5.70811 20.8438 6.29189 20.273 6.29189H16.3811C15.9919 6.29189 15.6676 6.0454 15.6676 5.57837V1.94594Z" fill="#265DE9"/>
</svg>