<svg xmlns="http://www.w3.org/2000/svg" width="25" height="24" viewBox="0 0 25 24" fill="none">
  <g clip-path="url(#clip0_176_3435)">
    <path fill-rule="evenodd" clip-rule="evenodd" d="M7.3175 4.43068V4.68365H3.76038C1.95972 4.68365 0.5 6.13268 0.5 7.92014V8.64902L1.1203 9.04249C4.19047 10.99 6.75646 12.207 9.15043 12.7507C9.27563 11.2864 10.5126 10.1368 12.02 10.1368C13.5301 10.1368 14.7687 11.2904 14.8902 12.7583C16.343 12.432 17.8679 11.8553 19.5368 11.0053C17.9293 10.2358 16.8203 8.60347 16.8203 6.7142C16.8203 5.9879 16.9842 5.29958 17.2773 4.68365H16.7219V4.4433C16.7219 2.55542 15.1853 1.0223 13.2835 1.01267L10.7911 1.00005C8.87557 0.990344 7.3175 2.52913 7.3175 4.43068ZM10.7794 3.28713C10.1409 3.2839 9.6215 3.79683 9.6215 4.43068V4.68365H14.4179V4.4433C14.4179 3.81401 13.9057 3.30297 13.2718 3.29976L10.7794 3.28713Z" fill="#C4CDD5"/>
    <path d="M0.5 11.3577C3.60814 13.2734 6.39217 14.5512 9.14 15.0864V15.2828C9.14 16.8617 10.4294 18.1417 12.02 18.1417C13.6106 18.1417 14.9 16.8617 14.9 15.2828V15.0931C17.6251 14.5686 20.413 13.3073 23.54 11.3617V19.7635C23.54 21.551 22.0803 23 20.2796 23H3.76038C1.95972 23 0.5 21.551 0.5 19.7635V11.3577Z" fill="#C4CDD5"/>
    <path d="M10.868 12.9957C10.868 12.3641 11.3838 11.8521 12.02 11.8521C12.6562 11.8521 13.172 12.3641 13.172 12.9957V15.2828C13.172 15.9144 12.6562 16.4263 12.02 16.4263C11.3838 16.4263 10.868 15.9144 10.868 15.2828V12.9957Z" fill="#C4CDD5"/>
    <path d="M21.6202 9.57171C23.2108 9.57171 24.5002 8.29252 24.5002 6.71456C24.5002 5.13661 23.2108 3.85742 21.6202 3.85742C20.0297 3.85742 18.7402 5.13661 18.7402 6.71456C18.7402 8.29252 20.0297 9.57171 21.6202 9.57171Z" fill="#C4CDD5"/>
  </g>
  <defs>
    <clipPath id="clip0_176_3435">
      <rect width="24" height="24" fill="white" transform="translate(0.5)"/>
    </clipPath>
  </defs>
</svg>