<svg width="18" height="18" viewBox="0 0 18 18" fill="none" xmlns="http://www.w3.org/2000/svg">
<g clip-path="url(#clip0_1_12828)">
<path d="M9.37849 2.14435C9.0084 3.25463 8.53737 5.59295 6.3084 7.61164C5.80372 8.0687 5.6355 8.51164 5.6355 9.0836V15.35C5.6355 15.9808 5.77008 16.3341 6.14017 16.7378C7.02335 17.663 8.74765 17.663 10.3878 17.663H10.8505C13.7103 17.663 15.2874 16.7799 16.2336 14.8873C17.1168 13.121 17.8738 10.9341 17.8738 9.71444C17.8738 7.77986 16.4439 6.39201 14.5093 6.39201H13.0794C13.3318 5.67706 13.5 4.87799 13.5 3.65837C13.5 2.35463 13.0794 0.335938 11.4392 0.335938C10.3878 0.335938 9.85512 0.714442 9.37849 2.14435Z" fill="#000"/>
<rect x="0.168213" y="7.90625" width="4.03738" height="9.58879" rx="2.01869" fill="#000"/>
</g>
<defs>
<clipPath id="clip0_1_12828">
<rect width="18" height="18" fill="white"/>
</clipPath>
</defs>
</svg>
