<svg width="18" height="18" viewBox="0 0 18 18" fill="none" xmlns="http://www.w3.org/2000/svg">
<g clip-path="url(#clip0_1_12834)">
<path d="M9.37849 15.8557C9.0084 14.7454 8.53737 12.4071 6.3084 10.3884C5.80372 9.9313 5.6355 9.48836 5.6355 8.9164V2.65004C5.6355 2.0192 5.77008 1.66593 6.14017 1.26219C7.02335 0.33696 8.74765 0.33696 10.3878 0.33696H10.8505C13.7103 0.33696 15.2874 1.22014 16.2336 3.11266C17.1168 4.87901 17.8738 7.06593 17.8738 8.28556C17.8738 10.2201 16.4439 11.608 14.5093 11.608H13.0794C13.3318 12.3229 13.5 13.122 13.5 14.3416C13.5 15.6454 13.0794 17.6641 11.4392 17.6641C10.3878 17.6641 9.85512 17.2856 9.37849 15.8557Z" fill="#000"/>
<rect width="4.03738" height="9.58878" rx="2.01869" transform="matrix(1 0 0 -1 0.168213 10.0938)" fill="#000"/>
</g>
<defs>
<clipPath id="clip0_1_12834">
<rect width="18" height="18" fill="white" transform="matrix(1 0 0 -1 0 18)"/>
</clipPath>
</defs>
</svg>
