<svg width="40" height="40" viewBox="0 0 40 40" fill="none" xmlns="http://www.w3.org/2000/svg">
<rect width="40" height="40" rx="20" fill="#F59F99"/>
<g clip-path="url(#clip0_331_3531)">
<path d="M18.3636 8C17.9208 8.0016 17.5645 8.36114 17.5661 8.80395C17.5661 10.1476 17.0993 10.9355 16.4963 11.9429C16.1664 12.4938 15.6379 13.4058 15.4121 14.1057C15.1751 13.6285 15.0389 13.2753 14.8283 12.5106C14.6578 11.8756 13.8354 11.7059 13.427 12.2215C10.4226 15.9634 9.54021 18.7693 9.60347 21.6071C9.72999 27.3236 14.2734 32 20.0132 32C25.7529 32 30.4213 27.33 30.4213 21.5903C30.4213 20.1161 30.0802 18.2015 29.3747 16.4014C28.6693 14.6014 27.6059 12.8918 25.9764 12.0206C25.5167 11.7763 24.949 12.0294 24.8241 12.5354C24.6671 13.1784 24.6095 13.3762 24.4221 13.9207C24.1923 12.8782 23.8239 11.8788 23.2226 10.9147C22.2144 9.29561 20.5521 8 18.3636 8ZM17.3363 18.5867C17.9993 18.5867 18.5374 19.1248 18.5374 19.7878C18.5374 20.4508 17.9993 20.9889 17.3363 20.9889C16.6733 20.9889 16.1352 20.4508 16.1352 19.7878C16.1352 19.1248 16.6733 18.5867 17.3363 18.5867ZM23.0184 18.5947C23.229 18.5715 23.4484 18.6251 23.6125 18.7885C23.9441 19.0791 23.9785 19.5828 23.6894 19.9159L17.5365 26.9209C17.2458 27.254 16.7405 27.2876 16.4074 26.9977C16.0735 26.7047 16.0415 26.1954 16.337 25.8639L22.4835 18.8589C22.6068 18.718 22.8078 18.6179 23.0184 18.5947ZM22.6853 24.7925C23.3483 24.7925 23.8864 25.3306 23.8864 25.9936C23.8864 26.6566 23.3483 27.1947 22.6853 27.1947C22.0223 27.1947 21.4842 26.6566 21.4842 25.9936C21.4842 25.3306 22.0215 24.7925 22.6853 24.7925Z" fill="white"/>
</g>
<defs>
<clipPath id="clip0_331_3531">
<rect width="24" height="24" fill="white" transform="translate(8 8)"/>
</clipPath>
</defs>
</svg>
