<svg width="40" height="40" viewBox="0 0 40 40" fill="none" xmlns="http://www.w3.org/2000/svg">
<rect width="40" height="40" rx="20" fill="#2D981B"/>
<path fill-rule="evenodd" clip-rule="evenodd" d="M16 9C12.134 9 9 12.134 9 16V24C9 27.866 12.134 31 16 31H24C27.866 31 31 27.866 31 24V16C31 12.134 27.866 9 24 9H16ZM13.714 17.5C13.714 16.9477 14.1617 16.5 14.714 16.5H24.9997C25.552 16.5 25.9997 16.9477 25.9997 17.5C25.9997 18.0523 25.552 18.5 24.9997 18.5H14.714C14.1617 18.5 13.714 18.0523 13.714 17.5ZM13.714 23.5C13.714 22.9477 14.1617 22.5 14.714 22.5H19.8569C20.4092 22.5 20.8569 22.9477 20.8569 23.5C20.8569 24.0523 20.4092 24.5 19.8569 24.5H14.714C14.1617 24.5 13.714 24.0523 13.714 23.5Z" fill="white"/>
</svg>
