<svg width="40" height="40" viewBox="0 0 40 40" fill="none" xmlns="http://www.w3.org/2000/svg">
<rect width="40" height="40" rx="20" fill="#265DE9"/>
<path d="M17.8906 32V29.8438C16.3395 29.8438 15.0781 28.5824 15.0781 27.0312C15.0781 25.4801 16.3395 24.2188 17.8906 24.2188V22.1094H13.9602L14.2947 21.17C14.3482 21.021 14.375 20.8638 14.375 20.7031C14.375 19.9279 13.744 19.2969 12.9688 19.2969C12.1935 19.2969 11.5625 19.9279 11.5625 20.7031C11.5625 20.8638 11.5893 21.021 11.6428 21.17L11.9773 22.1094H8C8.34889 27.3637 12.6363 31.6511 17.8906 32Z" fill="white" fill-opacity="0.7"/>
<path d="M12.9688 17.8906C14.5199 17.8906 15.7812 19.152 15.7812 20.7031H17.8906V16.7728L18.83 17.1072C19.6958 17.4155 20.7024 16.7165 20.7031 15.7813C20.7024 14.8454 19.6965 14.1409 18.83 14.4554L17.8906 14.7898V10.895C12.6363 11.2439 8.34889 15.4488 8 20.7031H10.1562C10.1562 19.152 11.4176 17.8906 12.9688 17.8906Z" fill="white" fill-opacity="0.7"/>
<path d="M29.105 22.1094H27.0313C27.0313 23.6605 25.7699 24.9219 24.2188 24.9219C22.6676 24.9219 21.4063 23.6605 21.4063 22.1094H19.2969V26.0397L18.3575 25.7053C17.4883 25.3929 16.4837 26.0953 16.4844 27.0312C16.4837 27.9672 17.489 28.6696 18.3575 28.3572L19.2969 28.0228V32C24.5512 31.6511 28.7561 27.3637 29.105 22.1094Z" fill="white" fill-opacity="0.7"/>
<path d="M29.1406 13.6719V10.8594H26.3281C26.3281 9.30823 25.0668 8 23.5156 8C21.9645 8 20.7031 9.30823 20.7031 10.8594H19.2969V12.9688C20.848 12.9688 22.1094 14.2301 22.1094 15.7812C22.1094 17.3324 20.848 18.5938 19.2969 18.5938V20.7031H23.2272L22.8928 21.6425C22.8393 21.7915 22.8125 21.9487 22.8125 22.1094C22.8125 22.8846 23.4435 23.5156 24.2188 23.5156C24.994 23.5156 25.625 22.8846 25.625 22.1094C25.625 21.9487 25.5982 21.7915 25.5447 21.6425L25.2103 20.7031H29.1406V19.2969C30.6918 19.2969 32 18.0355 32 16.4844C32 14.9332 30.6918 13.6719 29.1406 13.6719Z" fill="white"/>
</svg>
