<svg xmlns="http://www.w3.org/2000/svg" width="20" height="21" viewBox="0 0 20 21" fill="none">
  <path fill-rule="evenodd" clip-rule="evenodd" d="M2.9 5.40455C1.03454 6.30273 0.99999 7.39091 1 8.68636V17.5818C1 18.7909 2.03636 20 3.41818 20H16.7182C17.8236 20 19.2227 19.05 19.2227 17.4955V8.6C19.2227 7.42545 18.1864 6.09545 16.7182 6.09545H14.4727V2.29545C14.4727 1.53545 13.6955 1 13.0045 1C12.6591 1 12.0545 1.25909 11.45 1.51818L2.9 5.40455ZM13.0909 3.07267V6.00903H5.23182L12.3136 2.64072C12.7282 2.43345 13.0909 2.72709 13.0909 3.07267ZM14.3863 14.6454C15.2926 14.6454 16.0272 13.9107 16.0272 13.0045C16.0272 12.0982 15.2926 11.3636 14.3863 11.3636C13.4801 11.3636 12.7454 12.0982 12.7454 13.0045C12.7454 13.9107 13.4801 14.6454 14.3863 14.6454Z" fill="#454F5B"/>
</svg>