<svg xmlns="http://www.w3.org/2000/svg" width="24" height="24" viewBox="0 0 24 24" fill="none">
  <path fill-rule="evenodd" clip-rule="evenodd" d="M12 15.5625C15.9609 15.5625 19.1719 12.3515 19.1719 8.39062C19.1719 4.42971 15.9609 1.21875 12 1.21875C8.03908 1.21875 4.82812 4.42971 4.82812 8.39062C4.82812 12.3515 8.03908 15.5625 12 15.5625ZM12 13.5469C14.8477 13.5469 17.1562 11.2383 17.1562 8.39062C17.1562 5.54291 14.8477 3.23438 12 3.23438C9.15228 3.23438 6.84375 5.54291 6.84375 8.39062C6.84375 11.2383 9.15228 13.5469 12 13.5469Z" fill="#161C24"/>
  <path d="M10.9219 18V15.4219H13.0781V18H15.8906V20.1562H13.0781V22.7344H10.8984V20.1562H8.0625V18H10.9219Z" fill="#161C24"/>
</svg>